<?xml version="1.0" encoding="UTF-8" standalone="yes"?><svg version="1.2" viewBox="0 0 64 64" xmlns="http://www.w3.org/2000/svg"><title>BLESSING TRANSPORT SERVICE</title><g transform="translate(-.46905 7.5683)"><path d="m22.831 17.538c9.8935-1.7686 14.848-8.249 24.163-7.1325 9.8985 1.2015 8.732 12.048-1.0815 13.048-10.998 1.1098-18.164-3.8994-25.83-4.7493-4.0494-0.48159-9.8485 0.55991-12.698 3.8661 3.6661-1.5231 6.949-1.7994 10.998-1.4161 9.3153 0.97818 18.831 8.9148 30.662 5.332 3.301-1.0169 5.8357-3.3204 7.0317-6.1474 2.2631-5.3491-1.6396-12.281-8.8981-13.45-8.0988-1.0265-13.894 5.6667-22.23 9.7153" color="#000000" fill="#d65600" stroke-width=".37828"/><path d="m46.827 6.606c-4.1057-0.42508-8.5987 1.665-12.381 4.033-3.7494 2.3496-8.8987 5.8655-10.865 6.5487-0.52992 0.2533-1.1065 0.4116-0.75822 0.42993 4.1161-0.36328 8.5987-2.7329 12.015-4.366 3.7494-1.7831 7.4822-3.2328 12.082-2.6663 4.8826 0.59158 6.9823 3.4995 6.7323 6.3824-0.2533 2.8829-2.8829 5.7658-7.7322 6.249-5.4659 0.55158-9.6152-0.33662-13.565-1.5081-3.9328-1.1715-7.6655-2.6329-12.248-3.1828-4.0494-0.48326-9.5153 0.57145-12.598 3.7993-0.27996 0.32328-0.12382 0.16348-0.50659 0.61157l0.61324-0.26996c3.5828-1.4264 6.749-1.6327 10.748-1.2327 5.0493 0.48826 11.332 3.3994 16.481 4.8491 5.3159 1.4931 9.9026 1.827 14.465 0.31687 5.369-1.7773 8.232-6.5578 7.543-10.755-0.29181-1.7777-1.3723-3.9457-2.5906-5.3932-1.7589-2.0898-4.9459-3.5883-7.4336-3.8459zm-0.05171 0.304c2.8775 0.44698 8.3775 2.4829 9.708 8.7659 0.65183 3.4588-1.2463 8.3664-7.0592 10.602-5.1492 1.5898-10.298 0.96709-15.397-0.616-5.0826-1.5814-10.498-4.0161-15.631-4.516-3.3995-0.32995-6.799-0.36231-10.632 1.1658 1.9997-1.5981 3.4995-2.3496 5.6658-2.9662 2.3497-0.67156 4.8326-0.65311 6.6324-0.43981 4.5327 0.54325 8.2321 1.983 12.182 3.1662 3.9661 1.1782 8.1655 2.083 13.698 1.5248 4.9659-0.49992 7.7988-3.5161 8.0655-6.599 0.27163-3.0829-2.033-6.0828-7.049-6.6827-4.6993-0.56991-7.5428 0.45395-11.292 2.2453-3.7828 1.8497-5.4053 2.5381-7.9216 3.5547-2.2663 0.92152-3.6161 1.1077-4.0494 1.236-0.69156 0.2033 1.1119 0.02381 10.698-6.282 5.6613-3.3126 8.071-4.4691 12.382-4.159z" color="#000000" fill="#993f00" stroke-width="2.9662"/></g><g transform="matrix(1.022 0 0 1 -.62318 22.368)"><path d="m53.324 9.8698-3.9924 2.6716c8.3816 5.9039 1.3273 10.188-3.9485 10.905-9.3153 1.1598-17.831-4.6493-27.163-4.6993-3.7161-0.01483-6.9811 0.51481-11.148 4.016 3.9661-1.1365 7.4822-2.083 11.748-1.5331 9.4319 1.2248 18.664 7.5164 28.496 5.75 11.956-3.0946 10.725-12.622 6.214-17.406" color="#000000" fill="#483737" stroke-width=".37828"/><path d="m52.044 10.64c-1.4253 0.97872-3.3609 1.7749-3.3609 1.7749s1.5012 1.0045 2.2187 1.6046c1.5522 1.2981 1.8395 2.206 2.0895 3.3558 0.10944 1.406-0.1883 1.9509-0.92464 2.8995-1.5898 1.6231-4.0503 2.5996-6.6666 2.9495-4.616 0.57491-9.032-0.57491-13.465-1.883-4.4327-1.3148-8.8987-2.7829-13.598-2.8162-3.7161-0.01483-7.5322 0.97152-9.9985 3.0662-0.85821 0.78988-1.9164 1.5481-0.96152 1.2131 3.9827-1.1415 7.3322-1.8996 11.548-1.3497 4.6826 0.60824 9.3486 2.6662 14.081 4.166 4.7326 1.4981 9.5157 2.4332 14.415 1.55 3.7328-0.67323 7.2319-3.1164 8.715-6.1659 1.4598-2.9995 0.68138-8.6453-2.651-11.583-0.38462 0.35461-0.65137 0.60776-1.4419 1.2183zm1.6488-0.73366c2.8829 2.9495 3.6059 8.0409 2.2061 10.94-1.4298 2.9329-4.933 5.2994-8.5491 5.9659-4.7993 0.86653-9.5153-0.04756-14.231-1.534-4.716-1.4931-9.3986-3.4654-14.148-4.082-3.8161-0.49492-7.9313 0.23674-11.364 1.3066 3.45-3.105 7.4647-3.6735 10.731-3.6735 4.616 0.02333 9.0487 1.5817 13.481 2.8998 4.4493 1.3165 8.9153 2.483 13.615 1.8997h6e-3c2.6663-0.35828 5.085-1.3081 6.8014-3.0495 0.73228-0.81155 1.1531-2.0093 0.98645-3.3516-0.22858-1.502-1.088-2.8336-3.8067-4.6762l2.7648-1.5232z" color="#000000" fill="#2d1e1e" stroke-width="2.9662"/></g></svg>
