<?xml version="1.0" encoding="UTF-8" standalone="yes"?>
<svg version="1.2" baseProfile="tiny-ps" viewBox="0 0 64 64" xmlns="http://www.w3.org/2000/svg">
 <title>BLESSING TRANSPORT SERVICE</title>
 <g transform="matrix(.90114 0 0 .95413 .69216 7.0877)">
  <path d="m23.486 16.216c12.347-1.611 14.345-6.6277 23.508-5.91 9.2471 1.1243 8.6119 12.098-1.1322 13.194-10.998 1.1098-17.156-3.7222-25.779-4.6992-4.0494-0.48159-9.0864 0.48255-12.295 3.5539 3.7421-1.3698 6.5746-1.3078 10.624-0.92445 8.8479 1.2022 19.508 9.6763 30.968 6.0714 4.2571-1.7124 5.7351-4.4203 6.751-6.7781 2.3083-6.2729-1.6909-13.462-9.7182-14.218-7.5675-0.60325-14.579 6.2628-22.903 9.6463" color="#000000" fill="#d65600" stroke-width=".37828"/>
  <path d="m46.37 6.2306c-3.8453-0.26176-6.9417 0.99149-11.754 3.6861-3.7494 2.3496-9.0228 5.2638-10.989 5.947-0.52992 0.2533-1.8147 0.54735-1.2389 0.654 4.2739-0.41535 7.4522-1.1817 12.399-3.2211 3.1182-1.4352 7.0196-3.4009 12.125-2.8129 4.8826 0.59158 6.5901 3.6011 6.3401 6.484-0.2533 2.8829-2.4828 5.7658-7.3321 6.249-5.4659 0.55158-9.6152-0.33662-13.565-1.5081-3.9328-1.1715-7.6655-2.6329-12.248-3.1828-4.0494-0.48326-9.4052 0.51546-12.488 3.7433-0.27996 0.32328-0.2339 0.21948-0.61667 0.66756l0.61324-0.26996c1.871-0.74489 3.5511-1.2223 5.686-1.2849 2.981-0.08739 3.4973 0.0721 4.9617 0.21996 5.1193 0.53392 8.3122 2.9661 16.711 5.5827 5.3159 1.4931 9.8801 2.0732 14.443 0.56308 5.369-1.7773 8.1277-7.3038 7.5153-12.141-0.17864-0.99421-0.72398-2.929-2.0294-4.7208-2.0397-2.7817-5.1581-4.3799-8.5325-4.6552zm0.5966 0.44713c1.0206 0.19789 2.7911 0.14549 5.7668 2.5 1.6854 1.4228 3.2341 3.4798 3.85 6.4982 0.33896 1.8895-0.27948 5.2723-1.7057 7.2993s-3.011 3.5153-5.5371 4.4025c-4.7323 1.5553-9.0513 0.97571-15.428-0.83137-5.0826-1.5814-10.256-4.6231-15.473-5.2306-3.3995-0.32995-6.5477-0.51775-10.381 0.87539 1.9997-1.5981 3.2052-2.229 5.3715-2.8456 2.3497-0.67156 4.8326-0.65311 6.6324-0.43981 4.5327 0.54325 8.2321 1.983 12.182 3.1662 3.9661 1.1782 8.1655 2.083 13.698 1.5248 4.9659-0.49992 7.399-3.5157 7.6657-6.5986 0.27163-3.0829-1.6332-6.2835-6.6492-6.8834-4.1707-0.33795-7.5428 0.65424-11.292 2.4456-2.5516 1.1955-4.0799 1.7375-6.8372 2.514-1.0903 0.3336-3.4453 0.7437-5.0346 1.0144 2.7794-1.0644 8.1098-4.1449 10.001-5.2808 4.6838-2.8396 9.1289-4.8181 13.171-4.1302z" color="#000000" fill="#993f00" stroke-width="2.9662" style="mix-blend-mode:normal"/>
 </g>
 <g transform="matrix(.92097 0 0 .95413 .55326 23.594)">
  <path d="m53.502 9.6133s-1.52 1.2658-2.3604 1.7745c-0.91604 0.55448-2.8962 1.3762-2.8962 1.3762 8.76 5.1269 2.3909 10.168-2.8621 10.782-9.3153 1.1598-17.831-4.7489-27.163-4.7989-3.7161-0.01483-6.9811 0.51481-11.148 4.016 4.3902-1.5069 7.3922-1.4579 11.658-0.90795 9.4319 1.2248 18.396 7.7333 28.164 6.3531 1.5851-0.4148 3.3352-0.66536 6.2951-3.3051 4.6333-4.1321 4.496-10.914 0.34107-15.329" color="#000000" fill="#483737" stroke-width=".37828"/>
  <path d="m51.091 11.137c-1.3517 0.95587-3.6573 1.5649-3.6573 1.5649s2.101 0.97385 2.8185 1.574c1.5522 1.2981 1.8317 2.3289 2.0817 3.4787 0.07199 0.77141 0.01613 1.5772-0.72022 2.5258-1.5898 1.6231-3.5972 2.5938-6.2135 2.9437-4.616 0.57491-9.032-0.57491-13.465-1.883-4.4327-1.3148-8.8987-2.7829-13.598-2.8162-3.7161-0.01483-7.5322 0.97152-9.9985 3.0662-0.85821 0.78988-1.9164 1.5481-0.96152 1.2131 3.9827-1.1415 7.2432-1.187 11.459-0.63709 4.6826 0.60824 10.95 3.2619 15.682 4.7617 8.1057 2.3944 10.496 1.852 12.705 1.4092 2.0879-0.4185 3.9954-1.1442 6.3283-3.3889 1.1273-1.0847 2.1543-2.5968 2.857-4.2538 1.127-2.9995 0.65029-8.0832-3.0106-11.527-1.0509 1.0631-1.4832 1.3858-2.307 1.9683zm2.325-1.1885c3.1846 3.3915 3.7722 7.8751 2.483 10.898-0.67983 1.4603-1.6366 2.8552-2.5061 3.7329-2.0144 2.0334-4.2791 3.0102-6.4217 3.4051-4.7993 0.86653-9.1874-0.50294-13.903-1.9894-4.716-1.4931-9.3772-3.5741-14.127-4.1907-3.8161-0.49492-7.5782-0.65506-11.043 0.56242 3.3965-2.9361 7.1732-3.5374 10.439-3.5374 4.616 0.02333 9.0487 1.5817 13.481 2.8998 4.4493 1.3165 8.9153 2.483 13.615 1.8997h6e-3c2.6663-0.35828 4.6953-1.2984 6.4117-3.0398 0.73228-0.81155 0.94842-1.5753 0.88834-2.8875-0.22858-1.502-0.95628-3.2048-3.732-4.8648 0 0 1.5558-0.74644 2.2781-1.2177 0.7543-0.49214 2.13-1.6702 2.13-1.6702z" color="#000000" fill="#2d1e1e" stroke-width="2.9662"/>
 </g>
</svg>
