<?xml version="1.0" encoding="UTF-8" standalone="no"?>
<svg
   version="1.1"
   viewBox="0 0 200 200"
   id="svg24"
   xmlns="http://www.w3.org/2000/svg"
   xmlns:svg="http://www.w3.org/2000/svg"
   xmlns:rdf="http://www.w3.org/1999/02/22-rdf-syntax-ns#"
   xmlns:cc="http://creativecommons.org/ns#"
   xmlns:dc="http://purl.org/dc/elements/1.1/">
  <defs
     id="defs24" />
  <title
     id="title1">blessing transport service logo</title>
  <style
     id="style1">#g1 {fill:#2d1e1e;} #p1 {color:#000; fill:#fff;} #p2, #p3 {color:#000;} #p4 {color:#000;fill:#ff4000;} #p5 {color:#000;fill:#993f00;} #p6 {color:#000;fill:#4b3737;} #p7 {color:#000;fill:#2d1e1e;} @media (prefers-color-scheme: dark) {#g1 {fill:#2d1e1e;} #p1 {color:#cacaca; fill:#c5c5c5;} #p2, #p3 {color:#000;} #p4 {color:#000;fill:#ff4000;} #p5 {color:#000;fill:#993f00;} #p6 {color:#000;fill:#4b3737;} #p7 {color:#000;fill:#2d1e1e;}}</style>
  <path
     id="p1"
     d="m3.79 18.2 182-11.2 10.7 175-182 11.2z"
     stroke-linecap="round"
     stroke-width=".484" />
  <g
     id="g1"
     transform="matrix(2 0 0 2 .0307 -.045)">
    <path
       id="p2"
       d="m93.3 2.99-91.8 5.51 4.99 87.6h-.001l.08.805 92.2-5.4-5.39-87.5zm-.975 1.08 5.41 86.4-90.3 5.44-4.76-86.2z"
       stroke-width=".5" />
    <g
       id="g2"
       stroke-width=".545">
      <path
         d="m10.4 80.4-.785-12.2 6.98-.448q1.32-.0848 2.15.146.829.226 1.26.863.436.633.511 1.79.076 1.18-.249 1.84-.319.652-1.47 1.06 1.41.242 1.92.865.517.618.598 1.88.0741 1.15-.224 1.95-.292.797-1.09 1.26-.797.467-2.21.557zm6.98-6.14-5.73.368.287 4.47 4.46-.287q1.4-.09 2.06-.264.658-.174.935-.672.277-.497.209-1.55-.0701-1.09-.511-1.62-.441-.525-1.72-.443zm-.917-5.31-5.15.331.264 4.11 4.59-.294q1.11-.0711 1.7-.295.597-.224.816-.713.225-.489.168-1.37-.0716-1.12-.567-1.49-.489-.37-1.81-.285z"
         id="path1" />
      <path
         d="m23.2 67.2.703 11 7.36-.473.0819 1.28-9.12.585-.785-12.2z"
         id="path2" />
      <path
         d="m33 67.9.265 4.13 7.41-.476.0744 1.16-7.41.476.289 4.51 7.74-.497.0769 1.2-9.33.599-.785-12.2 9.33-.599.0794 1.24z"
         id="path3" />
      <path
         d="m52.2 68.8-1.59.102q-.124-.941-.387-1.4-.262-.458-.837-.612-.575-.159-1.7-.0866l-.835.0536q-2.24.144-2.94.571-.757.455-.674 1.75.0466.726.237 1.15.196.418.681.632.491.208 1.38.2.151 7e-5 2.14-.0691 1.99-.0692 2.92.101.931.17 1.53.841.607.666.696 2.04.0685 1.07-.0939 1.8-.163.73-.77 1.24-.608.504-1.85.681-1.18.174-2.78.276-1.32.0848-2.22.0443-.894-.0454-1.6-.328-.705-.283-1.13-.931-.42-.648-.49-1.74-.0066-.102-.0069-.288-.000292-.186-.0069-.288l1.57-.101q.0744 1.16.336 1.69.267.531.93.704.663.168 2.04.0797l1.36-.0871q1.32-.0845 1.97-.268.652-.189.916-.69.264-.506.197-1.55-.0547-.853-.256-1.27-.196-.418-.688-.567-.493-.149-1.47-.116-1.38.0394-2.7.0655-1.32.026-2.26-.182-.945-.208-1.54-.889-.597-.686-.682-2.02-.0898-1.4.456-2.15.545-.754 1.59-1.05 1.05-.302 2.73-.41l.377-.0242q1.35-.0867 2.24-.0556.892.0259 1.59.289.698.263 1.11.907.419.639.491 1.75z"
         id="path4" />
      <path
         d="m63.9 68-1.59.102q-.124-.941-.387-1.4-.262-.458-.837-.612-.575-.159-1.7-.0866l-.835.0536q-2.24.144-2.94.571-.757.455-.674 1.75.0466.726.237 1.15.196.418.681.632.491.208 1.38.2.151 7e-5 2.14-.0691 1.99-.0692 2.92.101.931.17 1.53.841.607.666.696 2.04.0685 1.07-.0939 1.8-.163.73-.77 1.24-.608.504-1.85.681-1.18.174-2.78.276-1.32.0848-2.22.0443-.894-.0454-1.6-.328-.705-.283-1.13-.931-.42-.648-.49-1.74-.0066-.102-.0069-.288-.00029-.186-.0069-.288l1.57-.101q.0744 1.16.336 1.69.267.531.93.704.663.168 2.04.0797l1.36-.0871q1.32-.0845 1.97-.268.652-.189.916-.69.264-.506.197-1.55-.0547-.853-.256-1.27-.196-.418-.688-.567-.493-.149-1.47-.116-1.38.0394-2.7.0655-1.32.026-2.26-.182-.945-.208-1.54-.889-.597-.686-.682-2.02-.0898-1.4.456-2.15.545-.754 1.59-1.05 1.05-.302 2.73-.41l.377-.0242q1.35-.0867 2.24-.0556.892.0259 1.59.289.698.263 1.11.907.419.639.491 1.75z"
         id="path5" />
      <path
         d="m66.5 64.5.785 12.2-1.63.105-.785-12.2z"
         id="path6" />
      <path
         d="m79.7 63.6.785 12.2-2.66.171-8.88-10.5.71 11.1-1.59.102-.785-12.2 2.64-.169 8.91 10.7-.717-11.2z"
         id="path7" />
      <path
         d="m86.6 69.3 6.22-.399q.0758.455.132 1.33l.0563.877q.109 1.71-.406 2.75-.51 1.04-2.34 1.32-1.62.202-2.99.289-2.43.156-3.72-.128t-1.89-1.22q-.596-.94-.718-2.84-.0366-.57-.0963-1.68t-.0957-1.67q-.104-1.63.297-2.63t1.47-1.52q1.07-.519 2.98-.641 2.33-.15 3.52-.187 1.79-.0711 2.64.667.85.733.949 2.27l.0282.439-1.59.102q-.0801-1.25-.521-1.77-.436-.53-1.79-.482-1.02.0265-3.04.156-1.58.102-2.27.39-.68.283-.87.961-.184.672-.115 2.2l.0572 1.62.157 1.72q.0604.94.21 1.54.155.597.642 1.02.493.423 1.46.493.789.0521 2.36-.0488l.852-.0547q1.45-.093 2.13-.332.683-.24.903-.811.225-.572.15-1.75l-.0679-1.06-4.63.297z"
         id="path8" />
    </g>
    <g
       id="g3"
       stroke-width=".537">
      <path
         d="m15.2 84.5.385 6.01-.888.057-.385-6.01-2.51.161-.0464-.724 5.88-.377.0464.724z"
         id="path9" />
      <path
         d="m18.1 85.6.786-.0504.0222.539q.422-.678 1.44-.744 1.57-.101 1.68 1.57l-.786.0504q-.0349-.544-.241-.803t-.791-.221q-1.27.0814-1.2 1.18l.201 3.14-.81.052z"
         id="path10" />
      <path
         d="m23.4 86.6-.838.0538q-.0566-.882.444-1.16.501-.28 1.61-.351.835-.0536 1.34.0299.505.0833.791.426.286.34.331 1.05l.197 3.06-.77.0494.0178-.496q-.287.368-.719.509-.429.138-1.08.18-.73.0468-1.19-.0366-.462-.0834-.727-.392-.265-.309-.305-.928-.0378-.59.202-.917.24-.33.682-.461.445-.131 1.14-.175.64-.0411 1.06.0125.426.0534.702.348l-.0351-.547q-.038-.592-.173-.853-.135-.263-.456-.331-.321-.0682-1.03-.023-.767.0492-1.03.254-.232.16-.208.53.0019.0295.0175.0796.0186.0472.021.0848zm-.0604 1.87q.038.592.323.779.288.186.984.141.535-.0344.897-.103.365-.0692.622-.279.26-.21.233-.623-.037-.576-.422-.713-.385-.139-1.14-.0908l-.204.0131q-.885.0568-1.14.283-.183.144-.154.594z"
         id="path11" />
      <path
         d="m27.5 85 .733-.047.0394.614q.283-.433.734-.618t1.08-.226q.742-.0476 1.18.0833.437.131.653.491t.257 1l.2 3.12-.823.0528-.197-3.06q-.0306-.477-.149-.717-.118-.24-.406-.324-.285-.084-.851-.0476-1.61.103-1.52 1.45l.185 2.89-.81.052z"
         id="path12" />
      <path
         d="m37.1 85.6-.81.052q-.0291-.453-.369-.576-.34-.126-.922-.0888l-.405.026q-.575.0369-.863.203-.285.164-.257.595.0188.292.0935.441.0746.146.249.207.175.0588.519.0582.557-.025 1.1-.0488.539-.0238.954.0518t.69.349q.275.273.31.82.0416.649-.214.98-.252.328-.723.447-.468.116-1.26.167-.724.0464-1.21.0025-.487-.0441-.833-.302-.343-.261-.38-.834-.0119-.185-.0045-.263l.81-.052q.027.421.161.627.137.204.411.264.274.0578.784.025l.189-.0121q.965-.0619 1.26-.269.232-.163.198-.696-.0298-.464-.288-.571-.259-.11-.784-.0761l-.331.0212q-.0186.001-.0749-.0059-.0564-.0071-.078-.0057-.804.0085-1.06.0035-.258-.0077-.569-.103-.311-.0985-.5-.345-.19-.249-.219-.696-.0538-.839.324-1.1.526-.376 1.74-.453.671-.0431 1.17.0167.494.0571.835.326.343.266.378.815z"
         id="path13" />
      <path
         d="m37.7 84.3.786-.0504.0146.615q.269-.405.674-.573.405-.169 1.01-.207.937-.0602 1.43.183.494.24.671.732.177.489.231 1.33.0406.632.0021 1.05-.0385.417-.225.746-.187.33-.599.531-.413.199-1.11.244-.612.0393-1.07-.0581-.454-.1-.759-.452l.166 2.59-.786.0504zm.939 2.14.0232.362q.0361.563.16.894.124.331.464.503.343.172.987.13.702-.045 1.01-.251.31-.206.369-.54.0622-.338.0214-.973l-.0177-.276q-.0432-.673-.139-1.01-.0959-.333-.427-.5-.331-.167-1.03-.122-.69.0442-1.01.237-.317.19-.391.536-.0709.346-.0286 1.01z"
         id="path14" />
      <path
         d="m42.9 86.2q-.0549-.855.0839-1.35.142-.499.622-.766.48-.27 1.45-.333 1.05-.0671 1.59.0973.545.161.77.626t.284 1.38q.0616.959-.0198 1.48-.0783.522-.547.867-.466.342-1.52.41-1.01.0649-1.56-.0667-.546-.134-.807-.573-.258-.438-.314-1.32zm.823-.0528.0255.397q.0697 1.09.417 1.37.245.183.888.142l.393-.0252q.52-.0334.821-.125.302-.092.458-.32.159-.228.162-.662-.0086-.376-.0537-1.08-.0439-.683-.132-.995-.0852-.312-.38-.447-.291-.137-.938-.0959l-.176.0113q-.73.0468-1.05.186-.317.139-.405.462-.0849.323-.0398 1.03z"
         id="path15" />
      <path
         d="m48 83.7.786-.0504.0222.539q.422-.678 1.44-.744 1.57-.101 1.68 1.57l-.786.0504q-.0349-.544-.241-.803-.206-.259-.791-.221-1.27.0814-1.2 1.18l.201 3.14-.81.052z"
         id="path16" />
      <path
         d="m55.8 83.2.0366.571-2.09.134.185 2.88q.0274.426.186.572.158.143.622.113.507-.0326.634-.237.127-.205.0982-.647l-.0189-.295.758-.0486q.055.858-.218 1.3-.27.445-1.22.506-.603.0387-.954-.0599-.348-.0988-.515-.373t-.199-.781l-.185-2.88-.711.0456-.0366-.571.711-.0456-.0726-1.13.823-.0528.0726 1.13z"
         id="path17" />
      <path
         d="m65.5 82.4-.847.0544q-.0674-.518-.208-.77-.14-.252-.447-.337-.307-.088-.907-.0494l-.445.0286q-1.2.0768-1.57.311-.403.249-.358.959.0256.399.128.632.105.23.364.348.262.115.737.111.0808.00018 1.14-.0357 1.06-.036 1.56.0589.497.0946.819.464.325.367.373 1.13.0376.587-.0482.991-.0861.401-.41.68-.324.276-.985.373-.631.0943-1.48.149-.705.0452-1.18.022-.477-.0259-.856-.182-.376-.156-.601-.513t-.263-.96q-.0035-.0563-.004-.159-.00037-.102-.004-.159l.838-.0538q.041.638.181.93.143.292.497.388.354.093 1.09.046l.724-.0464q.702-.045 1.05-.145.347-.103.488-.378.141-.278.104-.852-.0301-.469-.138-.696-.105-.23-.368-.313t-.784-.0654q-.735.0202-1.44.0332-.704.0129-1.21-.103-.504-.116-.823-.491-.319-.378-.366-1.11-.0494-.769.241-1.18.29-.414.848-.577.558-.165 1.46-.223l.201-.0129q.721-.0462 1.19-.0282.476.0152.849.161.373.146.594.5.224.352.264.965z"
         id="path18" />
      <path
         d="m70.2 85.5.851-.0546q.0425.662-.215 1-.255.339-.725.464-.47.122-1.28.174-.764.049-1.25-.0383-.481-.0876-.757-.334-.274-.249-.403-.671-.127-.425-.17-1.11-.0599-.933.0494-1.46.109-.526.586-.837.48-.313 1.51-.379 1.02-.0657 1.55.0863.525.149.743.59.221.438.295 1.35l.0234.364-3.9.251q.0418.651.131.982.0926.33.418.511.328.181 1.02.136l.216-.0139q.68-.0436 1.02-.205.34-.164.308-.663zm-.0703-1.34q-.0408-.635-.156-.924-.112-.289-.444-.386-.329-.0973-1.04-.0516-.625.0401-.941.192-.316.149-.42.466-.104.316-.0664.9z"
         id="path19" />
      <path
         d="m71.2 82.2.786-.0504.0222.539q.422-.678 1.44-.744 1.57-.101 1.68 1.57l-.786.0504q-.0349-.544-.241-.803-.206-.259-.791-.221-1.27.0814-1.2 1.18l.201 3.14-.81.052z"
         id="path20" />
      <path
         d="m80.2 81.6-1.52 4.83-1.14.0732-2.09-4.59.81-.052 1.83 4.06 1.23-4.26z"
         id="path21" />
      <path
         d="m81.2 79.5.0501.78-.823.0528-.0501-.78zm.432 6.73-.823.0528-.302-4.71.823-.0528z"
         id="path22" />
      <path
         d="m85.9 84.2.81-.052q.0464.724-.158 1.12-.202.39-.678.56-.477.171-1.34.226-.847.0544-1.34-.0592-.495-.116-.743-.404-.245-.291-.335-.719-.0865-.428-.137-1.21-.0533-.831.117-1.32.17-.495.675-.756.508-.264 1.46-.325 1.05-.0671 1.63.189.588.253.643 1.11l.0098.153-.786.0504q-.0274-.426-.171-.635-.141-.209-.424-.271-.28-.0627-.775-.031-.739.0474-1.07.192-.329.145-.42.479-.0905.331-.0453 1.04l.0302.472q.0401.624.141.936.104.311.433.459.329.146 1.01.102.653-.0419.957-.134.304-.0949.424-.356.12-.263.085-.805z"
         id="path23" />
      <path
         d="m91.1 84.2.851-.0546q.0425.662-.215 1-.255.339-.725.464-.47.122-1.28.174-.764.049-1.25-.0383-.481-.0876-.757-.334-.274-.249-.403-.671-.127-.425-.17-1.11-.0599-.933.0494-1.46.109-.526.586-.837.48-.313 1.51-.379 1.02-.0657 1.55.0863.525.149.743.59.221.438.295 1.35l.0234.364-3.9.251q.0418.651.131.982.0926.33.418.511.328.181 1.02.136l.216-.0139q.68-.0436 1.02-.205.34-.164.308-.663zm-.0703-1.34q-.0408-.635-.156-.924-.112-.289-.444-.386-.329-.0973-1.04-.0516-.625.0401-.941.192-.316.149-.42.466t-.0664.9z"
         id="path24" />
    </g>
    <path
       id="p3"
       d="m10.3 81.8.0703 1.08c82.4-5.29 82.5-5.29 82.5-5.29l.542-.0352-.0625-1.05c-73.4 4.67-.0116-.0353-83 5.29z"
       stroke-width=".5" />
  </g>
  <path
     d="M 64.114022,51.534629 C 97.551828,45.958477 117.00453,25.067656 141.09081,25.583738 175.4152,24.923268 176.88507,57.328311 150.1883,63.971204 123.18136,71.167722 81.638528,58.815025 51.160437,58.135701 40.487939,58.62391 25.590459,61.495135 11.818298,74.039514 33.798244,65.70765 54.559984,68.073161 61.106428,69.169088 119.71678,80.438343 136.67232,84.806314 162.01303,73.60088 195.32901,59.520884 183.01112,16.590219 147.15066,13.769765 109.4669,14.081429 104.43237,35.538248 64.016708,51.549224"
     color="#000000"
     fill="#ff3000"
     stroke-width="1.24859"
     id="path1-6" />
  <path
     d="m 137.42368,13.657979 c -14.26183,2.0179 -23.27291,7.246795 -31.44265,12.587349 -8.047691,5.735117 -16.067977,11.111596 -20.137822,13.624794 -6.533724,3.98223 -14.721018,8.221445 -23.607452,12.264845 14.972806,-1.626404 31.405254,-9.14866 44.388434,-15.260525 12.90735,-6.553749 24.69177,-12.194115 39.51829,-10.558469 11.90875,0.471166 22.47792,8.821695 22.12161,18.348646 -0.33842,8.767199 -7.72765,15.892122 -21.38303,19.008299 -19.11522,3.751084 -37.98209,0.248709 -56.120727,-2.57754 C 76.697116,59.093932 68.051114,57.374981 53.661193,57.275953 37.356146,57.167979 28.395016,61.59955 19.170836,67.363028 15.458065,69.93576 11.753714,72.972155 10.44,74.78925 l 9.841797,-2.858335 c 15.177788,-3.106674 22.516251,-3.525207 29.806389,-3.119735 14.134077,0.73875 29.263465,4.9453 56.075574,9.94413 38.01103,5.908542 51.91927,-1.953147 56.23075,-3.717684 15.57369,-7.110728 21.29371,-19.672555 19.64893,-32.251677 -2.01715,-15.324491 -16.33747,-29.039734 -36.83109,-29.408045 -2.98198,-0.115952 -7.78867,0.280075 -7.78867,0.280075 z m 4.34948,0.648172 c 20.24707,-0.460836 34.74938,11.23099 38.30108,25.305717 3.15153,12.491353 -1.28483,27.120647 -20.28631,34.698806 -22.03425,8.24577 -38.88897,4.733296 -57.80467,2.046044 C 83.825773,73.219155 61.679853,68.260938 50.901901,67.817625 39.040989,67.32582 21.020728,69.70144 12.604625,73.404594 c 6.090699,-4.813319 11.628811,-9.023186 22.275865,-12.3658 7.087833,-2.126656 11.578738,-2.548916 22.734322,-2.355213 6.732643,0.116608 27.979062,3.190282 40.767156,5.212446 10.558412,1.683424 27.799052,4.271889 46.300192,1.730345 16.69863,-2.311587 24.73211,-11.527015 24.86578,-21.487301 0.12662,-9.915243 -10.14265,-17.52899 -22.58338,-18.678788 -16.68576,-1.53181 -26.40105,3.416769 -39.41997,9.749403 -13.257876,6.440279 -16.242447,7.417466 -23.619973,10.435741 -7.520509,3.089091 -15.518212,4.782279 -18.372711,5.475184 18.941063,-7.44077 28.164269,-15.654378 38.848704,-22.435683 11.19344,-8.105226 20.53897,-11.862959 29.27453,-13.532182 2.72747,-0.520377 5.21467,-0.630888 5.99472,-0.720065 z"
     color="#000000"
     fill="#793200"
     stroke-width="1.24859"
     id="path2-2" />
  <path
     d="m 175.11991,68.722521 c -6.11242,5.265364 -10.19254,6.797279 -15.53429,9.384568 11.62728,7.177614 12.92196,9.913893 13.37597,14.171925 0.62735,5.854641 -12.11552,13.960836 -23.38681,15.911666 C 118.076,113.35931 85.421846,94.566454 52.637716,96.342225 39.475465,97.060668 22.138188,104.23312 13.628497,114.50275 c 13.799856,-4.7848 26.124166,-7.99304 41.301703,-7.04729 40.505146,2.50526 62.12947,20.74898 101.96628,13.83165 25.76494,-5.81654 42.32018,-33.215245 18.23419,-52.38668"
     color="#000000"
     fill="#483737"
     stroke-width="1.24859"
     id="path3-9" />
  <path
     d="m 170.89593,88.159486 c 1.68081,2.383528 2.38246,6.109427 -2.23526,10.439739 -3.76743,3.535475 -11.76924,7.513925 -20.31985,8.993875 -16.36727,2.10928 -28.90514,-0.64598 -44.91501,-3.98898 -15.961241,-3.35028 -32.918793,-9.373909 -50.549128,-7.856 -13.162253,0.718442 -25.028137,6.63495 -31.343847,10.97491 -3.317455,2.29083 -11.376618,9.94574 -8.068451,8.63727 9.965948,-3.24046 11.984181,-4.77279 28.952461,-6.68501 4.027371,-0.45647 7.88102,-0.37646 12.150061,-0.40874 16.647223,0.0836 34.358211,6.38911 51.226664,10.94065 17.02381,3.87305 34.24108,6.88688 51.2396,3.04041 13.07583,-2.95747 23.94668,-11.52591 28.581,-21.74835 4.59614,-10.041711 0.87295,-24.59737 -10.98401,-33.055856 -4.03578,4.617738 -11.34019,8.113779 -17.03515,10.543106 0,0 5.07762,3.270173 7.51949,5.006871 4.29072,3.003588 4.62084,3.59133 5.76376,5.198369 z m 4.26704,-18.72538 c 10.55865,8.177067 13.63286,20.851462 9.21091,30.525973 -4.46284,9.810781 -15.00416,18.145791 -27.6919,21.027101 -16.85365,3.80678 -33.58979,0.63107 -50.76115,-3.24678 -17.039452,-4.94325 -31.94307,-9.47535 -52.191609,-10.66128 -13.598925,-0.81901 -27.471169,2.76947 -39.393839,6.93618 10.11817,-9.64928 25.553184,-16.618054 37.100875,-17.246045 16.440929,-1.703001 35.606857,4.308015 52.027453,7.948415 16.02386,3.57423 27.92602,5.55877 41.21329,4.47237 0,0 3.82299,-0.42673 8.31059,-1.39006 4.4926,-0.96239 10.24608,-2.66766 16.95519,-8.619386 3.76307,-4.012742 3.8746,-5.982961 3.09921,-9.061882 -1.35563,-5.36591 -8.99275,-9.071652 -12.45872,-11.993847 7.95004,-3.292645 9.62286,-4.853951 12.34233,-6.967156 0,0 1.12476,-0.801898 2.24718,-1.724174 z"
     color="#000000"
     fill="#282828"
     stroke-width="1.24859"
     id="path4-1" />
  <metadata
     id="metadata24">
    <rdf:RDF>
      <cc:Work
         rdf:about="">
        <dc:title>blessing transport service logo</dc:title>
      </cc:Work>
    </rdf:RDF>
  </metadata>
</svg>
