<?xml version="1.0" encoding="utf-8" standalone="yes"?><svg version="1.2" viewBox="0 0 64 64" baseProfile="tiny-ps" xmlns="http://www.w3.org/2000/svg"><title>BLESSING TRANSPORT SERVICE</title><rect width="64" height="64" fill="#fff" fill-rule="evenodd"/><g transform="matrix(1.61 0 0 1.61 -.225 -.241)"><path d="m13.3 15.1c6.88-.813 11.1-5.24 16-4.81 7.14.452 6.98 7.55 1.38 8.72-5.59 1.26-13.5-1.93-20.1-2.73-2.31.0917-5.07.302-8.23 3.18 5.94-1.67 7.92-.68 10.1-.504 11.7 3.29 15.5 4.43 20.8 2.26 6.67-2.67 4.68-12.4-2.59-13.4-6.62-.961-10.7 4.77-15.8 6.58" fill="#ff3000" stroke-width="2.27"/><path d="m28.7 7.56c-2.93.266-4.8 1.33-6.53 2.42-1.71 1.18-3.41 2.28-4.27 2.79-1.38.807-3.1 1.65-4.96 2.44 3.07-.169 6.51-1.64 9.23-2.84 2.71-1.3 5.18-2.35 8.18-1.79 2.42.261 4.47 2.21 4.28 4.34-.177 1.96-1.77 3.46-4.59 3.98-3.94.591-7.74-.44-11.4-1.31-2.84-.632-4.59-1.01-7.51-1.34-3.33-.116-5.2.639-7.15 1.81-.788.528-1.58 1.16-1.87 1.55l2.04-.512c3.13-.498 4.63-.496 6.11-.31 2.87.35 5.9 1.49 11.3 2.96 7.67 1.82 10.6.24 11.5-.0991 3.26-1.39 4.58-4.13 4.4-6.97-.222-3.46-2.97-6.72-7.14-7.07-.606-.0649-1.62-.046-1.62-.046zm.908.209c4.13.161 6.94 2.97 7.49 6.17.488 2.84-.596 6.06-4.56 7.51-4.59 1.56-7.98.553-11.8-.296-3.66-.94-8.11-2.34-10.3-2.58-2.41-.265-6.11.0321-7.87.752 1.3-.999 2.48-1.87 4.69-2.48 1.47-.384 3.77-.363 4.66-.231 1.36.203 5.66 1.08 8.24 1.7 2.13.515 5.61 1.32 9.41.992 3.43-.3 5.18-2.26 5.33-4.49.148-2.22-1.85-4.06-4.37-4.48-3.38-.561-5.42.421-8.15 1.67-2.78 1.27-3.4 1.45-4.94 2.03-1.57.594-3.22.869-3.81.987 3.95-1.42 5.93-3.14 8.19-4.52 2.38-1.67 4.33-2.39 6.13-2.65.562-.081 1.07-.0733 1.23-.0831z" fill="#793200" stroke-width="17.7"/><path d="m35.8 20.2c-.927.965-1.89 1.59-3.39 2.01 1.7 1.46 2.7 2.4 2.53 3.71-.139 1.06-2.39 2.5-4.96 2.9-6.73.986-12.8-3.79-19.6-3.83-2.69-.0108-6.31 1.43-8.17 3.62 2.88-.829 5.45-1.44 8.53-1.03 6.83.894 13.6 5.71 20.6 4.43 5.82-1.35 8.7-7.19 4.49-11.8" fill="#483737" stroke-width="2.27"/><path d="m32.5 22.6c.933.852 1.3 1.16 1.83 1.97.591.777.469 1.75-.353 2.47-.874.668-2.49 1.53-4.25 1.75-3.36.259-5.88-.522-9.1-1.48-3.21-.959-6.59-2.53-10.2-2.42-2.69-.0108-5.18 1.16-6.52 2.05-.704.47-2.44 2.08-1.75 1.83 2.89-.832 5.42-1.47 8.46-1.07 3.38.416 6.92 1.89 10.3 3.13 3.42 1.09 6.89 1.99 10.4 1.35 2.7-.492 5.02-2.27 6.09-4.5 1.06-2.19.524-5.5-1.61-7.73-1.29 1.4-2.12 1.59-3.81 2.27zm3.26-2.21c2.08 2.16 2.43 5.06 1.41 7.17-1.04 2.14-3.28 3.87-5.9 4.35-3.48.633-6.85-.297-10.3-1.39-3.41-1.33-6.39-2.54-10.5-3.07-2.76-.361-5.63.262-8.11 1.04 2.18-2.03 5.41-3.39 7.77-3.38 3.37-.167 7.2 1.43 10.5 2.46 3.22 1.01 5.62 1.61 8.34 1.54 0 0 .784-.0457 1.71-.203.927-.157 2.9-1.13 3.54-1.71.677-.678.857-.992.794-1.84-.347-1.43-1.73-2.36-2.41-3.05 1.66-.634 2.38-1.09 3.12-1.9z" fill="#282828" stroke-width="17.7"/></g></svg>