<?xml version="1.0" encoding="UTF-8" standalone="yes"?><svg version="1.2" viewBox="0 0 40 40" baseProfile="tiny-ps" xmlns="http://www.w3.org/2000/svg"><title>BLESSING TRANSPORT SERVICE</title><g fill="#281e1e"><g stroke-width=".196"><path d="m5.3 31.3-0.281-4.38 2.5-0.16q0.475-0.0305 0.773 0.0523 0.298 0.081 0.452 0.311 0.157 0.227 0.183 0.641 0.0273 0.425-0.0895 0.659-0.115 0.233-0.53 0.38 0.506 0.0869 0.69 0.31 0.186 0.222 0.215 0.675 0.0266 0.414-0.0805 0.701-0.105 0.285-0.393 0.454-0.286 0.168-0.793 0.2zm2.51-2.21-2.05 0.132 0.103 1.6 1.6-0.103q0.505-0.0323 0.74-0.0949t0.336-0.241q0.0996-0.178 0.0751-0.559-0.0252-0.392-0.184-0.58t-0.617-0.158zm-0.329-1.91-1.85 0.119 0.0947 1.48 1.65-0.106q0.397-0.0254 0.61-0.106 0.215-0.0805 0.294-0.256 0.0809-0.175 0.0606-0.492-0.0257-0.401-0.204-0.533-0.176-0.133-0.651-0.102z"/><path d="m9.92 26.6 0.253 3.94 2.64-0.169 0.0294 0.458-3.29 0.211-0.281-4.38z"/><path d="m13.4 26.9 0.0952 1.48 2.66-0.17 0.0268 0.417-2.66 0.17 0.104 1.62 2.78-0.178 0.0276 0.43-3.35 0.214-0.281-4.38 3.35-0.214 0.0286 0.445z"/><path d="m20.2 27.3-0.571 0.0366q-0.0447-0.338-0.139-0.502-0.0942-0.164-0.301-0.22-0.206-0.057-0.611-0.0311l-0.299 0.0192q-0.806 0.0516-1.06 0.205-0.272 0.163-0.243 0.627 0.0168 0.261 0.0851 0.413 0.0703 0.15 0.244 0.227 0.176 0.0748 0.496 0.0718 0.0544 2.5e-5 0.77-0.0248 0.715-0.0247 1.05 0.0363 0.334 0.0612 0.552 0.303 0.218 0.238 0.249 0.734 0.0246 0.383-0.0337 0.647-0.0584 0.263-0.278 0.445-0.218 0.181-0.664 0.244-0.424 0.0623-0.997 0.099-0.475 0.0305-0.796 0.0159-0.321-0.0164-0.577-0.117-0.254-0.101-0.404-0.333-0.151-0.233-0.176-0.627-0.0024-0.0368-0.0025-0.103-9.1e-5 -0.0666-0.0025-0.103l0.565-0.0362q0.0268 0.417 0.12 0.607 0.0959 0.19 0.334 0.252 0.238 0.0603 0.733 0.0286l0.487-0.0312q0.473-0.0303 0.707-0.0962 0.233-0.0677 0.33-0.247 0.095-0.182 0.071-0.555-0.0196-0.305-0.092-0.454-0.0703-0.15-0.247-0.203-0.176-0.0535-0.527-0.0417-0.494 0.014-0.969 0.0235-0.475 0.0093-0.814-0.0656t-0.555-0.319q-0.214-0.247-0.245-0.723-0.0322-0.502 0.165-0.772 0.197-0.271 0.573-0.378 0.376-0.108 0.983-0.147l0.135-0.0087q0.485-0.0311 0.804-0.0199 0.321 0.0093 0.572 0.104 0.252 0.0945 0.4 0.326 0.151 0.229 0.176 0.63z"/><path d="m24.4 27-0.571 0.0366q-0.0447-0.338-0.139-0.502-0.0942-0.164-0.301-0.22-0.206-0.057-0.611-0.0311l-0.299 0.0192q-0.806 0.0516-1.06 0.205-0.272 0.163-0.243 0.627 0.0168 0.261 0.0851 0.413 0.0703 0.15 0.244 0.227 0.176 0.0748 0.496 0.0718 0.0544 2.5e-5 0.77-0.0248 0.715-0.0247 1.05 0.0363 0.334 0.0612 0.552 0.303 0.218 0.238 0.249 0.734 0.0246 0.383-0.0337 0.647-0.0584 0.263-0.278 0.445-0.218 0.181-0.664 0.244-0.424 0.0623-0.997 0.099-0.475 0.0305-0.796 0.0159-0.321-0.0164-0.577-0.117-0.254-0.101-0.404-0.333-0.151-0.233-0.176-0.627-0.0024-0.0368-0.0025-0.103-9.1e-5 -0.0666-0.0025-0.103l0.565-0.0362q0.0268 0.417 0.12 0.607 0.0959 0.19 0.334 0.252 0.238 0.0603 0.733 0.0286l0.487-0.0312q0.473-0.0303 0.707-0.0962 0.233-0.0677 0.33-0.247 0.095-0.182 0.071-0.555-0.0196-0.305-0.092-0.454-0.0703-0.15-0.247-0.203-0.177-0.0536-0.527-0.0417-0.494 0.014-0.969 0.0235-0.475 0.0093-0.814-0.0656t-0.555-0.319q-0.214-0.247-0.245-0.723-0.0322-0.502 0.165-0.772 0.197-0.271 0.573-0.378 0.376-0.108 0.983-0.147l0.135-0.0087q0.485-0.0311 0.804-0.0199 0.321 0.0093 0.572 0.104 0.252 0.0945 0.4 0.326 0.151 0.229 0.176 0.63z"/><path d="m25.3 25.6 0.281 4.38-0.587 0.0376-0.281-4.38z"/><path d="m30.2 25.3 0.281 4.38-0.957 0.0613-3.19-3.79 0.255 3.97-0.571 0.0366-0.281-4.38 0.949-0.0608 3.21 3.82-0.257-4.01z"/><path d="m32.7 27.4 2.23-0.143q0.0272 0.163 0.0474 0.478l0.0202 0.315q0.0393 0.612-0.147 0.985-0.182 0.371-0.84 0.474-0.581 0.0723-1.07 0.104-0.872 0.0559-1.34-0.0461-0.462-0.102-0.678-0.438-0.214-0.337-0.258-1.02-0.0132-0.205-0.0345-0.603-0.0214-0.399-0.0343-0.6-0.0375-0.585 0.107-0.945 0.144-0.36 0.529-0.545 0.383-0.186 1.07-0.23 0.837-0.0537 1.27-0.0671 0.645-0.0255 0.95 0.239 0.306 0.262 0.341 0.814l0.0101 0.157-0.571 0.0366q-0.0288-0.448-0.187-0.636-0.157-0.189-0.646-0.173-0.367 0.0095-1.09 0.056-0.569 0.0365-0.816 0.14-0.245 0.102-0.312 0.345-0.066 0.242-0.0414 0.791l0.0205 0.581 0.0563 0.616q0.0217 0.338 0.0752 0.554 0.0556 0.214 0.23 0.366 0.177 0.152 0.526 0.177 0.284 0.0187 0.847-0.0174l0.307-0.0197q0.52-0.0334 0.764-0.119 0.246-0.086 0.325-0.291 0.081-0.205 0.0539-0.627l-0.0244-0.379-1.66 0.107z"/></g><g stroke-width=".192"><path d="m6.82 32.5 0.138 2.15-0.32 0.0205-0.138-2.15-0.902 0.0578-0.0167-0.26 2.12-0.136 0.0167 0.26z"/><path d="m7.68 32.9 0.283-0.0182 0.00799 0.194q0.152-0.244 0.517-0.268 0.565-0.0362 0.603 0.563l-0.283 0.0182q-0.0125-0.195-0.0866-0.288-0.0741-0.0929-0.284-0.0794-0.457 0.0293-0.431 0.425l0.0725 1.13-0.291 0.0186z"/><path d="m9.53 33.3-0.301 0.0193q-0.0204-0.317 0.16-0.416 0.18-0.1 0.578-0.126 0.301-0.0193 0.48 0.0107 0.182 0.0299 0.285 0.153 0.103 0.122 0.119 0.378l0.0708 1.1-0.277 0.0178 0.0064-0.178q-0.103 0.132-0.259 0.183-0.154 0.0496-0.389 0.0646-0.262 0.0168-0.428-0.0131t-0.261-0.141q-0.0953-0.111-0.11-0.333-0.0136-0.212 0.0726-0.33 0.0862-0.119 0.245-0.165 0.16-0.0469 0.41-0.063 0.229-0.0147 0.381 0.0045 0.153 0.0192 0.252 0.125l-0.0126-0.197q-0.0137-0.213-0.062-0.306-0.0484-0.0945-0.164-0.119-0.116-0.0244-0.368-0.0082-0.276 0.0177-0.369 0.0913-0.0834 0.0576-0.0748 0.191 6.81e-4 0.0106 0.00631 0.0286 0.00666 0.017 0.00753 0.0305zm-0.0218 0.67q0.0137 0.213 0.116 0.279 0.104 0.0669 0.353 0.0509 0.192-0.0123 0.323-0.0371t0.224-0.1q0.0934-0.0755 0.0839-0.223-0.0133-0.207-0.152-0.257-0.138-0.0501-0.41-0.0326l-0.0734 0.0047q-0.318 0.0204-0.409 0.102-0.0659 0.0516-0.0556 0.213z"/><path d="m11 32.7 0.264-0.0169 0.0142 0.22q0.102-0.155 0.264-0.221 0.162-0.0665 0.389-0.0811 0.266-0.017 0.424 0.0298 0.157 0.0469 0.234 0.176 0.0768 0.129 0.0924 0.359l0.072 1.12-0.295 0.0189-0.0708-1.1q-0.011-0.172-0.0533-0.258-0.0423-0.0862-0.146-0.116-0.102-0.0301-0.307-0.017-0.578 0.037-0.547 0.522l0.0666 1.04-0.291 0.0186z"/><path d="m14.4 32.8-0.291 0.0186q-0.0105-0.163-0.133-0.208-0.122-0.0452-0.331-0.0319l-0.146 0.0093q-0.206 0.0132-0.311 0.073-0.102 0.0588-0.0923 0.214 0.0067 0.105 0.0336 0.158 0.0268 0.0524 0.0897 0.0745 0.0627 0.0211 0.187 0.0209 0.201-9e-3 0.394-0.0175t0.344 0.0185q0.149 0.0271 0.248 0.125 0.099 0.098 0.112 0.294 0.015 0.233-0.0768 0.352-0.0907 0.118-0.261 0.161-0.168 0.0418-0.455 0.0601-0.26 0.0167-0.437 8.95e-4 -0.175-0.0159-0.299-0.108-0.123-0.0936-0.136-0.299-0.0043-0.0664-0.0016-0.0945l0.291-0.0186q0.0097 0.151 0.058 0.226 0.0494 0.0732 0.148 0.0948 0.0985 0.0208 0.281 0.0091l0.0678-0.0043q0.347-0.0222 0.452-0.0966 0.0833-0.0584 0.0709-0.251-0.0107-0.166-0.103-0.204-0.0929-0.0394-0.282-0.0273l-0.119 0.0076q-0.0067 4.27e-4 -0.0268-0.0021-0.0202-0.0026-0.028-0.0021-0.288 3e-3 -0.381 0.0013-0.0928-0.0027-0.204-0.0372-0.112-0.0354-0.18-0.124-0.0682-0.0894-0.0785-0.25-0.0194-0.302 0.116-0.394 0.189-0.135 0.624-0.163 0.241-0.0154 0.418 6e-3 0.178 0.0204 0.3 0.117 0.123 0.0954 0.136 0.293z"/><path d="m14.5 32.4 0.283-0.0182 0.0053 0.221q0.0967-0.145 0.242-0.206 0.146-0.0606 0.361-0.0744 0.337-0.0216 0.513 0.0658 0.178 0.0862 0.241 0.263 0.0637 0.175 0.0831 0.477 0.0146 0.227 8.17e-4 0.377-0.0138 0.15-0.081 0.268t-0.216 0.191q-0.148 0.0713-0.399 0.0874-0.22 0.0141-0.382-0.0209-0.163-0.0359-0.274-0.162l0.0598 0.931-0.283 0.0182zm0.338 0.77 0.0084 0.13q0.013 0.202 0.0574 0.321t0.167 0.18q0.123 0.0616 0.355 0.0467 0.252-0.0162 0.364-0.09t0.133-0.194q0.0224-0.121 0.0077-0.349l-0.0064-0.0991q-0.0156-0.242-0.05-0.362t-0.153-0.179q-0.119-0.06-0.368-0.044-0.249 0.0159-0.362 0.085-0.114 0.0683-0.14 0.193-0.0255 0.124-0.0103 0.361z"/><path d="m16.4 33.2q-0.0197-0.307 0.0301-0.486 0.051-0.179 0.224-0.276 0.172-0.0971 0.52-0.119 0.376-0.0241 0.571 0.0349 0.196 0.058 0.278 0.225 0.0812 0.167 0.102 0.494 0.0222 0.345-7e-3 0.531-0.0282 0.188-0.197 0.311-0.167 0.123-0.546 0.147-0.364 0.0233-0.561-0.024-0.196-0.0484-0.29-0.206-0.0927-0.157-0.113-0.473zm0.295-0.0189 0.0092 0.142q0.0251 0.39 0.15 0.493 0.088 0.0659 0.319 0.0511l0.141-0.0091q0.187-0.012 0.295-0.045t0.165-0.115q0.0572-0.0819 0.0584-0.238-0.0031-0.135-0.0193-0.387-0.0158-0.245-0.0475-0.357-0.0306-0.112-0.136-0.16-0.105-0.0494-0.337-0.0345l-0.0634 0.0041q-0.262 0.0168-0.377 0.0667-0.114 0.0498-0.146 0.166-0.0305 0.116-0.0143 0.368z"/><path d="m18.2 32.2 0.283-0.0182 8e-3 0.194q0.152-0.244 0.517-0.268 0.565-0.0362 0.603 0.563l-0.283 0.0182q-0.0126-0.195-0.0866-0.288-0.0741-0.0929-0.284-0.0794-0.457 0.0293-0.431 0.425l0.0725 1.13-0.291 0.0186z"/><path d="m21 32 0.0132 0.205-0.751 0.0482 0.0664 1.03q0.0098 0.153 0.0668 0.205 0.0569 0.0514 0.223 0.0408 0.182-0.0117 0.229-0.0852 0.0456-0.0734 0.0354-0.232l-0.0068-0.106 0.272-0.0174q0.0198 0.309-0.0783 0.467-0.0969 0.16-0.437 0.182-0.218 0.014-0.344-0.0215-0.125-0.0355-0.185-0.134-0.0599-0.0986-0.0716-0.28l-0.0664-1.03-0.256 0.0164-0.0132-0.205 0.256-0.0164-0.0261-0.405 0.295-0.0189 0.0261 0.405z"/><path d="m25 31.6-0.304 0.0195q-0.0242-0.186-0.0747-0.277-0.0505-0.0905-0.161-0.121-0.11-0.0316-0.326-0.0178l-0.16 0.0103q-0.43 0.0275-0.564 0.111-0.145 0.0895-0.129 0.345 0.0092 0.143 0.0459 0.226 0.0376 0.0827 0.131 0.125 0.0942 0.0414 0.266 0.0399 0.029 6.5e-5 0.411-0.0128 0.382-0.0129 0.559 0.0211 0.179 0.0339 0.295 0.167 0.117 0.132 0.134 0.403 0.0135 0.21-0.0173 0.356-0.031 0.144-0.147 0.244-0.116 0.0992-0.355 0.134-0.226 0.0338-0.532 0.0534-0.254 0.0163-0.425 8e-3 -0.171-0.0093-0.308-0.0653-0.135-0.0561-0.217-0.184-0.0808-0.128-0.0947-0.344-0.0013-0.0202-0.0014-0.0568-1.33e-4 -0.0367-0.0014-0.0568l0.301-0.0193q0.0147 0.228 0.065 0.334 0.0514 0.105 0.179 0.139 0.127 0.0334 0.39 0.0165l0.26-0.0167q0.252-0.0162 0.378-0.0522 0.125-0.037 0.175-0.136 0.0505-0.0999 0.0372-0.306-0.0108-0.168-0.0495-0.25-0.0376-0.0827-0.132-0.112-0.0946-0.0296-0.282-0.0234-0.265 0.0073-0.518 0.0119t-0.434-0.037q-0.181-0.0415-0.296-0.177-0.115-0.136-0.132-0.399-0.0178-0.277 0.0867-0.424 0.104-0.147 0.304-0.207 0.201-0.0593 0.523-0.0799l0.0722-0.0046q0.258-0.0166 0.429-0.0101 0.171 0.0055 0.306 0.0578 0.134 0.0524 0.213 0.179 0.0807 0.126 0.0949 0.347z"/><path d="m26.6 32.9 0.306-0.0196q0.0153 0.238-0.0773 0.36-0.0916 0.122-0.26 0.166-0.169 0.0437-0.462 0.0625-0.276 0.0177-0.448-0.0138-0.173-0.0315-0.273-0.12-0.0984-0.0893-0.145-0.24-0.0456-0.153-0.0613-0.396-0.0216-0.335 0.0176-0.524 0.0392-0.188 0.211-0.3 0.172-0.113 0.541-0.136 0.368-0.0236 0.557 0.0309 0.189 0.0535 0.267 0.212 0.0794 0.157 0.106 0.486l0.0084 0.131-1.4 0.0899q0.015 0.233 0.0472 0.352 0.0334 0.119 0.15 0.183 0.118 0.0649 0.367 0.049l0.0778-5e-3q0.245-0.0157 0.367-0.0738 0.122-0.0591 0.111-0.238zm-0.0253-0.481q-0.0147-0.228-0.0559-0.331-0.0401-0.104-0.16-0.139-0.118-0.035-0.375-0.0185-0.225 0.0144-0.338 0.0691-0.114 0.0537-0.151 0.167-0.0374 0.113-0.0239 0.323z"/><path d="m26.9 31.7 0.283-0.0182 8e-3 0.194q0.152-0.244 0.517-0.268 0.565-0.0362 0.603 0.563l-0.283 0.0182q-0.0126-0.195-0.0866-0.288-0.0741-0.0929-0.284-0.0794-0.457 0.0293-0.431 0.425l0.0725 1.13-0.291 0.0186z"/><path d="m30.2 31.5-0.547 1.73-0.41 0.0263-0.75-1.64 0.291-0.0186 0.657 1.46 0.442-1.53z"/><path d="m30.5 30.6 0.018 0.28-0.295 0.0189-0.018-0.28zm0.156 2.42-0.295 0.0189-0.108-1.68 0.295-0.0189z"/><path d="m32.2 32.3 0.291-0.0186q0.0167 0.26-0.0568 0.401-0.0724 0.14-0.244 0.202-0.171 0.0612-0.482 0.0812-0.304 0.0195-0.483-0.0213-0.178-0.0417-0.267-0.145-0.0882-0.105-0.121-0.259-0.0312-0.154-0.0492-0.434-0.0192-0.299 0.042-0.475 0.0611-0.178 0.242-0.272 0.183-0.0948 0.525-0.117 0.376-0.0241 0.587 0.0677 0.211 0.0908 0.231 0.399l0.0035 0.0549-0.283 0.0182q-0.0098-0.153-0.0614-0.227-0.0507-0.075-0.153-0.0974-0.101-0.0225-0.279-0.0111-0.266 0.017-0.384 0.069t-0.151 0.172q-0.0326 0.119-0.0163 0.373l0.0109 0.17q0.0144 0.223 0.0507 0.337 0.0374 0.112 0.156 0.164 0.118 0.0524 0.364 0.0366 0.235-0.0151 0.343-0.0481 0.109-0.0342 0.153-0.128 0.0431-0.0945 0.0306-0.288z"/><path d="m34.1 32.4 0.306-0.0196q0.0153 0.238-0.0773 0.36-0.0916 0.122-0.26 0.166-0.169 0.0437-0.462 0.0624-0.276 0.0177-0.448-0.0138-0.173-0.0315-0.273-0.12-0.0984-0.0893-0.145-0.24-0.0456-0.153-0.0613-0.396-0.0216-0.335 0.0176-0.524 0.0392-0.188 0.211-0.3 0.172-0.113 0.541-0.136 0.368-0.0236 0.557 0.0309 0.189 0.0536 0.267 0.212 0.0794 0.157 0.106 0.486l0.0084 0.131-1.4 0.0899q0.015 0.233 0.0472 0.352 0.0334 0.119 0.15 0.183 0.118 0.0649 0.367 0.049l0.0778-5e-3q0.245-0.0157 0.367-0.0738 0.122-0.0591 0.111-0.238zm-0.0253-0.481q-0.0147-0.228-0.0559-0.331-0.0401-0.104-0.16-0.139-0.118-0.035-0.375-0.0185-0.225 0.0144-0.338 0.0691-0.114 0.0537-0.151 0.167-0.0374 0.114-0.0239 0.323z"/></g><path d="m34.7 29.7s-0.0223 0.0016-29.7 1.91l0.0253 0.39 29.8-1.92-0.0225-0.35-0.234 0.0151z" color="#000000" stroke-width=".18"/></g><path d="m14.5 11.3c5.52-0.974 8.91-5.01 14.5-4.34 5.94 0.721 5.24 7.29-0.649 7.89-6.6 0.666-10.9-2.34-15.5-2.85-2.43-0.289-5.91 0.336-7.62 2.32 2.2-0.914 4.17-1.56 6.6-1.33 5.59 0.587 11.3 5.29 18.4 3.14 6.33-1.95 4.67-9.98-1.36-10.8-4.86-0.616-8.92 3.65-13.1 5.41" color="#000000" fill="#d65600" stroke-width=".227"/><path d="m28.9 5.22c-2.78-0.401-5.16 0.759-7.43 2.18-2.25 1.41-5.34 3.28-6.52 3.69-0.318 0.152-0.664 0.247-0.455 0.258 2.47-0.218 5.16-1.64 7.21-2.62 2.25-1.07 4.49-1.94 7.25-1.6 2.93 0.355 4.19 2.1 4.04 3.83-0.152 1.73-1.73 3.46-4.64 3.75-3.28 0.331-5.77-0.202-8.14-0.905-2.36-0.703-4.6-1.58-7.35-1.91-2.43-0.29-5.71 0.343-7.56 2.28-0.168 0.194-0.0743 0.0981-0.304 0.367l0.368-0.162c2.15-0.856 4.05-1.46 6.45-1.22 3.03 0.293 6.8 2.1 9.89 2.97 3.19 0.896 5.64 1.02 8.68 0.221 3.21-0.99 4.32-3.6 3.93-6.01-0.386-2.41-2.35-4.67-5.41-5.11zm-0.0312 0.225c2.97 0.428 4.85 2.61 5.22 4.92s-0.754 4.74-3.87 5.7c-3.09 0.954-5.94 0.58-9-0.37-3.05-0.949-6.3-2.47-9.38-2.77-2.04-0.198-4.08 0.323-6.38 1.24 1.2-0.959 2.1-1.41 3.4-1.78 1.41-0.403 2.9-0.392 3.98-0.264 2.72 0.326 4.94 1.19 7.31 1.9 2.38 0.707 4.9 1.25 8.22 0.915 2.98-0.3 4.68-2.11 4.84-3.96 0.163-1.85-1.22-3.71-4.23-4.07-2.82-0.342-4.69 0.285-6.94 1.36-2.27 1.11-3.08 1.51-4.59 2.12-1.36 0.553-2.17 0.725-2.43 0.802-0.415 0.122 1.81-0.56 6.42-3.53 2.26-1.41 4.72-2.59 7.42-2.2z" color="#000000" fill="#993f00" stroke-width="1.78"/><path d="m33.1 15.2-2.02 1.22c5.21 4.43 0.276 6.13-2.89 6.56-5.59 0.696-10.7-2.79-16.3-2.82-2.23-0.0089-5.14 0.607-6.69 2.41 2.38-0.682 4.49-1.63 7.05-1.3 5.66 0.735 11.2 4.49 17.1 3.43 4.41-0.795 7.47-5.67 3.74-9.5" color="#000000" fill="#483737" stroke-width=".227"/><path d="m32.1 15.7c-0.413 0.262-1.31 0.659-1.31 0.659l0.585 0.498c1.15 0.961 1.7 1.79 1.85 2.48 0.153 0.692-0.0782 1.26-0.555 1.74-0.954 0.974-2.9 1.56-4.47 1.77-2.77 0.345-5.42-0.345-8.08-1.13-2.66-0.789-5.34-1.67-8.16-1.69-2.23-0.0089-4.52 0.583-6 1.84-0.515 0.474-1.15 0.929-0.577 0.728 2.39-0.685 4.4-1.56 6.93-1.23 2.81 0.365 5.61 1.48 8.45 2.38 2.84 0.899 5.71 1.58 8.65 1.05 2.24-0.404 4.16-1.87 5.05-3.7 0.876-1.8 0.687-3.95-1.19-6.06-0.215-0.23-0.0994-0.206-0.463 0.106-0.391 0.334-0.452 0.392-0.704 0.552zm1.01-0.43c1.73 1.77 1.99 3.99 1.15 5.73-0.858 1.76-2.72 3.18-4.89 3.58-2.88 0.52-5.71-0.148-8.54-1.04-2.83-0.896-5.64-2.02-8.49-2.39-2.29-0.297-4.55 0.568-6.61 1.21 1.81-1.67 4.27-2.09 6.23-2.09 2.77 0.014 5.43 0.889 8.09 1.68 2.67 0.79 5.35 1.49 8.17 1.14h0.0036c1.6-0.215 3.58-0.785 4.61-1.83 0.514-0.525 0.783-1.19 0.614-1.96-0.162-0.735-1.17-1.94-2.24-2.87l1.05-0.543z" color="#000000" fill="#2d1e1e" stroke-width="1.78"/></svg>
