<svg version="1.1" viewBox="0 0 64 64" xmlns="http://www.w3.org/2000/svg"><title>blessing transport service logo</title><g transform="matrix(2 0 0 2 -4.033e-6 8.798e-5)"><path d="m.1249 2.569 29.94-1.842 1.76 28.79-29.94 1.842z" fill="#fff" stroke-linecap="round" stroke-width=".242" style="mix-blend-mode:normal"/><path d="m30.2.5517-30.2 1.813 1.642 28.82h-.000329l.02632.2648 30.33-1.777-1.773-28.79zm-.3208.3553 1.78 28.42-29.71 1.79-1.566-28.36z" fill-rule="evenodd" stroke-width=".5"/><g transform="matrix(.329 0 0 .329 -.4935 -.432)" stroke-width="1.657"><path d="m10.4 80.4-.785-12.2 6.98-.448q1.32-.0848 2.15.146.829.226 1.26.863.436.633.511 1.79.076 1.18-.249 1.84-.319.652-1.47 1.06 1.41.242 1.92.865.517.618.598 1.88.0741 1.15-.224 1.95-.292.797-1.09 1.26-.797.467-2.21.557zm6.98-6.14-5.73.368.287 4.47 4.46-.287q1.4-.09 2.06-.264.658-.174.935-.672.277-.497.209-1.55-.0701-1.09-.511-1.62-.441-.525-1.72-.443zm-.917-5.31-5.15.331.264 4.11 4.59-.294q1.11-.0711 1.7-.295.597-.224.816-.713.225-.489.168-1.37-.0716-1.12-.567-1.49-.489-.37-1.81-.285z"/><path d="m23.2 67.2.703 11 7.36-.473.0819 1.28-9.12.585-.785-12.2z"/><path d="m33 67.9.265 4.13 7.41-.476.0744 1.16-7.41.476.289 4.51 7.74-.497.0769 1.2-9.33.599-.785-12.2 9.33-.599.0794 1.24z"/><path d="m52.2 68.8-1.59.102q-.124-.941-.387-1.4-.262-.458-.837-.612-.575-.159-1.7-.0866l-.835.0536q-2.24.144-2.94.571-.757.455-.674 1.75.0466.726.237 1.15.196.418.681.632.491.208 1.38.2.151 7e-5 2.14-.0691 1.99-.0692 2.92.101.931.17 1.53.841.607.666.696 2.04.0685 1.07-.0939 1.8-.163.73-.77 1.24-.608.504-1.85.681-1.18.174-2.78.276-1.32.0848-2.22.0443-.894-.0454-1.6-.328-.705-.283-1.13-.931-.42-.648-.49-1.74-.0066-.102-.0069-.288-.000292-.186-.0069-.288l1.57-.101q.0744 1.16.336 1.69.267.531.93.704.663.168 2.04.0797l1.36-.0871q1.32-.0845 1.97-.268.652-.189.916-.69.264-.506.197-1.55-.0547-.853-.256-1.27-.196-.418-.688-.567-.493-.149-1.47-.116-1.38.0394-2.7.0655-1.32.026-2.26-.182-.945-.208-1.54-.889-.597-.686-.682-2.02-.0898-1.4.456-2.15.545-.754 1.59-1.05 1.05-.302 2.73-.41l.377-.0242q1.35-.0867 2.24-.0556.892.0259 1.59.289.698.263 1.11.907.419.639.491 1.75z"/><path d="m63.9 68-1.59.102q-.124-.941-.387-1.4-.262-.458-.837-.612-.575-.159-1.7-.0866l-.835.0536q-2.24.144-2.94.571-.757.455-.674 1.75.0466.726.237 1.15.196.418.681.632.491.208 1.38.2.151 7e-5 2.14-.0691 1.99-.0692 2.92.101.931.17 1.53.841.607.666.696 2.04.0685 1.07-.0939 1.8-.163.73-.77 1.24-.608.504-1.85.681-1.18.174-2.78.276-1.32.0848-2.22.0443-.894-.0454-1.6-.328-.705-.283-1.13-.931-.42-.648-.49-1.74-.0066-.102-.0069-.288-.00029-.186-.0069-.288l1.57-.101q.0744 1.16.336 1.69.267.531.93.704.663.168 2.04.0797l1.36-.0871q1.32-.0845 1.97-.268.652-.189.916-.69.264-.506.197-1.55-.0547-.853-.256-1.27-.196-.418-.688-.567-.493-.149-1.47-.116-1.38.0394-2.7.0655-1.32.026-2.26-.182-.945-.208-1.54-.889-.597-.686-.682-2.02-.0898-1.4.456-2.15.545-.754 1.59-1.05 1.05-.302 2.73-.41l.377-.0242q1.35-.0867 2.24-.0556.892.0259 1.59.289.698.263 1.11.907.419.639.491 1.75z"/><path d="m66.5 64.5.785 12.2-1.63.105-.785-12.2z"/><path d="m79.7 63.6.785 12.2-2.66.171-8.88-10.5.71 11.1-1.59.102-.785-12.2 2.64-.169 8.91 10.7-.717-11.2z"/><path d="m86.6 69.3 6.22-.399q.0758.455.132 1.33l.0563.877q.109 1.71-.406 2.75-.51 1.04-2.34 1.32-1.62.202-2.99.289-2.43.156-3.72-.128t-1.89-1.22q-.596-.94-.718-2.84-.0366-.57-.0963-1.68t-.0957-1.67q-.104-1.63.297-2.63t1.47-1.52q1.07-.519 2.98-.641 2.33-.15 3.52-.187 1.79-.0711 2.64.667.85.733.949 2.27l.0282.439-1.59.102q-.0801-1.25-.521-1.77-.436-.53-1.79-.482-1.02.0265-3.04.156-1.58.102-2.27.39-.68.283-.87.961-.184.672-.115 2.2l.0572 1.62.157 1.72q.0604.94.21 1.54.155.597.642 1.02.493.423 1.46.493.789.0521 2.36-.0488l.852-.0547q1.45-.093 2.13-.332.683-.24.903-.811.225-.572.15-1.75l-.0679-1.06-4.63.297z"/></g><g transform="matrix(.329 0 0 .329 -.4935 -.432)" stroke-width="1.632"><path d="m15.2 84.5.385 6.01-.888.057-.385-6.01-2.51.161-.0464-.724 5.88-.377.0464.724z"/><path d="m18.1 85.6.786-.0504.0222.539q.422-.678 1.44-.744 1.57-.101 1.68 1.57l-.786.0504q-.0349-.544-.241-.803t-.791-.221q-1.27.0814-1.2 1.18l.201 3.14-.81.052z"/><path d="m23.4 86.6-.838.0538q-.0566-.882.444-1.16.501-.28 1.61-.351.835-.0536 1.34.0299.505.0833.791.426.286.34.331 1.05l.197 3.06-.77.0494.0178-.496q-.287.368-.719.509-.429.138-1.08.18-.73.0468-1.19-.0366-.462-.0834-.727-.392-.265-.309-.305-.928-.0378-.59.202-.917.24-.33.682-.461.445-.131 1.14-.175.64-.0411 1.06.0125.426.0534.702.348l-.0351-.547q-.038-.592-.173-.853-.135-.263-.456-.331-.321-.0682-1.03-.023-.767.0492-1.03.254-.232.16-.208.53.0019.0295.0175.0796.0186.0472.021.0848zm-.0604 1.87q.038.592.323.779.288.186.984.141.535-.0344.897-.103.365-.0692.622-.279.26-.21.233-.623-.037-.576-.422-.713-.385-.139-1.14-.0908l-.204.0131q-.885.0568-1.14.283-.183.144-.154.594z"/><path d="m27.5 85 .733-.047.0394.614q.283-.433.734-.618t1.08-.226q.742-.0476 1.18.0833.437.131.653.491t.257 1l.2 3.12-.823.0528-.197-3.06q-.0306-.477-.149-.717-.118-.24-.406-.324-.285-.084-.851-.0476-1.61.103-1.52 1.45l.185 2.89-.81.052z"/><path d="m37.1 85.6-.81.052q-.0291-.453-.369-.576-.34-.126-.922-.0888l-.405.026q-.575.0369-.863.203-.285.164-.257.595.0188.292.0935.441.0746.146.249.207.175.0588.519.0582.557-.025 1.1-.0488.539-.0238.954.0518t.69.349q.275.273.31.82.0416.649-.214.98-.252.328-.723.447-.468.116-1.26.167-.724.0464-1.21.0025-.487-.0441-.833-.302-.343-.261-.38-.834-.0119-.185-.0045-.263l.81-.052q.027.421.161.627.137.204.411.264.274.0578.784.025l.189-.0121q.965-.0619 1.26-.269.232-.163.198-.696-.0298-.464-.288-.571-.259-.11-.784-.0761l-.331.0212q-.0186.001-.0749-.0059-.0564-.0071-.078-.0057-.804.0085-1.06.0035-.258-.0077-.569-.103-.311-.0985-.5-.345-.19-.249-.219-.696-.0538-.839.324-1.1.526-.376 1.74-.453.671-.0431 1.17.0167.494.0571.835.326.343.266.378.815z"/><path d="m37.7 84.3.786-.0504.0146.615q.269-.405.674-.573.405-.169 1.01-.207.937-.0602 1.43.183.494.24.671.732.177.489.231 1.33.0406.632.0021 1.05-.0385.417-.225.746-.187.33-.599.531-.413.199-1.11.244-.612.0393-1.07-.0581-.454-.1-.759-.452l.166 2.59-.786.0504zm.939 2.14.0232.362q.0361.563.16.894.124.331.464.503.343.172.987.13.702-.045 1.01-.251.31-.206.369-.54.0622-.338.0214-.973l-.0177-.276q-.0432-.673-.139-1.01-.0959-.333-.427-.5-.331-.167-1.03-.122-.69.0442-1.01.237-.317.19-.391.536-.0709.346-.0286 1.01z"/><path d="m42.9 86.2q-.0549-.855.0839-1.35.142-.499.622-.766.48-.27 1.45-.333 1.05-.0671 1.59.0973.545.161.77.626t.284 1.38q.0616.959-.0198 1.48-.0783.522-.547.867-.466.342-1.52.41-1.01.0649-1.56-.0667-.546-.134-.807-.573-.258-.438-.314-1.32zm.823-.0528.0255.397q.0697 1.09.417 1.37.245.183.888.142l.393-.0252q.52-.0334.821-.125.302-.092.458-.32.159-.228.162-.662-.0086-.376-.0537-1.08-.0439-.683-.132-.995-.0852-.312-.38-.447-.291-.137-.938-.0959l-.176.0113q-.73.0468-1.05.186-.317.139-.405.462-.0849.323-.0398 1.03z"/><path d="m48 83.7.786-.0504.0222.539q.422-.678 1.44-.744 1.57-.101 1.68 1.57l-.786.0504q-.0349-.544-.241-.803-.206-.259-.791-.221-1.27.0814-1.2 1.18l.201 3.14-.81.052z"/><path d="m55.8 83.2.0366.571-2.09.134.185 2.88q.0274.426.186.572.158.143.622.113.507-.0326.634-.237.127-.205.0982-.647l-.0189-.295.758-.0486q.055.858-.218 1.3-.27.445-1.22.506-.603.0387-.954-.0599-.348-.0988-.515-.373t-.199-.781l-.185-2.88-.711.0456-.0366-.571.711-.0456-.0726-1.13.823-.0528.0726 1.13z"/><path d="m65.5 82.4-.847.0544q-.0674-.518-.208-.77-.14-.252-.447-.337-.307-.088-.907-.0494l-.445.0286q-1.2.0768-1.57.311-.403.249-.358.959.0256.399.128.632.105.23.364.348.262.115.737.111.0808.00018 1.14-.0357 1.06-.036 1.56.0589.497.0946.819.464.325.367.373 1.13.0376.587-.0482.991-.0861.401-.41.68-.324.276-.985.373-.631.0943-1.48.149-.705.0452-1.18.022-.477-.0259-.856-.182-.376-.156-.601-.513t-.263-.96q-.0035-.0563-.004-.159-.00037-.102-.004-.159l.838-.0538q.041.638.181.93.143.292.497.388.354.093 1.09.046l.724-.0464q.702-.045 1.05-.145.347-.103.488-.378.141-.278.104-.852-.0301-.469-.138-.696-.105-.23-.368-.313t-.784-.0654q-.735.0202-1.44.0332-.704.0129-1.21-.103-.504-.116-.823-.491-.319-.378-.366-1.11-.0494-.769.241-1.18.29-.414.848-.577.558-.165 1.46-.223l.201-.0129q.721-.0462 1.19-.0282.476.0152.849.161.373.146.594.5.224.352.264.965z"/><path d="m70.2 85.5.851-.0546q.0425.662-.215 1-.255.339-.725.464-.47.122-1.28.174-.764.049-1.25-.0383-.481-.0876-.757-.334-.274-.249-.403-.671-.127-.425-.17-1.11-.0599-.933.0494-1.46.109-.526.586-.837.48-.313 1.51-.379 1.02-.0657 1.55.0863.525.149.743.59.221.438.295 1.35l.0234.364-3.9.251q.0418.651.131.982.0926.33.418.511.328.181 1.02.136l.216-.0139q.68-.0436 1.02-.205.34-.164.308-.663zm-.0703-1.34q-.0408-.635-.156-.924-.112-.289-.444-.386-.329-.0973-1.04-.0516-.625.0401-.941.192-.316.149-.42.466-.104.316-.0664.9z"/><path d="m71.2 82.2.786-.0504.0222.539q.422-.678 1.44-.744 1.57-.101 1.68 1.57l-.786.0504q-.0349-.544-.241-.803-.206-.259-.791-.221-1.27.0814-1.2 1.18l.201 3.14-.81.052z"/><path d="m80.2 81.6-1.52 4.83-1.14.0732-2.09-4.59.81-.052 1.83 4.06 1.23-4.26z"/><path d="m81.2 79.5.0501.78-.823.0528-.0501-.78zm.432 6.73-.823.0528-.302-4.71.823-.0528z"/><path d="m85.9 84.2.81-.052q.0464.724-.158 1.12-.202.39-.678.56-.477.171-1.34.226-.847.0544-1.34-.0592-.495-.116-.743-.404-.245-.291-.335-.719-.0865-.428-.137-1.21-.0533-.831.117-1.32.17-.495.675-.756.508-.264 1.46-.325 1.05-.0671 1.63.189.588.253.643 1.11l.0098.153-.786.0504q-.0274-.426-.171-.635-.141-.209-.424-.271-.28-.0627-.775-.031-.739.0474-1.07.192-.329.145-.42.479-.0905.331-.0453 1.04l.0302.472q.0401.624.141.936.104.311.433.459.329.146 1.01.102.653-.0419.957-.134.304-.0949.424-.356.12-.263.085-.805z"/><path d="m91.1 84.2.851-.0546q.0425.662-.215 1-.255.339-.725.464-.47.122-1.28.174-.764.049-1.25-.0383-.481-.0876-.757-.334-.274-.249-.403-.671-.127-.425-.17-1.11-.0599-.933.0494-1.46.109-.526.586-.837.48-.313 1.51-.379 1.02-.0657 1.55.0863.525.149.743.59.221.438.295 1.35l.0234.364-3.9.251q.0418.651.131.982.0926.33.418.511.328.181 1.02.136l.216-.0139q.68-.0436 1.02-.205.34-.164.308-.663zm-.0703-1.34q-.0408-.635-.156-.924-.112-.289-.444-.386-.329-.0973-1.04-.0516-.625.0401-.941.192-.316.149-.42.466t-.0664.9z"/></g><path d="m2.895 26.48.02313.3553c27.11-1.74 27.14-1.74 27.14-1.74l.1783-.01158-.02056-.3454c-24.15 1.536-.003818-.01161-27.31 1.74z" stroke-width=".5"/><path d="m10.05 8.03c5.494-.9179 8.702-4.326 12.67-4.244 5.642-.1086 5.889 5.214 1.497 6.317-4.441 1.184-11.27-.8488-16.28-.9606-1.76.08027-4.277.5362-6.53 2.599 3.619-1.37 7.09-.9656 8.175-.7846 9.639 1.859 11.94 2.484 16.61.7287 5.379-2.484 3.24-9.212-2.451-9.837-6.201.05132-7.057 3.471-13.69 6.185" color="#000000" fill="#ff3000" stroke-width=".625"/><path d="m22.04 1.829c-2.352.3323-3.833 1.193-5.165 2.073-1.324.9442-2.648 1.826-3.306 2.237-1.074.6547-2.418 1.352-3.882 2.023 2.467-.2681 5.165-1.505 7.303-2.517 2.122-1.077 4.063-2.007 6.497-1.744 1.957.07748 3.701 1.451 3.635 3.01-.0556 1.443-1.272 2.615-3.52 3.125-3.142.6168-6.251.04096-9.228-.4244-2.319-.329-3.734-.6119-6.103-.6284-2.681-.01777-4.162.7106-5.675 1.661-.6103.4227-1.221.9228-1.436 1.222l1.619-.4704c2.5-.5116 3.701-.5807 4.902-.5132 2.319.1216 4.82.8142 9.228 1.635 6.251.9722 8.537-.3208 9.244-.6119 2.566-1.17 3.504-3.24 3.224-5.313-.3323-2.517-2.681-4.77-6.053-4.836-.4902-.01908-1.285.07073-1.285.07073zm.7155.1066c3.323-.07583 5.708 1.842 6.3 4.162.5182 2.056-.2106 4.458-3.339 5.708-3.619 1.357-6.399.778-9.508.3372-2.994-.5165-6.629-1.332-8.406-1.405-1.957-.08093-4.918.3092-6.3.9195 1.002-.7912 1.908-1.484 3.668-2.04 1.166-.3504 1.908-.4195 3.734-.3882 1.107.01925 4.606.5247 6.711.857 1.744.2763 4.573.7024 7.616.2846 2.747-.38 4.063-1.892 4.096-3.537.02089-1.632-1.661-2.879-3.718-3.076-2.747-.2517-4.343.5626-6.481 1.604-2.188 1.059-2.665 1.221-3.882 1.711-1.237.5083-2.55.7863-3.027.9014 3.109-1.224 4.639-2.583 6.382-3.685 1.842-1.334 3.372-1.957 4.82-2.221.4491-.08554.857-.1038.9853-.1184z" color="#000000" fill="#793200" stroke-width=".625"/><path d="m28.29 10.88c-1.005.8669-1.678 1.119-2.55 1.543 1.908 1.181 2.122 1.63 2.204 2.336.1031.9623-1.99 2.303-3.849 2.615-5.182.8504-10.56-2.237-15.94-1.941-2.171.1181-5.017 1.298-6.415 2.994 2.27-.7863 4.293-1.314 6.794-1.16 6.662.4129 10.21 3.405 16.78 2.27 4.244-.9573 6.958-5.461 2.994-8.619" color="#000000" fill="#483737" stroke-width=".625"/><path d="m27.63 14.08c.2763.3915.3915 1.005-.3685 1.711-.6201.5823-1.941 1.235-3.339 1.479-2.698.3471-4.754-.1063-7.386-.6563-2.632-.551-5.412-1.541-8.307-1.293-2.171.1181-4.112 1.107-5.149 1.826-.5461.3767-1.323 1.199-1.482 1.352.403-.1678 2.122-.7797 4.918-1.096.6629-.07501 1.298-.06991 2.007-.01793 3.273.2303 5.659 1.051 8.422 1.793 2.796.6366 5.626 1.133 8.422.5001 2.155-.4869 3.931-1.892 4.704-3.569.7567-1.645.1436-4.047-1.809-5.445-.6645.76-1.859 1.334-2.796 1.727 0 0 .8471.5214 1.237.8241.681.528.732.602.9195.8669zm.7024-3.076c1.744 1.346 2.237 3.438 1.515 5.017-.7336 1.614-2.467 2.977-4.556 3.454-2.78.6267-5.527.1038-8.356-.5346-2.796-.8126-5.247-1.559-8.586-1.76-2.237-.1347-4.343.3487-6.3 1.035 1.661-1.587 4.03-2.615 5.922-2.714 2.698-.2796 5.856.709 8.554 1.308 2.632.5872 4.589.9146 6.777.7353 0 0 .6284-.07024 1.367-.2286.7386-.1582 1.678-.4392 2.796-1.418.6185-.6596.6366-.9837.5099-1.49-.2237-.8833-1.479-1.492-2.056-1.974 1.308-.5412 1.582-.7978 2.023-1.147 0 0 .1842-.1319.3701-.2829z" color="#000000" fill="#282828" stroke-width=".625"/></g></svg>
