<svg version="1.1" viewBox="0 0 250 250" xmlns="http://www.w3.org/2000/svg">
 <path d="m1.4 250h247c0.776 0 1.4-0.624 1.4-1.4v-247c0-0.776-0.624-1.4-1.4-1.4h-247c-0.776 0-1.4 0.624-1.4 1.4v247c0 0.776 0.624 1.4 1.4 1.4z" fill="#fff" stroke-linejoin="round" stroke-width=".198" style="paint-order:markers fill stroke"/>
 <g stroke-width="1.09">
  <path d="m203 206c0-2.2 0.55-2.75 2.75-2.75s2.75 0.55 2.75 2.75-0.55 2.75-2.75 2.75-2.75-0.55-2.75-2.75z"/>
  <path d="m203 119c0-2.2 0.55-2.75 2.75-2.75s2.75 0.55 2.75 2.75-0.55 2.75-2.75 2.75-2.75-0.55-2.75-2.75z"/>
  <path d="m196 59c0-2.2 0.55-2.75 2.75-2.75s2.75 0.55 2.75 2.75-0.55 2.75-2.75 2.75-2.75-0.55-2.75-2.75z"/>
  <path d="m190 239c0-2.2 0.55-2.75 2.75-2.75s2.75 0.55 2.75 2.75-0.55 2.75-2.75 2.75-2.75-0.55-2.75-2.75z"/>
  <path d="m183 226c0-2.2 0.55-2.75 2.75-2.75s2.75 0.55 2.75 2.75-0.55 2.75-2.75 2.75-2.75-0.55-2.75-2.75z"/>
  <path d="m183 192c0-2.2 0.55-2.75 2.75-2.75s2.75 0.55 2.75 2.75-0.55 2.75-2.75 2.75-2.75-0.55-2.75-2.75z"/>
  <path d="m183 126c0-2.2 0.55-2.75 2.75-2.75s2.75 0.55 2.75 2.75-0.55 2.75-2.75 2.75-2.75-0.55-2.75-2.75z"/>
  <path d="m183 112c0-2.2 0.55-2.75 2.75-2.75s2.75 0.55 2.75 2.75-0.55 2.75-2.75 2.75-2.75-0.55-2.75-2.75z"/>
  <path d="m176 239c0-2.2 0.55-2.75 2.75-2.75s2.75 0.55 2.75 2.75-0.55 2.75-2.75 2.75-2.75-0.55-2.75-2.75z"/>
 </g>
 <path d="m69.4 226c0-2.35 0.334-2.75 2.75-2.75s2.75 0.343 2.75 2.75-0.358 2.75-2.75 2.75-2.75-0.4-2.75-2.75z" stroke-width="1.09"/>
 <path d="m170 5.5c0-2.15 0.618-2.75 2.75-2.75 2.13 0 2.75 0.535 2.75 2.75s-0.595 2.75-2.75 2.75-2.75-0.596-2.75-2.75z" stroke-width="1.09"/>
 <path d="m143 5.51c0-2.24 0.527-2.76 2.83-2.76 2.23 0 2.67 0.509 2.67 2.84 0 2.09-0.575 2.66-2.7 2.66-2.3 0-2.8-0.555-2.8-2.74z" stroke-width="1.09"/>
 <path d="m136 5.5c0-2.28 0.477-2.75 2.75-2.75s2.75 0.542 2.75 2.75-0.489 2.75-2.75 2.75-2.75-0.471-2.75-2.75z" stroke-width="1.09"/>
 <g stroke-width="1.09">
  <path d="m130 5.5c0-2.2 0.55-2.75 2.75-2.75s2.75 0.55 2.75 2.75-0.55 2.75-2.75 2.75-2.75-0.55-2.75-2.75z"/>
  <path d="m116 5.5c0-2.3 0.497-2.75 2.75-2.75s2.75 0.407 2.75 2.75c0 2.34-0.434 2.75-2.75 2.75s-2.75-0.446-2.75-2.75z"/>
  <path d="m96.6 5.62c0-2.35 0.853-2.87 2.8-2.87 1.95 0 2.7 0.349 2.7 2.67s-0.576 2.75-2.52 2.82c-1.95 0.0704-2.98-0.274-2.98-2.62z"/>
  <path d="m89.8 5.5c0-2.2 0.55-2.75 2.75-2.75s2.75 0.55 2.75 2.75-0.55 2.75-2.75 2.75-2.75-0.55-2.75-2.75z"/>
  <path d="m62.8 5.5c0-2.2 0.55-2.75 2.75-2.75s2.75 0.55 2.75 2.75-0.55 2.75-2.75 2.75-2.75-0.55-2.75-2.75z"/>
 </g>
 <path d="m56.1 5.5c0-2.29 0.441-2.75 2.75-2.75s2.75 0.418 2.75 2.75c0 2.33-0.474 2.75-2.75 2.75s-2.75-0.463-2.75-2.75z" stroke-width="1.09"/>
 <g stroke-width="1.09">
  <path d="m190 12.5c0-2.75-4e-3 -2.75 2.75-2.75 2.75 0 2.75 0.00182 2.75 2.75 0 2.75-1.2e-4 2.75-2.75 2.75s-2.75 0.0017-2.75-2.75z"/>
  <path d="m170 12.5c0-2.17 0.509-2.75 2.75-2.75s2.75 0.585 2.75 2.75-0.55 2.75-2.75 2.75-2.75-0.581-2.75-2.75z"/>
  <path d="m163 12.5c0-2.2 0.55-2.75 2.75-2.75s2.75 0.55 2.75 2.75-0.55 2.75-2.75 2.75-2.75-0.55-2.75-2.75z"/>
 </g>
 <path d="m156 12.5c-8e-3 -2.14 0.578-2.75 2.75-2.75 2.17 0 2.75 0.576 2.75 2.75s-0.654 2.75-2.75 2.75-2.74-0.612-2.75-2.75z" stroke-width="1.09"/>
 <g stroke-width="1.09">
  <path d="m150 12.5c0-2.2 0.55-2.75 2.75-2.75s2.75 0.55 2.75 2.75-0.55 2.75-2.75 2.75-2.75-0.55-2.75-2.75z"/>
  <path d="m130 12.5c0-2.2 0.55-2.75 2.75-2.75s2.75 0.55 2.75 2.75-0.55 2.75-2.75 2.75-2.75-0.55-2.75-2.75z"/>
  <path d="m123 12.6c0-2.34 0.563-2.82 2.81-2.82 2.21 0 2.69 0.52 2.69 2.8 0 2.14-0.564 2.7-2.7 2.7-2.18 0-2.8-0.552-2.8-2.68z"/>
  <path d="m110 12.5c0-2.2 0.55-2.75 2.75-2.75s2.75 0.55 2.75 2.75-0.55 2.75-2.75 2.75-2.75-0.55-2.75-2.75z"/>
 </g>
 <path d="m76.2 12.5c0-2.17 0.629-2.75 2.75-2.75s2.75 0.527 2.75 2.75-0.596 2.75-2.75 2.75-2.75-0.583-2.75-2.75z" stroke-width="1.09"/>
 <path d="m62.8 12.5c0-2.2 0.55-2.75 2.75-2.75s2.75 0.55 2.75 2.75-0.55 2.75-2.75 2.75-2.75-0.55-2.75-2.75z" stroke-width="1.09"/>
 <path d="m183 19c0.0281-2.25 0.31-2.75 2.75-2.75 2.44 0 2.75 0.552 2.75 2.75s-0.516 2.75-2.75 2.75-2.78-0.496-2.75-2.75z" stroke-width="1.09"/>
 <g stroke-width="1.09">
  <path d="m163 19c0-2.25 0.646-2.75 2.75-2.75 2.1 0 2.75 0.547 2.75 2.75s-0.524 2.75-2.75 2.75-2.75-0.498-2.75-2.75z"/>
  <path d="m150 19c0-2.23 0.465-2.75 2.75-2.75s2.75 0.451 2.75 2.75-0.472 2.75-2.75 2.75-2.75-0.517-2.75-2.75z"/>
  <path d="m143 19c0-2.23 0.411-2.84 2.75-2.84s2.75 0.585 2.75 2.84-0.403 2.66-2.75 2.66-2.75-0.431-2.75-2.66z"/>
 </g>
 <path d="m116 19c0-2.27 0.432-2.75 2.75-2.75 2.32 0 2.75 0.507 2.75 2.75s-0.542 2.75-2.75 2.75c-2.21 0-2.75-0.48-2.75-2.75z" stroke-width="1.09"/>
 <path d="m110 18.8c0-2.14 0.434-2.64 2.75-2.64 2.26 0 2.75 0.412 2.75 2.64 0 2.46-0.428 2.86-2.75 2.86-2.37 0-2.75-0.483-2.75-2.86z" stroke-width="1.09"/>
 <path d="m96.3 19c0-2.43 0.298-2.75 2.75-2.75 2.45 0 2.75 0.305 2.75 2.75s-0.278 2.75-2.75 2.75c-2.47 0-2.75-0.323-2.75-2.75z" stroke-width="1.09"/>
 <path d="m89.8 19c0-2.32 0.428-2.75 2.75-2.75s2.75 0.428 2.75 2.75-0.428 2.75-2.75 2.75-2.75-0.428-2.75-2.75z" stroke-width="1.09"/>
 <path d="m83 19c0-2.39 0.404-2.75 2.75-2.75s2.76 0.458 2.75 2.75-0.422 2.75-2.75 2.75-2.75-0.359-2.75-2.75z" stroke-width="1.09"/>
 <path d="m76.2 19c0-2.24 0.608-2.75 2.75-2.75s2.75 0.53 2.75 2.75-0.541 2.75-2.75 2.75-2.75-0.513-2.75-2.75z" stroke-width="1.09"/>
 <path d="m183 25.6c0-2.2 0.566-2.75 2.75-2.75s2.75 0.418 2.75 2.75-0.584 2.75-2.75 2.75-2.75-0.548-2.75-2.75z" stroke-width="1.09"/>
 <g stroke-width="1.09">
  <path d="m170 26.6c0-2.14 0.713-2.75 2.75-2.75s2.75 0.605 2.75 2.75-0.55 2.75-2.75 2.75-2.75-0.608-2.75-2.75z"/>
  <path d="m143 25.6c0-2.19 0.561-2.75 2.75-2.75s2.75 0.491 2.75 2.75-0.431 2.75-2.75 2.75-2.75-0.562-2.75-2.75z"/>
  <path d="m136 25.6c0-2.27 0.435-2.75 2.75-2.75s2.75 0.433 2.75 2.75-0.39 2.75-2.75 2.75-2.75-0.482-2.75-2.75z"/>
  <path d="m123 25.6c0-2.21 0.636-2.77 2.82-2.77 2.09 0 2.68 0.583 2.68 2.76 0 2.15-0.528 2.74-2.7 2.74-2.21 0-2.8-0.546-2.8-2.73z"/>
  <path d="m116 25.6c0-2.35 0.503-2.79 2.7-2.79 2.26 0 2.8 0.621 2.8 2.71 0 2.14-0.531 2.79-2.65 2.79-2.31 0-2.85-0.564-2.85-2.71z"/>
  <path d="m110 25.6c0-2.2 0.55-2.75 2.75-2.75s2.75 0.55 2.75 2.75-0.55 2.75-2.75 2.75-2.75-0.55-2.75-2.75z"/>
  <path d="m103 25.6c0-2.2 0.55-2.75 2.75-2.75s2.75 0.55 2.75 2.75-0.55 2.75-2.75 2.75-2.75-0.55-2.75-2.75z"/>
  <path d="m96.3 25.7c0-2.36 0.44-2.86 2.75-2.86 2.31 0 2.75 0.445 2.75 2.75s-0.47 2.75-2.75 2.75c-2.28 0-2.75-0.274-2.75-2.64z"/>
 </g>
 <path d="m83 25.6c0-2.29 0.555-2.75 2.79-2.75s2.71 0.384 2.71 2.75-0.411 2.75-2.75 2.75-2.75-0.46-2.75-2.75z" stroke-width="1.09"/>
 <path d="m76.3 25.6c0.0204-2.16 0.585-2.75 2.75-2.75 2.16 0 2.75 0.561 2.75 2.75s-0.552 2.75-2.75 2.75-2.77-0.59-2.75-2.75z" stroke-width="1.09"/>
 <path d="m69.4 25.6c0-2.33 0.335-2.75 2.75-2.75s2.75 0.458 2.75 2.75-0.341 2.75-2.75 2.75-2.75-0.424-2.75-2.75z" stroke-width="1.09"/>
 <path d="m56.1 25.6c-0.0197-1.89 0.339-2.76 2.75-2.75 2.41 0.0122 2.75 0.617 2.75 2.75s-0.472 2.73-2.75 2.75c-2.28 0.0203-2.73-0.862-2.75-2.75z" stroke-width="1.09"/>
 <path d="m190 32.1c0.042-2.04 0.0661-2.55 2.52-2.59 2.96-0.0554 2.99 0.442 2.97 2.82-0.0193 2.4-0.438 2.74-2.61 2.66-2.73-0.0926-2.92-0.855-2.88-2.89z" stroke-width="1.09"/>
 <path d="m186 29.5c2.1 0 2.75 0.471 2.75 2.75 0 2.28-0.527 2.75-2.75 2.75s-2.75-0.548-2.75-2.75 0.643-2.75 2.75-2.75z" stroke-width="1.1"/>
 <path d="m176 32.2c0-2.26 0.516-2.75 2.75-2.75s2.75 0.491 2.75 2.75-0.415 2.75-2.75 2.75-2.75-0.492-2.75-2.75z" stroke-width="1.09"/>
 <path d="m136 32.2c0-2.34 0.277-2.75 2.75-2.75s2.75 0.483 2.75 2.75-0.385 2.75-2.75 2.75-2.75-0.408-2.75-2.75z" stroke-width="1.09"/>
 <g stroke-width="1.09">
  <path d="m123 32.2c0-2.28 0.586-2.75 2.75-2.75 2.15 0 2.75 0.513 2.75 2.75s-0.531 2.75-2.75 2.75c-2.23 0-2.75-0.485-2.75-2.75z"/>
  <path d="m116 32.2c0-2.44 0.513-2.75 2.75-2.75 2.26 0 2.75 0.497 2.75 2.75 0 2.26-0.4 2.75-2.75 2.75-2.25 0-2.75-0.494-2.75-2.75z"/>
  <path d="m96.3 32.2c0-2.43 0.359-2.75 2.75-2.75 2.39 0 2.75 0.37 2.75 2.75s-0.335 2.75-2.75 2.75c-2.42 0-2.75-0.317-2.75-2.75z"/>
  <path d="m89.8 32.2c0-2.32 0.428-2.75 2.75-2.75s2.75 0.428 2.75 2.75-0.428 2.75-2.75 2.75-2.75-0.428-2.75-2.75z"/>
 </g>
 <path d="m76.2 32.2c0-2.3 0.441-2.75 2.75-2.75s2.75 0.333 2.75 2.75c0 2.42-0.382 2.75-2.75 2.75s-2.75-0.446-2.75-2.75z" stroke-width="1.09"/>
 <path d="m62.8 32.2c0-2.27 0.515-2.75 2.75-2.75s2.75 0.509 2.75 2.75-0.427 2.75-2.75 2.75c-2.32 0-2.75-0.476-2.75-2.75z" stroke-width="1.09"/>
 <path d="m56.1 32.2c0-2.15 0.519-2.75 2.75-2.75 2.23 0 2.75 0.494 2.75 2.75s-0.454 2.75-2.75 2.75c-2.3 0-2.75-0.597-2.75-2.75z" stroke-width="1.09"/>
 <g stroke-width="1.09">
  <path d="m190 39.2c0-2.32 0.428-2.75 2.75-2.75s2.75 0.428 2.75 2.75-0.428 2.75-2.75 2.75-2.75-0.428-2.75-2.75z"/>
  <path d="m136 39.2c0-2.21 0.513-2.75 2.75-2.75s2.75 0.52 2.75 2.75-0.471 2.75-2.75 2.75-2.75-0.543-2.75-2.75z"/>
  <path d="m130 39.2c0-2.32 0.428-2.75 2.75-2.75s2.75 0.428 2.75 2.75-0.428 2.75-2.75 2.75-2.75-0.428-2.75-2.75z"/>
  <path d="m116 39.2c0-2.29 0.497-2.75 2.64-2.75 2.35 0 2.86 0.551 2.86 2.93 0 2.11-0.45 2.57-2.86 2.57-2.12 0-2.64-0.522-2.64-2.75z"/>
  <path d="m103 39.2c0-2.32 0.428-2.75 2.75-2.75s2.75 0.428 2.75 2.75-0.428 2.75-2.75 2.75-2.75-0.428-2.75-2.75z"/>
  <path d="m96.3 39.2c0-2.32 0.356-2.75 2.75-2.75 2.39 0 2.75 0.514 2.75 2.75s-0.458 2.75-2.75 2.75c-2.29 0-2.75-0.433-2.75-2.75z"/>
 </g>
 <path d="m83 39.2c0-2.3 0.238-2.75 2.75-2.75s2.75 0.438 2.75 2.75c0 2.31-0.379 2.75-2.75 2.75s-2.75-0.448-2.75-2.75z" stroke-width="1.09"/>
 <path d="m69.4 39.2c0-2.26 0.462-2.75 2.75-2.75s2.75 0.418 2.75 2.75-0.419 2.75-2.75 2.75-2.75-0.487-2.75-2.75z" stroke-width="1.09"/>
 <path d="m56.1 39.2c0.0154-2.22 0.447-2.75 2.75-2.75s2.75 0.479 2.75 2.75c4.8e-4 2.27-0.421 2.75-2.75 2.75s-2.77-0.527-2.75-2.75z" stroke-width="1.09"/>
 <path d="m190 46.2c0-2.48 0.435-2.9 2.83-2.9 2.39 0 2.75 0.571 2.66 2.79-0.089 2.22-0.448 2.7-2.79 2.71-2.34 0.0085-2.7-0.123-2.7-2.6z" stroke-width="1.09"/>
 <path d="m176 46c0-2.24 0.444-2.75 2.75-2.75 2.31 0 2.75 0.48 2.75 2.75s-0.473 2.75-2.75 2.75c-2.28 0-2.75-0.507-2.75-2.75z" stroke-width="1.09"/>
 <path d="m163 46c0-2.32 0.428-2.75 2.75-2.75s2.75 0.428 2.75 2.75-0.428 2.75-2.75 2.75-2.75-0.428-2.75-2.75z" stroke-width="1.09"/>
 <path d="m150 46c0-2.32 0.452-2.75 2.75-2.75s2.75 0.365 2.75 2.75-0.436 2.75-2.75 2.75c-2.31 0-2.75-0.432-2.75-2.75z" stroke-width="1.09"/>
 <path d="m136 46c0-2.27 0.43-2.75 2.75-2.75s2.75 0.419 2.75 2.75-0.42 2.75-2.75 2.75-2.75-0.479-2.75-2.75z" stroke-width="1.09"/>
 <path d="m123 46c0-2.4 0.347-2.75 2.75-2.75s2.75 0.436 2.75 2.75-0.257 2.75-2.75 2.75-2.75-0.348-2.75-2.75z" stroke-width="1.09"/>
 <path d="m110 46c0-2.23 0.504-2.71 2.69-2.71s2.81 0.467 2.81 2.7c0 2.33-0.432 2.8-2.72 2.8s-2.78-0.311-2.78-2.79z" stroke-width="1.09"/>
 <path d="m96.3 46c0-2.21 0.547-2.75 2.75-2.75s2.75 0.519 2.75 2.75-0.473 2.75-2.75 2.75c-2.28 0-2.75-0.543-2.75-2.75z" stroke-width="1.09"/>
 <path d="m83 46c0-2.36 0.395-2.75 2.75-2.75s2.75 0.292 2.75 2.75-0.293 2.75-2.75 2.75-2.75-0.389-2.75-2.75z" stroke-width="1.09"/>
 <path d="m69.4 46c0-2.35 0.523-2.75 2.75-2.75s2.75 0.42 2.75 2.75-0.388 2.75-2.75 2.75-2.75-0.396-2.75-2.75z" stroke-width="1.09"/>
 <path d="m56.1 46c0-2.12 0.453-2.75 2.75-2.75s2.75 0.652 2.75 2.75-0.533 2.75-2.75 2.75-2.75-0.625-2.75-2.75z" stroke-width="1.09"/>
 <path d="m190 52.5c0-2.2 0.55-2.75 2.75-2.75s2.75 0.55 2.75 2.75-0.55 2.75-2.75 2.75-2.75-0.55-2.75-2.75z" stroke-width="1.09"/>
 <path d="m183 52.5c0-2.19 0.43-2.75 2.75-2.75s2.69 0.604 2.75 2.75-0.461 2.75-2.75 2.75-2.75-0.562-2.75-2.75z" stroke-width="1.09"/>
 <path d="m170 52.5c0-2.2 0.467-2.75 2.75-2.75 2.28 0 2.75 0.633 2.75 2.75s-0.557 2.75-2.75 2.75c-2.19 0-2.75-0.554-2.75-2.75z" stroke-width="1.09"/>
 <g stroke-width="1.09">
  <path d="m136 52.5c0-2.31 0.594-2.75 2.76-2.75 2.25 0 2.74 0.491 2.74 2.74 0 2.21-0.499 2.76-2.66 2.76-2.29 0-2.84-0.499-2.84-2.75z"/>
  <path d="m110 52.5c0-2.2 0.55-2.75 2.75-2.75s2.75 0.55 2.75 2.75-0.55 2.75-2.75 2.75-2.75-0.55-2.75-2.75z"/>
  <path d="m103 52.5c0-2.2 0.55-2.75 2.75-2.75s2.75 0.55 2.75 2.75-0.55 2.75-2.75 2.75-2.75-0.55-2.75-2.75z"/>
 </g>
 <path d="m96.3 52.5c0-2.26 0.406-2.75 2.75-2.75 2.34 0 2.75 0.524 2.75 2.75s-0.47 2.75-2.75 2.75c-2.28 0-2.75-0.485-2.75-2.75z" stroke-width="1.09"/>
 <g stroke-width="1.09">
  <path d="m89.8 52.5c0-2.2 0.55-2.75 2.75-2.75s2.75 0.55 2.75 2.75-0.55 2.75-2.75 2.75-2.75-0.55-2.75-2.75z"/>
  <path d="m83 52.5c0-2.44 0.274-2.75 2.75-2.75s2.75 0.403 2.75 2.75-0.332 2.75-2.75 2.75-2.75-0.307-2.75-2.75z"/>
  <path d="m56.1 52.5c0-2.04 0.647-2.67 2.54-2.72 1.89-0.0493 2.92 0.22 2.96 2.6 0.0417 2.38-0.981 2.93-2.87 2.9-1.89-0.037-2.63-0.741-2.63-2.78z"/>
 </g>
 <path d="m170 59c0-2.16 0.584-2.75 2.75-2.75s2.75 0.54 2.75 2.75c0 2.21-0.531 2.75-2.75 2.75s-2.75-0.592-2.75-2.75z" stroke-width="1.09"/>
 <g stroke-width="1.09">
  <path d="m136 59c0-2.26 0.527-2.75 2.75-2.75s2.75 0.551 2.75 2.75-0.457 2.75-2.75 2.75-2.75-0.49-2.75-2.75z"/>
  <path d="m130 59c0-2.32 0.428-2.75 2.75-2.75s2.75 0.428 2.75 2.75-0.428 2.75-2.75 2.75-2.75-0.428-2.75-2.75z"/>
  <path d="m110 59c0-2.15 0.629-2.75 2.75-2.75 2.22 0 2.75 0.507 2.75 2.75 0 2.25-0.465 2.75-2.75 2.75-2.22 0-2.75-0.555-2.75-2.75z"/>
 </g>
 <path d="m96.3 59c0-2.28 0.589-2.75 2.75-2.75 2.16 0 2.75 0.502 2.75 2.75s-0.49 2.75-2.75 2.75-2.75-0.467-2.75-2.75z" stroke-width="1.09"/>
 <path d="m89.8 59c0-2.32 0.428-2.75 2.75-2.75s2.75 0.428 2.75 2.75-0.428 2.75-2.75 2.75-2.75-0.428-2.75-2.75z" stroke-width="1.09"/>
 <path d="m76.2 59c0-2.41 0.488-2.75 2.75-2.75s2.75 0.418 2.75 2.75-0.405 2.75-2.75 2.75-2.75-0.342-2.75-2.75z" stroke-width="1.09"/>
 <path d="m62.8 59c0-2.22 0.604-2.75 2.75-2.75s2.75 0.699 2.75 2.75-0.532 2.75-2.75 2.75c-2.21 0-2.75-0.533-2.75-2.75z" stroke-width="1.09"/>
 <path d="m56.1 59.1c0-2.36 0.456-2.83 2.91-2.83 2.45 0 2.53 0.658 2.59 2.83 0.0522 2.17-0.443 2.67-2.59 2.67-2.14 0-2.91-0.307-2.91-2.67z" stroke-width="1.09"/>
 <path d="m49.8 59c0-2.16 0.575-2.75 2.75-2.75s2.75 0.629 2.75 2.75-0.591 2.75-2.75 2.75-2.75-0.592-2.75-2.75z" stroke-width="1.09"/>
 <path d="m43.2 59c0-2.1 0.677-2.75 2.75-2.75s2.75 0.631 2.75 2.75c0 2.12-0.629 2.75-2.75 2.75s-2.75-0.65-2.75-2.75z" stroke-width="1.09"/>
 <path d="m29.3 59c0-2.17 0.578-2.75 2.75-2.75s2.75 0.639 2.75 2.75-0.472 2.75-2.75 2.75-2.75-0.582-2.75-2.75z" stroke-width="1.09"/>
 <g stroke-width="1.09">
  <path d="m3 59c0-2.15 0.551-2.75 2.75-2.75s2.75 0.534 2.75 2.75-0.567 2.75-2.75 2.75-2.75-0.604-2.75-2.75z"/>
  <path d="m230 65.6c0-2.2 0.55-2.75 2.75-2.75s2.75 0.55 2.75 2.75-0.55 2.75-2.75 2.75-2.75-0.55-2.75-2.75z"/>
  <path d="m203 65.6c0-2.2 0.55-2.75 2.75-2.75s2.75 0.55 2.75 2.75-0.55 2.75-2.75 2.75-2.75-0.55-2.75-2.75z"/>
  <path d="m190 65.6c0-2.2 0.55-2.75 2.75-2.75s2.75 0.55 2.75 2.75-0.55 2.75-2.75 2.75-2.75-0.55-2.75-2.75z"/>
  <path d="m176 65.5c0-2.25 0.497-2.75 2.75-2.75s2.75 0.521 2.75 2.66-0.475 2.84-2.75 2.84-2.75-0.503-2.75-2.75z"/>
  <path d="m163 65.6c0-2.2 0.55-2.75 2.75-2.75s2.75 0.55 2.75 2.75-0.55 2.75-2.75 2.75-2.75-0.55-2.75-2.75z"/>
  <path d="m150 65.6c0-2.2 0.55-2.75 2.75-2.75s2.75 0.55 2.75 2.75-0.55 2.75-2.75 2.75-2.75-0.55-2.75-2.75z"/>
  <path d="m130 65.6c0-2.2 0.55-2.75 2.75-2.75s2.75 0.55 2.75 2.75-0.55 2.75-2.75 2.75-2.75-0.55-2.75-2.75z"/>
 </g>
 <path d="m123 65.6c0-2.28 0.386-2.75 2.75-2.75s2.75 0.605 2.75 2.75c0 2.15-0.507 2.75-2.75 2.75s-2.75-0.468-2.75-2.75z" stroke-width="1.09"/>
 <path d="m119 62.8c2.26 0 2.75 0.5 2.75 2.75s-0.474 2.75-2.75 2.75-2.75-0.558-2.75-2.75 0.487-2.75 2.75-2.75z" stroke-width="1.09"/>
 <path d="m49.8 65.6c0-2.2 0.55-2.75 2.75-2.75s2.75 0.55 2.75 2.75-0.55 2.75-2.75 2.75-2.75-0.55-2.75-2.75z" stroke-width="1.09"/>
 <path d="m29.3 65.6c0-2.17 0.592-2.75 2.75-2.75 2.16 0 2.75 0.519 2.75 2.75s-0.507 2.75-2.75 2.75c-2.24 0-2.75-0.576-2.75-2.75z" stroke-width="1.09"/>
 <path d="m22.8 65.6c0-2.2 0.55-2.75 2.75-2.75s2.75 0.55 2.75 2.75-0.55 2.75-2.75 2.75-2.75-0.55-2.75-2.75z" stroke-width="1.09"/>
 <path d="m176 72.2c0-2.3 0.551-2.75 2.75-2.75s2.75 0.536 2.75 2.75-0.567 2.75-2.75 2.75-2.75-0.445-2.75-2.75z" stroke-width="1.09"/>
 <path d="m170 72.1c-4e-3 -2.19 0.601-2.66 2.75-2.66s2.75 0.599 2.75 2.73-0.632 2.77-2.75 2.77-2.75-0.643-2.75-2.84z" stroke-width="1.09"/>
 <path d="m163 72.2c0-2.32 0.428-2.75 2.75-2.75s2.75 0.428 2.75 2.75-0.428 2.75-2.75 2.75-2.75-0.428-2.75-2.75z" stroke-width="1.09"/>
 <path d="m156 72.2c0-2.23 0.618-2.75 2.75-2.75 2.13 0 2.75 0.655 2.75 2.75s-0.492 2.75-2.75 2.75-2.75-0.525-2.75-2.75z" stroke-width="1.09"/>
 <path d="m150 72.2c0-2.15 0.667-2.75 2.75-2.75 2.08 0 2.75 0.512 2.75 2.75 0 2.24-0.601 2.75-2.75 2.75s-2.75-0.603-2.75-2.75z" stroke-width="1.09"/>
 <g stroke-width="1.09">
  <path d="m130 72.2c0-2.32 0.428-2.75 2.75-2.75s2.75 0.428 2.75 2.75-0.428 2.75-2.75 2.75-2.75-0.428-2.75-2.75z"/>
  <path d="m123 72.1c0-2.29 0.58-2.67 2.79-2.67s2.71 0.532 2.71 2.81-0.413 2.69-2.8 2.69-2.7-0.537-2.7-2.83z"/>
  <path d="m119 69.4c2.24 0 2.75 0.404 2.75 2.75s-0.482 2.75-2.75 2.75-2.75-0.564-2.75-2.75c2e-3 -2.19 0.512-2.75 2.75-2.75z"/>
 </g>
 <path d="m103 72c0-2.28 0.393-2.62 2.8-2.62 2.34 0 2.7 0.178 2.7 2.7 0 2.52-0.334 2.8-2.75 2.8-2.31 0-2.75-0.475-2.75-2.88z" stroke-width="1.09"/>
 <path d="m76.2 72.2c0-2.29 0.391-2.75 2.75-2.75s2.75 0.487 2.75 2.75-0.392 2.75-2.75 2.75-2.75-0.456-2.75-2.75z" stroke-width="1.09"/>
 <path d="m69.4 72.2c0-2.3 0.377-2.75 2.75-2.75s2.75 0.456 2.75 2.75-0.428 2.75-2.75 2.75-2.75-0.448-2.75-2.75z" stroke-width="1.09"/>
 <path d="m56.1 72.2c0-2.04 0.466-2.75 2.75-2.75s2.75 0.606 2.75 2.75-0.5 2.75-2.75 2.75-2.75-0.712-2.75-2.75z" stroke-width="1.09"/>
 <path d="m43.2 72.2c0-2.22 0.549-2.75 2.75-2.75s2.75 0.596 2.75 2.75-0.613 2.75-2.75 2.75-2.75-0.527-2.75-2.75z" stroke-width="1.09"/>
 <g stroke-width="1.09">
  <path d="m29.3 72.2c0-2.28 0.597-2.75 2.75-2.75s2.75 0.454 2.75 2.75-0.398 2.75-2.75 2.75-2.75-0.471-2.75-2.75z"/>
  <path d="m22.8 72.1c-0.0094-2.13 0.636-2.75 2.75-2.75s2.75 0.54 2.75 2.75-0.555 2.75-2.75 2.75-2.74-0.625-2.75-2.75z"/>
  <path d="m16.3 72.1c0.0064-2.15 0.622-2.75 2.75-2.75s2.75 0.587 2.75 2.75-0.502 2.75-2.75 2.75-2.76-0.603-2.75-2.75z"/>
 </g>
 <path d="m9.75 72.1c0-2.14 0.499-2.75 2.75-2.75s2.75 0.505 2.75 2.75-0.517 2.75-2.75 2.75-2.75-0.612-2.75-2.75z" stroke-width="1.09"/>
 <path d="m3 72.2c0-2.23 0.573-2.75 2.75-2.75s2.75 0.466 2.75 2.75c0 2.28-0.448 2.75-2.75 2.75s-2.75-0.524-2.75-2.75z" stroke-width="1.09"/>
 <path d="m156 79c0-2.24 0.629-2.75 2.75-2.75s2.75 0.539 2.75 2.75-0.583 2.75-2.75 2.75-2.75-0.506-2.75-2.75z" stroke-width="1.09"/>
 <g stroke-width="1.09">
  <path d="m150 79c0-2.32 0.428-2.75 2.75-2.75s2.75 0.428 2.75 2.75-0.428 2.75-2.75 2.75-2.75-0.428-2.75-2.75z"/>
  <path d="m143 79c0-2.33 0.478-2.75 2.75-2.75s2.75 0.448 2.75 2.75-0.483 2.75-2.75 2.75c-2.27 0-2.75-0.422-2.75-2.75z"/>
  <path d="m136 79c0-2.26 0.455-2.75 2.75-2.75s2.75 0.374 2.75 2.75-0.509 2.75-2.75 2.75-2.75-0.487-2.75-2.75z"/>
  <path d="m130 79c0-2.32 0.428-2.75 2.75-2.75s2.75 0.428 2.75 2.75-0.428 2.75-2.75 2.75-2.75-0.428-2.75-2.75z"/>
 </g>
 <path d="m116 79c0-2.25 0.54-2.75 2.75-2.75 2.16 0 2.75 0.561 2.75 2.75 0 2.17-0.624 2.75-2.75 2.75-2.16 0-2.75-0.608-2.75-2.75z" stroke-width="1.09"/>
 <g stroke-width="1.09">
  <path d="m110 79c0-2.32 0.428-2.75 2.75-2.75s2.75 0.428 2.75 2.75-0.428 2.75-2.75 2.75-2.75-0.428-2.75-2.75z"/>
  <path d="m103 79c0-2.32 0.428-2.75 2.75-2.75s2.75 0.428 2.75 2.75-0.428 2.75-2.75 2.75-2.75-0.428-2.75-2.75z"/>
  <path d="m83 79c0-2.35 0.345-2.75 2.75-2.75s2.75 0.424 2.75 2.75-0.482 2.75-2.75 2.75-2.75-0.396-2.75-2.75z"/>
  <path d="m76.2 79c0-2.34 0.458-2.75 2.75-2.75s2.75 0.401 2.75 2.75-0.442 2.75-2.75 2.75c-2.31 0-2.75-0.408-2.75-2.75z"/>
 </g>
 <path d="m29.3 79c0-2.28 0.532-2.75 2.75-2.75s2.75 0.44 2.75 2.75c0 2.31-0.617 2.75-2.75 2.75s-2.75-0.47-2.75-2.75z" stroke-width="1.09"/>
 <path d="m9.75 79c0-2.21 0.557-2.75 2.75-2.75s2.75 0.492 2.75 2.75-0.511 2.75-2.75 2.75-2.75-0.54-2.75-2.75z" stroke-width="1.09"/>
 <path d="m3 79c0-2.25 0.565-2.75 2.75-2.75s2.75 0.391 2.75 2.75-0.46 2.75-2.75 2.75c-2.29 0-2.75-0.501-2.75-2.75z" stroke-width="1.09"/>
 <path d="m183 85.9c0-2.28 0.619-2.76 2.75-2.75 2.13 7e-3 2.75 0.53 2.75 2.75s-0.656 2.75-2.75 2.75-2.75-0.47-2.75-2.75z" stroke-width="1.09"/>
 <path d="m150 85.9c0-2.38 0.438-2.75 2.75-2.75 2.31 0 2.75 0.463 2.75 2.75 0 2.29-0.53 2.75-2.75 2.75-2.22 0-2.75-0.372-2.75-2.75z" stroke-width="1.09"/>
 <path d="m143 85.9c0-2.26 0.44-2.75 2.75-2.75 2.31 0 2.75 0.51 2.75 2.75s-0.485 2.75-2.75 2.75c-2.26 0-2.75-0.492-2.75-2.75z" stroke-width="1.09"/>
 <path d="m136 85.9c0-2.3 0.5-2.75 2.75-2.75s2.75 0.453 2.75 2.75c0 2.3-0.28 2.75-2.75 2.75s-2.75-0.446-2.75-2.75z" stroke-width="1.09"/>
 <path d="m116 86.1c0-2.37 0.607-2.95 2.82-2.95 2.19 0 2.68 0.596 2.68 2.82 0 2.06-0.527 2.68-2.68 2.68-2.23 0-2.82-0.592-2.82-2.55z" stroke-width="1.09"/>
 <path d="m110 86.1c0-2.48 0.473-2.9 2.93-2.9 2.1 0 2.57 0.513 2.57 2.9 0 2.16-0.378 2.6-2.93 2.6-2 0-2.57-0.549-2.57-2.6z" stroke-width="1.09"/>
 <path d="m83 85.9c0-2.37 0.391-2.75 2.75-2.75 2.36 0 2.75 0.318 2.75 2.75s-0.436 2.75-2.75 2.75c-2.31 0-2.75-0.379-2.75-2.75z" stroke-width="1.09"/>
 <path d="m49.8 85.9c0-2.26 0.537-2.75 2.75-2.75s2.75 0.512 2.75 2.75-0.49 2.75-2.75 2.75-2.75-0.494-2.75-2.75z" stroke-width="1.09"/>
 <path d="m46 83.2c2.24 0 2.75 0.57 2.75 2.75s-0.603 2.75-2.75 2.75-2.75-0.594-2.75-2.75 0.517-2.75 2.75-2.75z" stroke-width="1.09"/>
 <path d="m36.6 85.9c0-2.12 0.692-2.75 2.74-2.75s2.76 0.512 2.76 2.75-0.609 2.75-2.76 2.75-2.74-0.633-2.74-2.75z" stroke-width="1.09"/>
 <path d="m29.3 85.9c0-2.21 0.664-2.75 2.75-2.75s2.75 0.544 2.75 2.75-0.642 2.75-2.75 2.75-2.75-0.538-2.75-2.75z" stroke-width="1.09"/>
 <path d="m22.8 85.9c0-2.17 0.616-2.75 2.75-2.75 2.13 0 2.75 0.527 2.75 2.75s-0.505 2.75-2.75 2.75c-2.24 0-2.75-0.583-2.75-2.75z" stroke-width="1.09"/>
 <g stroke-width="1.09">
  <path d="m223 92.5c0-2.32 0.428-2.75 2.75-2.75s2.75 0.428 2.75 2.75c0 2.32-0.428 2.75-2.75 2.75s-2.75-0.428-2.75-2.75z"/>
  <path d="m216 92.5c0-2.32 0.428-2.75 2.75-2.75 2.32 0 2.75 0.428 2.75 2.75 0 2.32-0.428 2.75-2.75 2.75-2.32 0-2.75-0.428-2.75-2.75z"/>
  <path d="m190 92.5c0-2.2 0.55-2.75 2.75-2.75s2.75 0.55 2.75 2.75-0.55 2.75-2.75 2.75-2.75-0.55-2.75-2.75z"/>
  <path d="m183 92.5c0-2.32 0.428-2.75 2.75-2.75s2.75 0.428 2.75 2.75c0 2.32-0.428 2.75-2.75 2.75s-2.75-0.428-2.75-2.75z"/>
  <path d="m176 92.5c0-2.32 0.428-2.75 2.75-2.75s2.75 0.428 2.75 2.75c0 2.32-0.428 2.75-2.75 2.75s-2.75-0.428-2.75-2.75z"/>
  <path d="m170 92.5c0-2.32 0.428-2.75 2.75-2.75s2.75 0.428 2.75 2.75c0 2.32-0.428 2.75-2.75 2.75s-2.75-0.428-2.75-2.75z"/>
  <path d="m163 92.5c0-2.2 0.55-2.75 2.75-2.75s2.75 0.55 2.75 2.75-0.55 2.75-2.75 2.75-2.75-0.55-2.75-2.75z"/>
  <path d="m56.1 92.5c0-2.32 0.473-2.75 2.75-2.75s2.75 0.428 2.75 2.75-0.455 2.75-2.75 2.75-2.75-0.428-2.75-2.75z"/>
  <path d="m49.8 92.5c0-2.2 0.55-2.75 2.75-2.75s2.75 0.55 2.75 2.75-0.55 2.75-2.75 2.75-2.75-0.55-2.75-2.75z"/>
  <path d="m36.6 92.5c0-2.12 0.637-2.75 2.75-2.75s2.75 0.621 2.75 2.75-0.428 2.75-2.75 2.75-2.75-0.625-2.75-2.75z"/>
  <path d="m16.3 92.5c0-2.13 0.525-2.75 2.75-2.75s2.75 0.621 2.75 2.75-0.481 2.75-2.75 2.75-2.75-0.624-2.75-2.75z"/>
  <path d="m9.75 92.5c0-2.2 0.55-2.75 2.75-2.75s2.75 0.55 2.75 2.75c0 2.2-0.55 2.75-2.75 2.75s-2.75-0.55-2.75-2.75z"/>
  <path d="m196 99.1c0-2.2 0.55-2.75 2.75-2.75s2.75 0.55 2.75 2.75-0.55 2.75-2.75 2.75-2.75-0.55-2.75-2.75z"/>
 </g>
 <path d="m186 96.4c2.24 1e-6 2.75 0.552 2.75 2.75 0 2.2-0.39 2.75-2.75 2.75s-2.75-0.578-2.75-2.75c0-2.17 0.505-2.75 2.75-2.75z" stroke-width="1.09"/>
 <path d="m163 99.1c0-2.32 0.565-2.75 2.75-2.75s2.75 0.428 2.75 2.75c0 2.32-0.428 2.75-2.75 2.75s-2.75-0.428-2.75-2.75z" stroke-width="1.09"/>
 <path d="m83 99.1c-0.0188-2.34 0.395-2.75 2.75-2.75s2.75 0.39 2.75 2.75c0 2.36-0.272 2.75-2.75 2.75s-2.73-0.407-2.75-2.75z" stroke-width="1.09"/>
 <path d="m76.2 99c0-2.68 0.847-2.67 2.84-2.67s2.66 0.192 2.66 2.81-0.667 2.69-2.67 2.69-2.83-0.144-2.83-2.83z" stroke-width="1.09"/>
 <path d="m69.4 99.1c0-2.21 0.565-2.75 2.75-2.75s2.75 0.631 2.75 2.75c0 2.12-0.474 2.75-2.75 2.75s-2.75-0.545-2.75-2.75z" stroke-width="1.09"/>
 <path d="m49.8 99.1c0-2.24 0.522-2.75 2.75-2.75s2.75 0.575 2.75 2.75c0 2.18-0.456 2.75-2.75 2.75s-2.75-0.51-2.75-2.75z" stroke-width="1.09"/>
 <path d="m43.2 99.1c0-2.15 0.554-2.75 2.76-2.75 2.21 0 2.74 0.54 2.74 2.75 0 2.21-0.477 2.75-2.74 2.75-2.26 0-2.76-0.603-2.76-2.75z" stroke-width="1.1"/>
 <path d="m36.6 99.1c0-2.19 0.55-2.75 2.75-2.75s2.75 0.486 2.75 2.75c0 2.27-0.627 2.75-2.75 2.75s-2.75-0.555-2.75-2.75z" stroke-width="1.09"/>
 <path d="m29.3 99.1c0-2.13 0.387-2.75 2.75-2.75s2.75 0.48 2.75 2.75-0.347 2.75-2.75 2.75-2.75-0.622-2.75-2.75z" stroke-width="1.09"/>
 <path d="m16.3 99.1c0-2.14 0.638-2.75 2.83-2.75s2.67 0.601 2.67 2.75c0 2.15-0.603 2.75-2.77 2.75s-2.73-0.609-2.73-2.75z" stroke-width="1.09"/>
 <g stroke-width="1.09">
  <path d="m243 106c0-2.2 0.55-2.75 2.75-2.75s2.75 0.55 2.75 2.75c0 2.2-0.55 2.75-2.75 2.75s-2.75-0.55-2.75-2.75z"/>
  <path d="m230 106c0-2.2 0.55-2.75 2.75-2.75s2.75 0.55 2.75 2.75c0 2.2-0.55 2.75-2.75 2.75s-2.75-0.55-2.75-2.75z"/>
  <path d="m216 106c0-2.32 0.428-2.75 2.75-2.75 2.32 0 2.75 0.428 2.75 2.75 0 2.32-0.428 2.75-2.75 2.75-2.32 0-2.75-0.428-2.75-2.75z"/>
  <path d="m210 105c0-2.27 1.29-2.42 2.99-2.42s2.51 0.378 2.51 2.7c0 2.32-0.416 2.8-2.84 2.8s-2.66-0.805-2.66-3.08z"/>
  <path d="m190 106c0-2.2 0.55-2.75 2.75-2.75s2.75 0.55 2.75 2.75c0 2.2-0.55 2.75-2.75 2.75s-2.75-0.55-2.75-2.75z"/>
 </g>
 <path d="m183 106c0-2.22 0.413-2.75 2.75-2.75 2.34 0 2.75 0.379 2.75 2.75s-0.389 2.75-2.75 2.75-2.75-0.531-2.75-2.75z" stroke-width="1.09"/>
 <g stroke-width="1.09">
  <path d="m176 106c0-2.32 0.428-2.75 2.75-2.75s2.75 0.428 2.75 2.75c0 2.32-0.428 2.75-2.75 2.75s-2.75-0.428-2.75-2.75z"/>
  <path d="m163 106c0-2.2 0.55-2.75 2.75-2.75s2.75 0.55 2.75 2.75c0 2.2-0.55 2.75-2.75 2.75s-2.75-0.55-2.75-2.75z"/>
  <path d="m76.2 106c0-2.32 0.428-2.75 2.75-2.75 2.32 0 2.75 0.428 2.75 2.75 0 2.32-0.428 2.75-2.75 2.75-2.32 0-2.75-0.428-2.75-2.75z"/>
  <path d="m62.8 106c0-2.2 0.55-2.75 2.75-2.75s2.75 0.55 2.75 2.75-0.55 2.75-2.75 2.75-2.75-0.55-2.75-2.75z"/>
 </g>
 <path d="m56.1 106c0-2.39 0.355-2.75 2.75-2.75 2.39 0 2.75 0.493 2.75 2.75s-0.446 2.75-2.75 2.75c-2.3 0-2.75-0.362-2.75-2.75z" stroke-width="1.09"/>
 <g stroke-width="1.09">
  <path d="m49.8 106c0-2.2 0.55-2.75 2.75-2.75s2.75 0.55 2.75 2.75c0 2.2-0.55 2.75-2.75 2.75s-2.75-0.55-2.75-2.75z"/>
  <path d="m36.6 106c0-2.32 0.428-2.75 2.75-2.75s2.75 0.428 2.75 2.75c0 2.32-0.428 2.75-2.75 2.75s-2.75-0.428-2.75-2.75z"/>
  <path d="m22.8 106c0-2.2 0.481-2.75 2.75-2.75s2.75 0.55 2.75 2.75-0.452 2.75-2.75 2.75-2.75-0.55-2.75-2.75z"/>
  <path d="m243 112c0-2.2 0.55-2.75 2.75-2.75s2.75 0.55 2.75 2.75-0.55 2.75-2.75 2.75-2.75-0.55-2.75-2.75z"/>
  <path d="m230 112c0-2.2 0.55-2.75 2.75-2.75s2.75 0.55 2.75 2.75-0.55 2.75-2.75 2.75-2.75-0.55-2.75-2.75z"/>
  <path d="m216 112c0-2.32 0.428-2.75 2.75-2.75 2.32 0 2.75 0.428 2.75 2.75s-0.428 2.75-2.75 2.75c-2.32 0-2.75-0.428-2.75-2.75z"/>
  <path d="m203 112c0-2.2 0.55-2.75 2.75-2.75s2.75 0.55 2.75 2.75-0.55 2.75-2.75 2.75-2.75-0.55-2.75-2.75z"/>
  <path d="m190 112c0-2.2 0.55-2.75 2.75-2.75s2.75 0.55 2.75 2.75-0.55 2.75-2.75 2.75-2.75-0.55-2.75-2.75z"/>
  <path d="m176 112c0-2.32 0.428-2.75 2.75-2.75s2.75 0.428 2.75 2.75-0.428 2.75-2.75 2.75-2.75-0.428-2.75-2.75z"/>
  <path d="m170 112c0-2.22 0.61-2.75 2.75-2.75s2.75 0.638 2.75 2.75-0.515 2.75-2.75 2.75-2.75-0.533-2.75-2.75z"/>
  <path d="m163 112c0-2.2 0.55-2.75 2.75-2.75s2.75 0.55 2.75 2.75-0.55 2.75-2.75 2.75-2.75-0.55-2.75-2.75z"/>
  <path d="m83 113c0-2.41 0.343-2.87 2.71-2.87s2.79 0.479 2.79 2.85-0.318 2.65-2.69 2.65-2.81-0.227-2.81-2.63z"/>
 </g>
 <path d="m69.4 112c0-2.3 0.452-2.75 2.75-2.75s2.75 0.47 2.75 2.75-0.508 2.75-2.75 2.75-2.75-0.45-2.75-2.75z" stroke-width="1.09"/>
 <path d="m62.8 112c0-2.2 0.55-2.75 2.75-2.75s2.75 0.55 2.75 2.75-0.55 2.75-2.75 2.75-2.75-0.55-2.75-2.75z" stroke-width="1.09"/>
 <path d="m56.1 112c0-2.48 0.268-2.75 2.75-2.75s2.75 0.299 2.75 2.75-0.241 2.75-2.75 2.75-2.75-0.266-2.75-2.75z" stroke-width="1.09"/>
 <path d="m43.2 112c0-2.14 0.558-2.75 2.75-2.75s2.75 0.54 2.75 2.75-0.517 2.75-2.75 2.75-2.75-0.611-2.75-2.75z" stroke-width="1.09"/>
 <path d="m29.3 112c0.0028-2.27 0.487-2.75 2.75-2.75s2.75 0.424 2.75 2.75-0.284 2.73-2.75 2.75-2.75-0.479-2.75-2.75z" stroke-width="1.09"/>
 <path d="m16.3 113c-8.9e-5 -2.01 0.623-2.76 2.75-2.76 2.13 0 2.75 0.643 2.75 2.76 0 2.11-0.508 2.74-2.75 2.74-2.24 0-2.75-0.73-2.75-2.74z" stroke-width="1.09"/>
 <path d="m9.75 112c0-2.2 0.55-2.75 2.75-2.75s2.75 0.55 2.75 2.75-0.55 2.75-2.75 2.75-2.75-0.55-2.75-2.75z" stroke-width="1.09"/>
 <path d="m170 119c0-2.26 0.502-2.75 2.75-2.75s2.75 0.569 2.75 2.75c0 2.18-0.508 2.75-2.75 2.75s-2.75-0.49-2.75-2.75z" stroke-width="1.09"/>
 <path d="m83 119c0-2.42 0.337-2.75 2.75-2.75s2.75 0.376 2.75 2.75-0.342 2.75-2.75 2.75-2.75-0.331-2.75-2.75z" stroke-width="1.09"/>
 <path d="m76.2 119c0-2.36 0.455-2.75 2.75-2.75s2.75 0.52 2.75 2.75-0.452 2.75-2.75 2.75-2.75-0.39-2.75-2.75z" stroke-width="1.09"/>
 <path d="m36.6 119c0-2.17 0.628-2.75 2.75-2.75 2.12 0 2.74 0.606 2.75 2.75 0.0091 2.14-0.605 2.77-2.75 2.75-2.14-0.0221-2.75-0.581-2.75-2.75z" stroke-width="1.09"/>
 <path d="m29.3 119c0-2.28 0.459-2.75 2.75-2.75s2.75 0.487 2.75 2.75c0 2.26-0.395 2.75-2.75 2.75s-2.75-0.473-2.75-2.75z" stroke-width="1.09"/>
 <path d="m16.3 119c0-2.15 0.638-2.75 2.75-2.75s2.75 0.495 2.75 2.75-0.585 2.75-2.75 2.75c-2.17 0-2.75-0.599-2.75-2.75z" stroke-width="1.09"/>
 <path d="m9.75 119c0-2.18 0.581-2.75 2.75-2.75 2.17 0 2.75 0.585 2.75 2.75s-0.512 2.75-2.75 2.75-2.75-0.573-2.75-2.75z" stroke-width="1.09"/>
 <path d="m3 119c0-2.29 0.554-2.75 2.75-2.75s2.75 0.498 2.75 2.75-0.46 2.75-2.75 2.75-2.75-0.459-2.75-2.75z" stroke-width="1.09"/>
 <path d="m203 126c0-2.2 0.55-2.75 2.75-2.75s2.75 0.55 2.75 2.75-0.55 2.75-2.75 2.75-2.75-0.55-2.75-2.75z" stroke-width="1.09"/>
 <path d="m170 126c0-2.31 0.529-2.75 2.75-2.75s2.75 0.45 2.75 2.75c0 2.3-0.431 2.75-2.75 2.75s-2.75-0.438-2.75-2.75z" stroke-width="1.09"/>
 <path d="m83 126c0-2.33 0.427-2.75 2.75-2.75s2.75 0.439 2.75 2.75c0 2.31-0.378 2.75-2.75 2.75s-2.75-0.421-2.75-2.75z" stroke-width="1.09"/>
 <path d="m69.4 126c0 2.34 0.413 2.75 2.75 2.75s2.73-0.395 2.75-2.75c0.0169-2.36-0.42-2.75-2.75-2.75s-2.75 0.412-2.75 2.75z" stroke-width="1.09"/>
 <path d="m62.8 126c0-2.25 0.531-2.75 2.75-2.75s2.75 0.439 2.75 2.75-0.509 2.75-2.75 2.75-2.75-0.503-2.75-2.75z" stroke-width="1.09"/>
 <path d="m56.1 126c0-2.44 0.354-2.75 2.75-2.75s2.75 0.337 2.75 2.75-0.367 2.75-2.75 2.75-2.75-0.311-2.75-2.75z" stroke-width="1.09"/>
 <path d="m43.2 126c0-2.31 0.493-2.75 2.75-2.75s2.75 0.551 2.75 2.75-0.439 2.75-2.75 2.75-2.75-0.441-2.75-2.75z" stroke-width="1.09"/>
 <path d="m36.6 126c0-2.17 0.575-2.75 2.75-2.75 2.18 0 2.75 0.465 2.75 2.75 0 2.29-0.453 2.75-2.75 2.75-2.3 0-2.75-0.58-2.75-2.75z" stroke-width="1.09"/>
 <path d="m22.8 126c0-2.15 0.579-2.76 2.75-2.76 2.17 0 2.75 0.589 2.75 2.76s-0.511 2.74-2.75 2.74c-2.24 0-2.75-0.589-2.75-2.74z" stroke-width="1.09"/>
 <path d="m16.3 126c0-2.13 0.676-2.75 2.75-2.75s2.75 0.612 2.75 2.75-0.529 2.75-2.75 2.75-2.75-0.618-2.75-2.75z" stroke-width="1.09"/>
 <path d="m9.75 126c0-2.13 0.584-2.75 2.75-2.75 2.17 0 2.75 0.559 2.75 2.75s-0.455 2.75-2.75 2.75c-2.29 0-2.75-0.617-2.75-2.75z" stroke-width="1.09"/>
 <g stroke-width="1.09">
  <path d="m236 132c0-2.32 0.428-2.75 2.75-2.75s2.75 0.428 2.75 2.75-0.428 2.75-2.75 2.75-2.75-0.428-2.75-2.75z"/>
  <path d="m230 132c0-2.2 0.55-2.75 2.75-2.75s2.75 0.55 2.75 2.75-0.55 2.75-2.75 2.75-2.75-0.55-2.75-2.75z"/>
  <path d="m223 132c0-2.32 0.428-2.75 2.75-2.75s2.75 0.428 2.75 2.75-0.428 2.75-2.75 2.75-2.75-0.428-2.75-2.75z"/>
  <path d="m203 132c0-2.2 0.55-2.75 2.75-2.75s2.75 0.55 2.75 2.75-0.55 2.75-2.75 2.75-2.75-0.55-2.75-2.75z"/>
  <path d="m196 132c0-2.32 0.428-2.75 2.75-2.75s2.75 0.428 2.75 2.75-0.428 2.75-2.75 2.75-2.75-0.428-2.75-2.75z"/>
  <path d="m190 132c0-2.2 0.55-2.75 2.75-2.75s2.75 0.55 2.75 2.75-0.55 2.75-2.75 2.75-2.75-0.55-2.75-2.75z"/>
  <path d="m183 132c0-2.32 0.428-2.75 2.75-2.75s2.75 0.428 2.75 2.75-0.428 2.75-2.75 2.75-2.75-0.428-2.75-2.75z"/>
  <path d="m176 132c0-2.32 0.428-2.75 2.75-2.75s2.75 0.428 2.75 2.75-0.428 2.75-2.75 2.75-2.75-0.428-2.75-2.75z"/>
  <path d="m163 132c0-2.2 0.55-2.75 2.75-2.75s2.75 0.55 2.75 2.75-0.55 2.75-2.75 2.75-2.75-0.55-2.75-2.75z"/>
  <path d="m76.2 132c0-2.32 0.428-2.75 2.75-2.75 2.32 0 2.75 0.428 2.75 2.75s-0.428 2.75-2.75 2.75c-2.32 0-2.75-0.428-2.75-2.75z"/>
  <path d="m36.6 132c0-2.32 0.428-2.75 2.75-2.75s2.75 0.428 2.75 2.75-0.428 2.75-2.75 2.75-2.75-0.427-2.75-2.75z"/>
  <path d="m16.3 132c0-2.16 0.622-2.75 2.75-2.75s2.75 0.574 2.75 2.75-0.558 2.75-2.75 2.75-2.75-0.594-2.75-2.75z"/>
  <path d="m9.75 132c0-2.2 0.55-2.75 2.75-2.75s2.75 0.55 2.75 2.75-0.55 2.75-2.75 2.75-2.75-0.55-2.75-2.75z"/>
  <path d="m3 132c0-2.2 0.55-2.75 2.75-2.75s2.75 0.55 2.75 2.75-0.55 2.75-2.75 2.75-2.75-0.55-2.75-2.75z"/>
  <path d="m163 139c0-2.32 0.428-2.75 2.75-2.75s2.75 0.428 2.75 2.75c0 2.32-0.428 2.75-2.75 2.75s-2.75-0.428-2.75-2.75z"/>
  <path d="m83 139c0-2.33 0.493-2.75 2.75-2.75s2.75 0.484 2.75 2.75-0.504 2.75-2.75 2.75-2.75-0.42-2.75-2.75z"/>
 </g>
 <path d="m62.8 139c0-2.32 0.639-2.75 2.75-2.75 2.11 0 2.75 0.343 2.75 2.75s-0.522 2.75-2.75 2.75c-2.23 0-2.75-0.429-2.75-2.75z" stroke-width="1.09"/>
 <path d="m49.8 139c-0.0047-2.36 0.495-2.74 2.75-2.76 2.26-0.0177 2.75 0.427 2.75 2.76s-0.494 2.72-2.75 2.74-2.75-0.385-2.75-2.74z" stroke-width="1.09"/>
 <path d="m43.2 139c0-2.27 0.527-2.76 2.75-2.75 2.22 6e-3 2.75 0.467 2.75 2.75s-0.503 2.75-2.75 2.75-2.75-0.484-2.75-2.75z" stroke-width="1.09"/>
 <path d="m29.3 139c0-2.12 0.676-2.75 2.75-2.75s2.75 0.562 2.75 2.75-0.51 2.75-2.75 2.75-2.75-0.636-2.75-2.75z" stroke-width="1.09"/>
 <path d="m22.8 139c0-2.17 0.535-2.74 2.75-2.74 2.21 0 2.75 0.566 2.75 2.74 0 2.18-0.533 2.76-2.75 2.76-2.22 0-2.75-0.589-2.75-2.76z" stroke-width="1.09"/>
 <path d="m176 146c0-2.22 0.573-2.75 2.75-2.75s2.75 0.468 2.75 2.75c0 2.28-0.399 2.75-2.75 2.75-2.35 0-2.75-0.532-2.75-2.75z" stroke-width="1.09"/>
 <path d="m83 146c0-2.37 0.481-2.75 2.75-2.75s2.75 0.45 2.75 2.75c0 2.3-0.478 2.75-2.75 2.75s-2.75-0.38-2.75-2.75z" stroke-width="1.09"/>
 <path d="m69.4 146c0-2.19 0.662-2.75 2.75-2.75s2.73 0.535 2.75 2.75c0.0172 2.21-0.463 2.75-2.75 2.75s-2.75-0.565-2.75-2.75z" stroke-width="1.09"/>
 <path d="m62.8 146c0-2.13 0.646-2.75 2.75-2.75s2.75 0.458 2.75 2.75c0 2.29-0.525 2.75-2.75 2.75s-2.75-0.621-2.75-2.75z" stroke-width="1.09"/>
 <path d="m56.1 146c0-2.34 0.329-2.75 2.75-2.75s2.75 0.33 2.75 2.75c0 2.42-0.37 2.75-2.75 2.75s-2.75-0.406-2.75-2.75z" stroke-width="1.09"/>
 <path d="m49.8 146c0-2.32 0.337-2.74 2.75-2.74 2.41 0 2.75 0.432 2.75 2.74 0 2.31-0.399 2.76-2.75 2.76s-2.75-0.44-2.75-2.76z" stroke-width="1.09"/>
 <path d="m36.6 146c0-2.17 0.617-2.75 2.75-2.75s2.75 0.495 2.75 2.75c0 2.26-0.599 2.75-2.75 2.75s-2.75-0.578-2.75-2.75z" stroke-width="1.09"/>
 <path d="m22.8 146c0-2.28 0.548-2.75 2.75-2.75 2.2 0 2.75 0.487 2.75 2.75s-0.563 2.75-2.75 2.75-2.75-0.466-2.75-2.75z" stroke-width="1.09"/>
 <path d="m9.75 146c0-2.17 0.592-2.75 2.75-2.75s2.75 0.536 2.75 2.75c0 2.21-0.545 2.75-2.75 2.75s-2.75-0.581-2.75-2.75z" stroke-width="1.09"/>
 <g stroke-width="1.09">
  <path d="m230 153c0-2.2 0.55-2.75 2.75-2.75s2.75 0.55 2.75 2.75-0.55 2.75-2.75 2.75-2.75-0.55-2.75-2.75z"/>
  <path d="m216 153c0-2.32 0.428-2.75 2.75-2.75 2.32 0 2.75 0.428 2.75 2.75s-0.428 2.75-2.75 2.75c-2.32 0-2.75-0.428-2.75-2.75z"/>
  <path d="m203 153c0-2.2 0.55-2.75 2.75-2.75s2.75 0.55 2.75 2.75-0.55 2.75-2.75 2.75-2.75-0.55-2.75-2.75z"/>
  <path d="m176 153c0-2.32 0.428-2.75 2.75-2.75s2.75 0.428 2.75 2.75-0.428 2.75-2.75 2.75-2.75-0.428-2.75-2.75z"/>
 </g>
 <path d="m170 153c-4e-3 -2.3 0.521-2.75 2.75-2.75 2.23 0 2.75 0.472 2.75 2.75s-0.488 2.75-2.75 2.75c-2.26 0-2.75-0.45-2.75-2.75z" stroke-width="1.09"/>
 <g stroke-width="1.09">
  <path d="m163 153c0-2.2 0.55-2.75 2.75-2.75s2.75 0.55 2.75 2.75-0.55 2.75-2.75 2.75-2.75-0.55-2.75-2.75z"/>
  <path d="m83 153c0-2.35 0.358-2.75 2.75-2.75s2.75 0.491 2.75 2.75-0.429 2.75-2.75 2.75-2.75-0.404-2.75-2.75z"/>
  <path d="m76.2 153c0-2.32 0.428-2.75 2.75-2.75 2.32 0 2.75 0.428 2.75 2.75s-0.428 2.75-2.75 2.75c-2.32 0-2.75-0.428-2.75-2.75z"/>
 </g>
 <path d="m69.4 153c0-2.37 0.386-2.75 2.75-2.75s2.75 0.329 2.75 2.75-0.286 2.75-2.75 2.75c-2.46-2e-3 -2.75-0.381-2.75-2.75z" stroke-width="1.09"/>
 <path d="m62.8 153c0-2.2 0.55-2.75 2.75-2.75s2.75 0.55 2.75 2.75-0.55 2.75-2.75 2.75-2.75-0.55-2.75-2.75z" stroke-width="1.09"/>
 <path d="m43.2 153c0-2.24 0.547-2.75 2.75-2.75s2.75 0.406 2.75 2.75-0.564 2.75-2.83 2.75c-2.27 0-2.67-0.506-2.67-2.75z" stroke-width="1.09"/>
 <path d="m29.3 153c0-2.2 0.619-2.74 2.75-2.75 2.13-0.0103 2.75 0.497 2.75 2.75s-0.403 2.75-2.75 2.75-2.75-0.553-2.75-2.75z" stroke-width="1.09"/>
 <g stroke-width="1.09">
  <path d="m22.8 153c0-2.2 0.55-2.75 2.75-2.75s2.75 0.55 2.75 2.75-0.55 2.75-2.75 2.75-2.75-0.55-2.75-2.75z"/>
  <path d="m3 153c0-2.2 0.55-2.75 2.75-2.75s2.75 0.55 2.75 2.75-0.55 2.75-2.75 2.75-2.75-0.55-2.75-2.75z"/>
  <path d="m170 159c0-2.28 0.426-2.78 2.76-2.78s2.74 0.447 2.74 2.7-0.507 2.8-2.75 2.8-2.75-0.445-2.75-2.72z"/>
 </g>
 <path d="m83 159c0-2.45 0.462-2.75 2.75-2.75s2.75 0.4 2.75 2.75c0 2.35-0.291 2.75-2.75 2.75s-2.75-0.302-2.75-2.75z" stroke-width="1.09"/>
 <path d="m69.4 159c0-2.23 0.467-2.75 2.75-2.75s2.75 0.42 2.75 2.75-0.464 2.75-2.75 2.75-2.75-0.522-2.75-2.75z" stroke-width="1.1"/>
 <path d="m62.8 159c0-2.26 0.465-2.75 2.75-2.75 2.29 0 2.75 0.399 2.75 2.75s-0.423 2.75-2.75 2.75c-2.33 0-2.75-0.49-2.75-2.75z" stroke-width="1.1"/>
 <path d="m36.6 159c0-2.2 0.582-2.76 2.75-2.76 2.17 0 2.75 0.557 2.75 2.76 0 2.2-0.516 2.74-2.75 2.74-2.24 0-2.75-0.54-2.75-2.74z" stroke-width="1.09"/>
 <path d="m29.3 159c0-2.28 0.577-2.75 2.75-2.75s2.75 0.568 2.75 2.75c0 2.18-0.572 2.75-2.75 2.75s-2.75-0.463-2.75-2.75z" stroke-width="1.09"/>
 <path d="m22.8 159c0-2.35 0.528-2.75 2.75-2.75 2.22 0 2.75 0.498 2.75 2.75 0 2.25-0.523 2.74-2.75 2.75-2.22 8e-3 -2.75-0.402-2.75-2.75z" stroke-width="1.09"/>
 <path d="m9.75 159c0-2.19 0.608-2.75 2.75-2.75s2.75 0.545 2.75 2.75-0.659 2.75-2.75 2.75-2.75-0.557-2.75-2.75z" stroke-width="1.09"/>
 <path d="m3 159c0-2.18 0.58-2.75 2.75-2.75s2.75 0.432 2.75 2.75c0 2.32-0.515 2.75-2.75 2.75s-2.75-0.567-2.75-2.75z" stroke-width="1.09"/>
 <g stroke-width="1.09">
  <path d="m230 166c0-2.2 0.55-2.75 2.75-2.75s2.75 0.55 2.75 2.75-0.55 2.75-2.75 2.75-2.75-0.55-2.75-2.75z"/>
  <path d="m223 166c0-2.32 0.428-2.75 2.75-2.75s2.75 0.428 2.75 2.75c0 2.32-0.428 2.75-2.75 2.75s-2.75-0.428-2.75-2.75z"/>
  <path d="m216 166c0-2.32 0.428-2.75 2.75-2.75 2.32 0 2.75 0.428 2.75 2.75 0 2.32-0.428 2.75-2.75 2.75-2.32 0-2.75-0.428-2.75-2.75z"/>
  <path d="m196 166c0-2.32 0.428-2.75 2.75-2.75s2.75 0.428 2.75 2.75c0 2.32-0.428 2.75-2.75 2.75s-2.75-0.428-2.75-2.75z"/>
  <path d="m170 166c0-2.32 0.428-2.75 2.75-2.75s2.75 0.428 2.75 2.75c0 2.32-0.428 2.75-2.75 2.75s-2.75-0.428-2.75-2.75z"/>
  <path d="m156 166c0-2.32 0.428-2.75 2.75-2.75s2.75 0.428 2.75 2.75c0 2.32-0.428 2.75-2.75 2.75s-2.75-0.428-2.75-2.75z"/>
  <path d="m136 166c0-2.32 0.428-2.75 2.75-2.75s2.75 0.428 2.75 2.75c0 2.32-0.428 2.75-2.75 2.75s-2.75-0.428-2.75-2.75z"/>
  <path d="m156 179c0-2.2 0.55-2.75 2.75-2.75s2.75 0.55 2.75 2.75-0.55 2.75-2.75 2.75-2.75-0.55-2.75-2.75z"/>
  <path d="m130 166c0-2.2 0.55-2.75 2.75-2.75s2.75 0.55 2.75 2.75-0.55 2.75-2.75 2.75-2.75-0.55-2.75-2.75z"/>
  <path d="m110 166c0-2.25 0.452-2.75 2.75-2.75s2.75 0.429 2.75 2.75-0.41 2.75-2.75 2.75-2.75-0.499-2.75-2.75z"/>
  <path d="m103 166c0-2.2 0.55-2.75 2.75-2.75s2.75 0.55 2.75 2.75-0.55 2.75-2.75 2.75-2.75-0.55-2.75-2.75z"/>
  <path d="m96.3 166c0-2.32 0.428-2.75 2.75-2.75 2.32 0 2.75 0.428 2.75 2.75 0 2.32-0.428 2.75-2.75 2.75-2.32 0-2.75-0.428-2.75-2.75z"/>
  <path d="m83 166c0-2.32 0.428-2.75 2.75-2.75s2.75 0.428 2.75 2.75c0 2.32-0.428 2.75-2.75 2.75s-2.75-0.428-2.75-2.75z"/>
  <path d="m56.1 166c0-2.32 0.428-2.75 2.75-2.75 2.32 0 2.75 0.428 2.75 2.75 0 2.32-0.428 2.75-2.75 2.75-2.32 0-2.75-0.428-2.75-2.75z"/>
  <path d="m49.8 166c0-2.2 0.55-2.75 2.75-2.75s2.75 0.55 2.75 2.75-0.55 2.75-2.75 2.75-2.75-0.55-2.75-2.75z"/>
  <path d="m43.2 166c0-2.32 0.428-2.75 2.75-2.75s2.75 0.428 2.75 2.75c0 2.32-0.428 2.75-2.75 2.75s-2.75-0.428-2.75-2.75z"/>
  <path d="m29.3 166c0-2.32 0.306-2.75 2.75-2.75s2.75 0.428 2.75 2.75c0 2.32-0.306 2.75-2.75 2.75s-2.75-0.428-2.75-2.75z"/>
  <path d="m16.3 166c0-2.32 0.428-2.75 2.75-2.75s2.75 0.428 2.75 2.75c0 2.32-0.428 2.75-2.75 2.75s-2.75-0.428-2.75-2.75z"/>
  <path d="m230 172c0-2.32 0.428-2.75 2.75-2.75s2.75 0.428 2.75 2.75c0 2.32-0.428 2.75-2.75 2.75s-2.75-0.428-2.75-2.75z"/>
  <path d="m176 172c0-2.27 0.493-2.75 2.75-2.75s2.75 0.466 2.75 2.75-0.494 2.75-2.75 2.75c-2.26 0-2.75-0.484-2.75-2.75z"/>
  <path d="m163 172c0-2.32 0.428-2.75 2.75-2.75s2.75 0.428 2.75 2.75c0 2.32-0.428 2.75-2.75 2.75s-2.75-0.428-2.75-2.75z"/>
  <path d="m150 172c0-2.06 0.556-2.75 2.75-2.75s2.74 0.648 2.74 2.75-0.578 2.75-2.74 2.75-2.75-0.691-2.75-2.75z"/>
 </g>
 <path d="m143 172c0-2.13 0.614-2.75 2.75-2.75 2.14 0 2.75 0.596 2.75 2.75s-0.523 2.75-2.75 2.75c-2.23 0-2.75-0.624-2.75-2.75z" stroke-width="1.09"/>
 <path d="m130 172c0-2.32 0.428-2.75 2.75-2.75s2.75 0.428 2.75 2.75c0 2.32-0.428 2.75-2.75 2.75s-2.75-0.428-2.75-2.75z" stroke-width="1.09"/>
 <path d="m156 186c0-2.32 0.428-2.75 2.75-2.75s2.75 0.428 2.75 2.75c0 2.32-0.428 2.75-2.75 2.75s-2.75-0.428-2.75-2.75z" stroke-width="1.09"/>
 <path d="m123 172c0-2.25 0.403-2.75 2.75-2.75 2.35 0 2.75 0.573 2.75 2.75s-0.466 2.75-2.75 2.75-2.75-0.499-2.75-2.75z" stroke-width="1.09"/>
 <path d="m89.8 172c0-2.32 0.428-2.75 2.75-2.75s2.75 0.428 2.75 2.75c0 2.32-0.428 2.75-2.75 2.75s-2.75-0.428-2.75-2.75z" stroke-width="1.09"/>
 <path d="m76.2 172c0-2.3 0.515-2.75 2.75-2.75s2.75 0.489 2.75 2.75-0.476 2.75-2.75 2.75-2.75-0.446-2.75-2.75z" stroke-width="1.09"/>
 <path d="m56.1 172c0-2.23 0.448-2.75 2.75-2.75s2.75 0.396 2.75 2.75-0.424 2.75-2.75 2.75-2.75-0.517-2.75-2.75z" stroke-width="1.09"/>
 <path d="m29.3 172c0-2.27 0.555-2.75 2.75-2.75 2.19 0 2.75 0.445 2.75 2.75s-0.555 2.75-2.75 2.75-2.75-0.473-2.75-2.75z" stroke-width="1.09"/>
 <path d="m22.8 172c0-2.32 0.513-2.75 2.75-2.75s2.75 0.459 2.75 2.75c0 2.29-0.587 2.75-2.75 2.75s-2.75-0.429-2.75-2.75z" stroke-width="1.09"/>
 <path d="m3 172c0-2.24 0.576-2.74 2.75-2.75 2.17-6e-3 2.75 0.497 2.75 2.75s-0.455 2.75-2.75 2.75c-2.29 0-2.75-0.512-2.75-2.75z" stroke-width="1.09"/>
 <path d="m176 179c0-2.22 0.489-2.75 2.75-2.75s2.75 0.51 2.75 2.75-0.476 2.75-2.75 2.75c-2.28 0-2.75-0.533-2.75-2.75z" stroke-width="1.09"/>
 <g stroke-width="1.09">
  <path d="m170 179c0-2.22 0.668-2.75 2.75-2.75s2.75 0.536 2.75 2.75-0.512 2.75-2.75 2.75-2.75-0.533-2.75-2.75z"/>
  <path d="m163 179c0-2.32 0.428-2.75 2.75-2.75s2.75 0.428 2.75 2.75-0.428 2.75-2.75 2.75-2.75-0.428-2.75-2.75z"/>
  <path d="m150 179c0-2.32 0.428-2.75 2.75-2.75s2.75 0.428 2.75 2.75-0.428 2.75-2.75 2.75-2.75-0.428-2.75-2.75z"/>
 </g>
 <path d="m143 179c0-2.22 0.588-2.75 2.75-2.75s2.75 0.507 2.75 2.75-0.483 2.75-2.75 2.75-2.75-0.525-2.75-2.75z" stroke-width="1.09"/>
 <path d="m130 179c0-2.32 0.428-2.75 2.75-2.75s2.75 0.428 2.75 2.75-0.428 2.75-2.75 2.75-2.75-0.428-2.75-2.75z" stroke-width="1.09"/>
 <path d="m103 179c0-2.32 0.428-2.75 2.75-2.75s2.75 0.428 2.75 2.75-0.428 2.75-2.75 2.75-2.75-0.428-2.75-2.75z" stroke-width="1.09"/>
 <path d="m96.3 179c0-2.29 0.472-2.75 2.75-2.75 2.28 0 2.75 0.411 2.75 2.75s-0.514 2.75-2.75 2.75c-2.24 0-2.75-0.457-2.75-2.75z" stroke-width="1.1"/>
 <path d="m89.8 179c0-2.32 0.428-2.75 2.75-2.75s2.75 0.428 2.75 2.75-0.428 2.75-2.75 2.75-2.75-0.428-2.75-2.75z" stroke-width="1.09"/>
 <path d="m83 179c0-2.45 0.168-2.75 2.75-2.75s2.75 0.271 2.75 2.75-0.248 2.75-2.75 2.75-2.75-0.305-2.75-2.75z" stroke-width="1.09"/>
 <path d="m76.2 179c-0.0021-2.3 0.375-2.75 2.75-2.75 2.37 0 2.75 0.428 2.75 2.75 0 2.32-0.375 2.75-2.75 2.75s-2.75-0.454-2.75-2.75z" stroke-width="1.09"/>
 <path d="m43.2 179c0-2.36 0.421-2.75 2.75-2.75s2.75 0.517 2.75 2.75c0 2.23-0.349 2.75-2.75 2.75s-2.75-0.39-2.75-2.75z" stroke-width="1.09"/>
 <path d="m29.3 179c0-2.27 0.563-2.76 2.75-2.76s2.75 0.526 2.75 2.76c0 2.24-0.477 2.74-2.75 2.74s-2.75-0.464-2.75-2.74z" stroke-width="1.09"/>
 <path d="m176 186c0-2.39 0.538-2.75 2.75-2.75s2.75 0.434 2.75 2.75c0 2.32-0.41 2.75-2.75 2.75s-2.75-0.357-2.75-2.75z" stroke-width="1.09"/>
 <g stroke-width="1.09">
  <path d="m143 186c0-2.23 0.55-2.75 2.75-2.75s2.75 0.519 2.75 2.75-0.474 2.75-2.75 2.75-2.75-0.52-2.75-2.75z"/>
  <path d="m136 186c0-2.18 0.609-2.8 2.79-2.8 2.02 0 2.71 0.589 2.71 2.59 0 2.31-0.482 2.91-2.81 2.91-2.13 0-2.69-0.593-2.69-2.7z"/>
  <path d="m130 186c0-2.32 0.428-2.75 2.75-2.75s2.75 0.428 2.75 2.75c0 2.32-0.428 2.75-2.75 2.75s-2.75-0.428-2.75-2.75z"/>
 </g>
 <path d="m123 186c0-2.28 0.562-2.81 2.86-2.81 2.17 0 2.64 0.513 2.64 2.73 0 2.25-0.396 2.77-2.56 2.77-2.46 0-2.94-0.508-2.94-2.69z" stroke-width="1.09"/>
 <path d="m116 186c-0.0265-2.21 0.544-2.75 2.75-2.75s2.75 0.47 2.75 2.75-0.498 2.75-2.75 2.75-2.72-0.537-2.75-2.75z" stroke-width="1.09"/>
 <path d="m110 186c0-2.29 0.321-2.75 2.75-2.75s2.75 0.459 2.75 2.75c0 2.29-0.398 2.75-2.75 2.75s-2.75-0.456-2.75-2.75z" stroke-width="1.09"/>
 <path d="m103 186c0-2.35 0.269-2.89 2.76-2.89s2.74 0.475 2.74 2.77-0.377 2.73-2.59 2.73c-2.37 0-2.91-0.429-2.91-2.61z" stroke-width="1.09"/>
 <path d="m69.4 186c0.0112-2.36 0.383-2.75 2.75-2.75s2.74 0.291 2.75 2.75c0.0059 2.46-0.394 2.75-2.75 2.75s-2.76-0.394-2.75-2.75z" stroke-width="1.09"/>
 <path d="m36.6 186c0-2.29 0.598-2.75 2.75-2.75s2.75 0.484 2.75 2.75c0 2.27-0.43 2.75-2.75 2.75-2.32 0-2.75-0.456-2.75-2.75z" stroke-width="1.09"/>
 <path d="m29.3 186c0-2.2 0.609-2.75 2.75-2.75s2.75 0.559 2.75 2.75-0.606 2.75-2.75 2.75c-2.15 0-2.75-0.548-2.75-2.75z" stroke-width="1.09"/>
 <path d="m29.3 192c0-2.2 0.609-2.75 2.75-2.75s2.75 0.559 2.75 2.75-0.606 2.75-2.75 2.75c-2.15 0-2.75-0.548-2.75-2.75z" stroke-width="1.09"/>
 <path d="m22.8 186c0-2.16 0.594-2.75 2.75-2.75 2.16 0 2.75 0.496 2.75 2.75s-0.504 2.75-2.75 2.75c-2.24 0-2.75-0.591-2.75-2.75z" stroke-width="1.09"/>
 <path d="m16.3 186c0-2.04 0.63-2.75 2.75-2.75s2.75 0.642 2.75 2.75c0 2.11-0.56 2.75-2.75 2.75s-2.75-0.71-2.75-2.75z" stroke-width="1.1"/>
 <g stroke-width="1.09">
  <path d="m216 192c0-2.32 0.428-2.75 2.75-2.75 2.32 0 2.75 0.428 2.75 2.75s-0.428 2.75-2.75 2.75c-2.32 0-2.75-0.428-2.75-2.75z"/>
  <path d="m203 192c0-2.2 0.55-2.75 2.75-2.75s2.75 0.55 2.75 2.75-0.55 2.75-2.75 2.75-2.75-0.55-2.75-2.75z"/>
  <path d="m190 193c0-2.2 0.55-2.75 2.75-2.75s2.75 0.55 2.75 2.75-0.55 2.75-2.75 2.75-2.75-0.55-2.75-2.75z"/>
  <path d="m163 192c0-2.2 0.55-2.75 2.75-2.75s2.75 0.55 2.75 2.75-0.55 2.75-2.75 2.75-2.75-0.55-2.75-2.75z"/>
  <path d="m156 199c0-2.2 0.55-2.75 2.75-2.75s2.75 0.55 2.75 2.75-0.55 2.75-2.75 2.75-2.75-0.55-2.75-2.75z"/>
  <path d="m156 206c0-2.2 0.55-2.75 2.75-2.75s2.75 0.55 2.75 2.75-0.55 2.75-2.75 2.75-2.75-0.55-2.75-2.75z"/>
  <path d="m150 192c0-2.2 0.55-2.75 2.75-2.75s2.75 0.55 2.75 2.75-0.55 2.75-2.75 2.75-2.75-0.55-2.75-2.75z"/>
 </g>
 <path d="m136 192c0-2.2 0.598-2.75 2.75-2.75s2.75 0.548 2.75 2.75-0.469 2.75-2.75 2.75-2.75-0.545-2.75-2.75z" stroke-width="1.09"/>
 <path d="m96.3 192c0-2.41 0.496-2.75 2.82-2.75 2.33 0 2.69 0.42 2.68 2.75-0.0111 2.38-0.397 2.75-2.47 2.75-2.6 0-3.03-0.397-3.03-2.75z" stroke-width="1.09"/>
 <path d="m83 192c0-2.42 0.164-2.75 2.75-2.75 2.58 0 2.75 0.304 2.75 2.75s-0.22 2.75-2.75 2.75c-2.53 0-2.75-0.335-2.75-2.75z" stroke-width="1.09"/>
 <path d="m56.1 192c0-2.23 0.57-2.75 2.75-2.75 2.18 0 2.75 0.496 2.75 2.75-0.0027 2.25-0.426 2.75-2.75 2.75-2.32 0-2.75-0.52-2.75-2.75z" stroke-width="1.09"/>
 <path d="m49.8 192c0-2.2 0.55-2.75 2.75-2.75s2.75 0.55 2.75 2.75-0.55 2.75-2.75 2.75-2.75-0.55-2.75-2.75z" stroke-width="1.09"/>
 <path d="m43.2 192c0-2.35 0.436-2.75 2.75-2.75s2.75 0.373 2.75 2.75c0 2.38-0.424 2.75-2.75 2.75s-2.75-0.394-2.75-2.75z" stroke-width="1.09"/>
 <path d="m36.6 192c0-2.32 0.428-2.75 2.75-2.75s2.75 0.428 2.75 2.75-0.428 2.75-2.75 2.75-2.75-0.428-2.75-2.75z" stroke-width="1.09"/>
 <path d="m16.3 192c0-2.18 0.545-2.76 2.75-2.76s2.75 0.596 2.75 2.76-0.513 2.74-2.75 2.74c-2.24 0-2.75-0.56-2.75-2.74z" stroke-width="1.09"/>
 <path d="m9.75 192c0-2.2 0.55-2.75 2.75-2.75s2.75 0.55 2.75 2.75-0.55 2.75-2.75 2.75-2.75-0.55-2.75-2.75z" stroke-width="1.09"/>
 <path d="m3 192c0-2.2 0.55-2.75 2.75-2.75s2.75 0.55 2.75 2.75-0.55 2.75-2.75 2.75-2.75-0.55-2.75-2.75z" stroke-width="1.09"/>
 <path d="m176 199c0-2.31 0.507-2.75 2.76-2.75 2.25-1e-5 2.74 0.473 2.74 2.75 0 2.28-0.444 2.75-2.74 2.75s-2.76-0.441-2.76-2.75z" stroke-width="1.09"/>
 <g stroke-width="1.09">
  <path d="m170 199c0-2.24 0.508-2.75 2.75-2.75s2.75 0.487 2.75 2.75-0.448 2.75-2.75 2.75-2.75-0.515-2.75-2.75z"/>
  <path d="m143 199c0-2.26 0.592-2.75 2.75-2.75s2.75 0.514 2.75 2.75-0.495 2.75-2.75 2.75-2.75-0.494-2.75-2.75z"/>
  <path d="m130 199c0-2.32 0.428-2.75 2.75-2.75s2.75 0.428 2.75 2.75-0.428 2.75-2.75 2.75-2.75-0.428-2.75-2.75z"/>
 </g>
 <path d="m123 199c0-2.26 0.619-2.75 2.75-2.75 2.35 0 2.75 0.635 2.75 2.75 0 2.2-0.407 2.75-2.75 2.75-2.22 0-2.75-0.552-2.75-2.75z" stroke-width="1.09"/>
 <path d="m103 199c0-2.41 0.316-2.75 2.75-2.75s2.75 0.379 2.75 2.75-0.397 2.75-2.75 2.75-2.75-0.343-2.75-2.75z" stroke-width="1.09"/>
 <path d="m69.4 199c0-2.44 0.318-2.75 2.75-2.75s2.75 0.281 2.75 2.75-0.314 2.75-2.75 2.75-2.75-0.314-2.75-2.75z" stroke-width="1.09"/>
 <path d="m62.8 199c0-2.29 0.471-2.75 2.75-2.75s2.75 0.418 2.75 2.75-0.458 2.75-2.75 2.75-2.75-0.458-2.75-2.75z" stroke-width="1.09"/>
 <path d="m56.1 199c0-2.34 0.488-2.75 2.75-2.75 2.26 0 2.75 0.347 2.75 2.75s-0.386 2.75-2.75 2.75-2.75-0.41-2.75-2.75z" stroke-width="1.09"/>
 <g stroke-width="1.09">
  <path d="m190 206c0-2.2 0.55-2.75 2.75-2.75s2.75 0.55 2.75 2.75c0 2.2-0.55 2.75-2.75 2.75s-2.75-0.55-2.75-2.75z"/>
  <path d="m163 206c0-2.2 0.55-2.75 2.75-2.75s2.75 0.55 2.75 2.75c0 2.2-0.55 2.75-2.75 2.75s-2.75-0.55-2.75-2.75z"/>
  <path d="m136 206c0-2.04 0.707-2.75 2.75-2.75s2.75 0.612 2.75 2.75-0.595 2.75-2.75 2.75-2.75-0.712-2.75-2.75z"/>
 </g>
 <path d="m119 203c2.42 0 2.94 0.505 2.94 2.69 0 2.24-0.546 2.81-2.71 2.81-2.18 0-2.79-0.549-2.79-2.76 0-2.18 0.579-2.74 2.56-2.74z" stroke-width="1.09"/>
 <g stroke-width="1.09">
  <path d="m110 206c0-2.2 0.55-2.75 2.75-2.75s2.75 0.55 2.75 2.75c0 2.2-0.55 2.75-2.75 2.75s-2.75-0.55-2.75-2.75z"/>
  <path d="m103 206c0-2.2 0.55-2.75 2.75-2.75s2.75 0.55 2.75 2.75c0 2.2-0.55 2.75-2.75 2.75s-2.75-0.55-2.75-2.75z"/>
  <path d="m89.8 206c0-2.2 0.55-2.75 2.75-2.75s2.75 0.55 2.75 2.75c0 2.2-0.55 2.75-2.75 2.75s-2.75-0.55-2.75-2.75z"/>
 </g>
 <path d="m56.1 206c0-2.26 0.44-2.75 2.75-2.75s2.75 0.465 2.75 2.75c0 2.28-0.557 2.75-2.75 2.75s-2.75-0.488-2.75-2.75z" stroke-width="1.09"/>
 <path d="m176 212c0-2.26 0.458-2.75 2.75-2.75s2.75 0.505 2.75 2.75-0.452 2.75-2.75 2.75-2.75-0.492-2.75-2.75z" stroke-width="1.09"/>
 <path d="m163 212c0-2.32 0.428-2.75 2.75-2.75s2.75 0.428 2.75 2.75c0 2.32-0.428 2.75-2.75 2.75s-2.75-0.428-2.75-2.75z" stroke-width="1.09"/>
 <path d="m150 212c0-2.22 0.558-2.82 2.73-2.82 2.17 0 2.77 0.575 2.77 2.79s-0.465 2.71-2.64 2.71c-2.18 0-2.86-0.462-2.86-2.68z" stroke-width="1.09"/>
 <g stroke-width="1.09">
  <path d="m136 212c0-2.04 0.645-2.75 2.75-2.75s2.75 0.579 2.75 2.75c0 2.17-0.638 2.75-2.75 2.75s-2.75-0.711-2.75-2.75z"/>
  <path d="m123 212c0-2.2 0.567-2.75 2.75-2.75 2.17 0 2.75 0.588 2.75 2.75 0 2.22-0.553 2.75-2.75 2.75-2.13 0-2.75-0.55-2.75-2.75z"/>
  <path d="m116 212c0-2.11 0.701-2.75 2.75-2.75 2.25 0 2.75 0.607 2.75 2.75 0 2.34-0.43 2.75-2.75 2.75-2.29 0-2.75-0.617-2.75-2.75z"/>
 </g>
 <path d="m110 212c0-2.48 0.454-2.75 2.75-2.75 2.3-4e-3 2.75 0.301 2.75 2.75s-0.374 2.75-2.75 2.75-2.75-0.274-2.75-2.75z" stroke-width="1.09"/>
 <path d="m76.2 212c-0.0023-2.31 0.401-2.75 2.75-2.75s2.75 0.434 2.75 2.75-0.433 2.75-2.75 2.75-2.75-0.437-2.75-2.75z" stroke-width="1.09"/>
 <path d="m62.8 212c0-2.27 0.45-2.78 2.75-2.75 2.3 0.028 2.75 0.444 2.75 2.75s-0.522 2.75-2.75 2.75-2.75-0.477-2.75-2.75z" stroke-width="1.09"/>
 <path d="m230 219c0-2.32 0.428-2.75 2.75-2.75s2.75 0.428 2.75 2.75-0.428 2.75-2.75 2.75-2.75-0.428-2.75-2.75z" stroke-width="1.09"/>
 <path d="m190 219c0-2.32 0.428-2.75 2.75-2.75s2.75 0.428 2.75 2.75-0.428 2.75-2.75 2.75-2.75-0.428-2.75-2.75z" stroke-width="1.09"/>
 <path d="m176 219c0-2.22 0.474-2.75 2.75-2.75s2.75 0.431 2.75 2.75-0.506 2.75-2.75 2.75-2.75-0.528-2.75-2.75z" stroke-width="1.09"/>
 <path d="m170 219c0-2.27 0.451-2.75 2.75-2.75s2.75 0.481 2.75 2.75-0.437 2.75-2.75 2.75c-2.31 0-2.75-0.481-2.75-2.75z" stroke-width="1.09"/>
 <g stroke-width="1.09">
  <path d="m163 219c0-2.32 0.428-2.75 2.75-2.75s2.75 0.428 2.75 2.75-0.428 2.75-2.75 2.75-2.75-0.428-2.75-2.75z"/>
  <path d="m156 219c0-2.2 0.55-2.75 2.75-2.75s2.75 0.55 2.75 2.75-0.55 2.75-2.75 2.75-2.75-0.55-2.75-2.75z"/>
  <path d="m150 219c0-2.29 0.558-2.75 2.75-2.75s2.75 0.528 2.75 2.75-0.552 2.75-2.75 2.75-2.75-0.461-2.75-2.75z"/>
  <path d="m130 219c0-2.32 0.428-2.75 2.75-2.75s2.75 0.428 2.75 2.75-0.428 2.75-2.75 2.75-2.75-0.428-2.75-2.75z"/>
 </g>
 <path d="m123 219c0-2.16 0.704-2.75 2.75-2.75 2.14 0 2.75 0.53 2.75 2.75 0 2.28-0.534 2.75-2.75 2.75-2.18 0-2.75-0.502-2.75-2.75z" stroke-width="1.09"/>
 <path d="m103 219c0-2.32 0.428-2.75 2.75-2.75s2.75 0.428 2.75 2.75-0.428 2.75-2.75 2.75-2.75-0.428-2.75-2.75z" stroke-width="1.09"/>
 <path d="m89.8 219c0-2.32 0.428-2.75 2.75-2.75s2.75 0.428 2.75 2.75-0.428 2.75-2.75 2.75-2.75-0.428-2.75-2.75z" stroke-width="1.09"/>
 <path d="m83 219c0-2.29 0.274-2.75 2.75-2.75s2.75 0.458 2.75 2.75-0.371 2.75-2.75 2.75-2.75-0.463-2.75-2.75z" stroke-width="1.09"/>
 <path d="m62.8 219c0-2.32 0.428-2.75 2.75-2.75s2.75 0.428 2.75 2.75-0.428 2.75-2.75 2.75-2.75-0.428-2.75-2.75z" stroke-width="1.09"/>
 <path d="m56.1 219c0-2.43 0.332-2.75 2.75-2.75s2.75 0.342 2.75 2.75-0.329 2.75-2.75 2.75c-2.42 0-2.75-0.318-2.75-2.75z" stroke-width="1.09"/>
 <g stroke-width="1.09">
  <path d="m143 226c0-2.16 0.601-2.75 2.75-2.75s2.75 0.583 2.75 2.75-0.605 2.75-2.75 2.75-2.75-0.59-2.75-2.75z"/>
  <path d="m136 226c0-2.14 0.648-2.75 2.75-2.75s2.75 0.523 2.75 2.75-0.508 2.75-2.75 2.75-2.75-0.613-2.75-2.75z"/>
  <path d="m130 226c0-2.32 0.428-2.75 2.75-2.75s2.75 0.428 2.75 2.75c0 2.32-0.428 2.75-2.75 2.75s-2.75-0.428-2.75-2.75z"/>
 </g>
 <path d="m110 226c0-2.21 0.543-2.75 2.75-2.75 2.19 0 2.75 0.491 2.75 2.75 0 2.18-0.479 2.75-2.75 2.75-2.24 0-2.75-0.569-2.75-2.75z" stroke-width="1.09"/>
 <path d="m62.8 226c0-2.32 0.477-2.75 2.76-2.75s2.74 0.434 2.74 2.75-0.443 2.75-2.74 2.75c-2.29 0-2.76-0.429-2.76-2.75z" stroke-width="1.09"/>
 <g stroke-width="1.09">
  <path d="m236 233c0-2.32 0.428-2.75 2.75-2.75s2.75 0.428 2.75 2.75c0 2.32-0.428 2.75-2.75 2.75s-2.75-0.428-2.75-2.75z"/>
  <path d="m230 233c0-2.2 0.55-2.75 2.75-2.75s2.75 0.55 2.75 2.75c0 2.2-0.55 2.75-2.75 2.75s-2.75-0.55-2.75-2.75z"/>
  <path d="m203 233c0-2.2 0.55-2.75 2.75-2.75s2.75 0.55 2.75 2.75c0 2.2-0.55 2.75-2.75 2.75s-2.75-0.55-2.75-2.75z"/>
  <path d="m203 226c0-2.2 0.55-2.75 2.75-2.75s2.75 0.55 2.75 2.75-0.55 2.75-2.75 2.75-2.75-0.55-2.75-2.75z"/>
  <path d="m196 233c0-2.32 0.428-2.75 2.75-2.75s2.75 0.428 2.75 2.75c0 2.32-0.428 2.75-2.75 2.75s-2.75-0.428-2.75-2.75z"/>
  <path d="m190 233c0-2.2 0.55-2.75 2.75-2.75s2.75 0.55 2.75 2.75c0 2.2-0.55 2.75-2.75 2.75s-2.75-0.55-2.75-2.75z"/>
  <path d="m176 233c0-2.32 0.428-2.75 2.75-2.75s2.75 0.428 2.75 2.75c0 2.32-0.428 2.75-2.75 2.75s-2.75-0.428-2.75-2.75z"/>
  <path d="m150 233c0-2.2 0.55-2.75 2.75-2.75s2.75 0.55 2.75 2.75c0 2.2-0.55 2.75-2.75 2.75s-2.75-0.55-2.75-2.75z"/>
  <path d="m136 233c0-2.32 0.428-2.75 2.75-2.75s2.75 0.428 2.75 2.75c0 2.32-0.428 2.75-2.75 2.75s-2.75-0.428-2.75-2.75z"/>
  <path d="m123 233c0-2.32 0.428-2.75 2.75-2.75s2.75 0.428 2.75 2.75c0 2.32-0.428 2.75-2.75 2.75s-2.75-0.428-2.75-2.75z"/>
  <path d="m116 233c0-2.32 0.428-2.75 2.75-2.75s2.75 0.428 2.75 2.75c0 2.32-0.428 2.75-2.75 2.75s-2.75-0.428-2.75-2.75z"/>
  <path d="m110 233c0-2.2 0.55-2.75 2.75-2.75s2.75 0.55 2.75 2.75c0 2.2-0.55 2.75-2.75 2.75s-2.75-0.55-2.75-2.75z"/>
  <path d="m83 233c0-2.32 0.428-2.75 2.75-2.75s2.75 0.428 2.75 2.75c0 2.32-0.428 2.75-2.75 2.75s-2.75-0.428-2.75-2.75z"/>
  <path d="m76.2 233c0-2.32 0.428-2.75 2.75-2.75 2.32 0 2.75 0.428 2.75 2.75 0 2.32-0.428 2.75-2.75 2.75-2.32 0-2.75-0.428-2.75-2.75z"/>
  <path d="m230 239c0-2.32 0.428-2.75 2.75-2.75s2.75 0.428 2.75 2.75-0.428 2.75-2.75 2.75-2.75-0.428-2.75-2.75z"/>
  <path d="m163 239c0-2.32 0.428-2.75 2.75-2.75s2.75 0.428 2.75 2.75-0.428 2.75-2.75 2.75-2.75-0.428-2.75-2.75z"/>
 </g>
 <path d="m150 239c0-2.16 0.694-2.75 2.75-2.75s2.75 0.671 2.75 2.75-0.611 2.75-2.75 2.75-2.75-0.588-2.75-2.75z" stroke-width="1.09"/>
 <path d="m143 239c0-2.25 0.601-2.75 2.75-2.75 2.15 0 2.75 0.589 2.75 2.75s-0.546 2.75-2.75 2.75-2.75-0.499-2.75-2.75z" stroke-width="1.09"/>
 <path d="m123 239c0-2.32 0.619-2.75 2.75-2.75 2.14 0 2.75 0.495 2.75 2.75 0 2.21-0.533 2.75-2.75 2.75-2.16 0-2.75-0.543-2.75-2.75z" stroke-width="1.09"/>
 <path d="m116 239c0-2.07 0.651-2.58 2.73-2.58 2.23 0 2.77 0.639 2.77 2.78 0 2.15-0.549 2.72-2.64 2.72-2.4 0-2.86-0.567-2.86-2.92z" stroke-width="1.1"/>
 <path d="m89.8 239c0-2.32 0.428-2.75 2.75-2.75s2.75 0.428 2.75 2.75-0.428 2.75-2.75 2.75-2.75-0.428-2.75-2.75z" stroke-width="1.09"/>
 <path d="m83 239c0-2.38 0.364-2.75 2.75-2.75s2.75 0.406 2.75 2.75-0.264 2.75-2.75 2.75-2.75-0.371-2.75-2.75z" stroke-width="1.1"/>
 <path d="m69.4 239c0-2.44 0.402-2.75 2.75-2.75s2.75 0.428 2.75 2.75-0.234 2.75-2.75 2.75-2.75-0.306-2.75-2.75z" stroke-width="1.09"/>
 <path d="m176 245c0-2.36 0.554-2.75 2.75-2.75s2.75 0.379 2.75 2.75-0.475 2.75-2.75 2.75-2.75-0.393-2.75-2.75z" stroke-width="1.09"/>
 <g stroke-width="1.09">
  <path d="m163 245c0-2.2 0.55-2.75 2.75-2.75s2.75 0.55 2.75 2.75-0.55 2.75-2.75 2.75-2.75-0.55-2.75-2.75z"/>
  <path d="m156 245c0-2.29 0.315-2.75 2.75-2.75 2.43 0 2.75 0.544 2.75 2.75s-0.399 2.75-2.75 2.75c-2.35 0-2.75-0.458-2.75-2.75z"/>
  <path d="m150 245c0-2.2 0.55-2.75 2.75-2.75s2.75 0.55 2.75 2.75-0.55 2.75-2.75 2.75-2.75-0.55-2.75-2.75z"/>
  <path d="m143 245c0-2.08 0.494-2.75 2.75-2.75s2.75 0.615 2.75 2.75-0.48 2.75-2.75 2.75-2.75-0.67-2.75-2.75z"/>
 </g>
 <path d="m136 245c0-2.06 0.634-2.75 2.75-2.75 2.12 0 2.75 0.588 2.75 2.75s-0.6 2.75-2.75 2.75c-2.15 0-2.75-0.687-2.75-2.75z" stroke-width="1.09"/>
 <path d="m130 245c0-2.2 0.55-2.75 2.75-2.75s2.75 0.55 2.75 2.75-0.55 2.75-2.75 2.75-2.75-0.55-2.75-2.75z" stroke-width="1.09"/>
 <path d="m116 245c0-1.93 0.617-2.52 2.79-2.52 2.21 0 2.71 0.613 2.71 2.89 0 2.13-0.594 2.61-2.8 2.61-2.11 0-2.7-0.568-2.7-2.98z" stroke-width="1.09"/>
 <path d="m103 245c0-2.2 0.55-2.75 2.75-2.75s2.75 0.55 2.75 2.75-0.55 2.75-2.75 2.75-2.75-0.55-2.75-2.75z" stroke-width="1.09"/>
 <path d="m83 245c0-2.25 0.49-2.75 2.74-2.75 2.25 0 2.75 0.379 2.76 2.75s-0.482 2.75-2.76 2.75c-2.27 0-2.74-0.504-2.74-2.75z" stroke-width="1.1"/>
 <path d="m56.1 245c0-2.33 0.521-2.75 2.74-2.75s2.76 0.474 2.76 2.75c-7.6e-4 2.28-0.374 2.75-2.76 2.75s-2.74-0.422-2.74-2.75z" stroke-width="1.09"/>
 <g stroke-width="1.09">
  <path d="m183 153c0-2.2 0.55-2.75 2.75-2.75s2.75 0.55 2.75 2.75-0.55 2.75-2.75 2.75-2.75-0.55-2.75-2.75z"/>
  <path d="m190 19c0-2.2 0.55-2.75 2.75-2.75s2.75 0.55 2.75 2.75-0.55 2.75-2.75 2.75-2.75-0.55-2.75-2.75z"/>
  <path d="m190 99.1c0-2.2 0.55-2.75 2.75-2.75s2.75 0.55 2.75 2.75-0.55 2.75-2.75 2.75-2.75-0.55-2.75-2.75z"/>
  <path d="m183 146c0-2.2 0.55-2.75 2.75-2.75s2.75 0.55 2.75 2.75-0.55 2.75-2.75 2.75-2.75-0.55-2.75-2.75z"/>
  <path d="m190 146c0-2.2 0.55-2.75 2.75-2.75s2.75 0.55 2.75 2.75-0.55 2.75-2.75 2.75-2.75-0.55-2.75-2.75z"/>
  <path d="m190 159c0-2.2 0.55-2.75 2.75-2.75s2.75 0.55 2.75 2.75-0.55 2.75-2.75 2.75-2.75-0.55-2.75-2.75z"/>
  <path d="m190 172c0-2.2 0.55-2.75 2.75-2.75s2.75 0.55 2.75 2.75c0 2.2-0.55 2.75-2.75 2.75s-2.75-0.55-2.75-2.75z"/>
  <path d="m190 179c0-2.2 0.55-2.75 2.75-2.75s2.75 0.55 2.75 2.75-0.55 2.75-2.75 2.75-2.75-0.55-2.75-2.75z"/>
  <path d="m190 199c0-2.2 0.55-2.75 2.75-2.75s2.75 0.55 2.75 2.75-0.55 2.75-2.75 2.75-2.75-0.55-2.75-2.75z"/>
  <path d="m190 212c0-2.2 0.55-2.75 2.75-2.75s2.75 0.55 2.75 2.75-0.55 2.75-2.75 2.75-2.75-0.55-2.75-2.75z"/>
  <path d="m196 119c0-2.2 0.55-2.75 2.75-2.75s2.75 0.55 2.75 2.75-0.55 2.75-2.75 2.75-2.75-0.55-2.75-2.75z"/>
  <path d="m190 72.2c0-2.2 0.55-2.75 2.75-2.75s2.75 0.55 2.75 2.75-0.55 2.75-2.75 2.75-2.75-0.55-2.75-2.75z"/>
  <path d="m196 139c0-2.2 0.55-2.75 2.75-2.75s2.75 0.55 2.75 2.75-0.55 2.75-2.75 2.75-2.75-0.55-2.75-2.75z"/>
  <path d="m196 146c0-2.2 0.55-2.75 2.75-2.75s2.75 0.55 2.75 2.75-0.55 2.75-2.75 2.75-2.75-0.55-2.75-2.75z"/>
  <path d="m196 159c0-2.2 0.55-2.75 2.75-2.75s2.75 0.55 2.75 2.75-0.55 2.75-2.75 2.75-2.75-0.55-2.75-2.75z"/>
  <path d="m196 192c0-2.2 0.55-2.75 2.75-2.75s2.75 0.55 2.75 2.75-0.55 2.75-2.75 2.75-2.75-0.55-2.75-2.75z"/>
  <path d="m196 219c0-2.2 0.55-2.75 2.75-2.75s2.75 0.55 2.75 2.75-0.55 2.75-2.75 2.75-2.75-0.55-2.75-2.75z"/>
  <path d="m196 226c0-2.2 0.55-2.75 2.75-2.75s2.75 0.55 2.75 2.75-0.55 2.75-2.75 2.75-2.75-0.55-2.75-2.75z"/>
  <path d="m196 239c0-2.2 0.55-2.75 2.75-2.75s2.75 0.55 2.75 2.75-0.55 2.75-2.75 2.75-2.75-0.55-2.75-2.75z"/>
  <path d="m196 245c0-2.2 0.55-2.75 2.75-2.75s2.75 0.55 2.75 2.75-0.55 2.75-2.75 2.75-2.75-0.55-2.75-2.75z"/>
  <path d="m203 59c0-2.2 0.55-2.75 2.75-2.75s2.75 0.55 2.75 2.75-0.55 2.75-2.75 2.75-2.75-0.55-2.75-2.75z"/>
  <path d="m203 85.9c0-2.2 0.55-2.75 2.75-2.75s2.75 0.55 2.75 2.75-0.55 2.75-2.75 2.75-2.75-0.55-2.75-2.75z"/>
  <path d="m203 139c0-2.2 0.55-2.75 2.75-2.75s2.75 0.55 2.75 2.75-0.55 2.75-2.75 2.75-2.75-0.55-2.75-2.75z"/>
  <path d="m203 159c0-2.2 0.55-2.75 2.75-2.75s2.75 0.55 2.75 2.75-0.55 2.75-2.75 2.75-2.75-0.55-2.75-2.75z"/>
  <path d="m203 172c0-2.2 0.55-2.75 2.75-2.75s2.75 0.55 2.75 2.75-0.55 2.75-2.75 2.75-2.75-0.55-2.75-2.75z"/>
  <path d="m203 219c0-2.2 0.55-2.75 2.75-2.75s2.75 0.55 2.75 2.75-0.55 2.75-2.75 2.75-2.75-0.55-2.75-2.75z"/>
  <path d="m203 245c0-2.2 0.55-2.75 2.75-2.75s2.75 0.55 2.75 2.75-0.55 2.75-2.75 2.75-2.75-0.55-2.75-2.75z"/>
  <path d="m210 59c0-2.2 0.55-2.75 2.75-2.75s2.75 0.55 2.75 2.75-0.55 2.75-2.75 2.75-2.75-0.55-2.75-2.75z"/>
  <path d="m210 79c0-2.2 0.55-2.75 2.75-2.75s2.75 0.55 2.75 2.75-0.55 2.75-2.75 2.75-2.75-0.55-2.75-2.75z"/>
  <path d="m210 99.1c0-2.32 0.428-2.75 2.75-2.75s2.75 0.428 2.75 2.75c0 2.32-0.428 2.75-2.75 2.75s-2.75-0.428-2.75-2.75z"/>
  <path d="m210 119c0-2.32 0.428-2.75 2.75-2.75s2.75 0.428 2.75 2.75-0.428 2.75-2.75 2.75-2.75-0.428-2.75-2.75z"/>
  <path d="m210 126c0-2.2 0.55-2.75 2.75-2.75s2.75 0.55 2.75 2.75-0.55 2.75-2.75 2.75-2.75-0.55-2.75-2.75z"/>
  <path d="m210 139c0-2.2 0.55-2.75 2.75-2.75s2.75 0.55 2.75 2.75-0.55 2.75-2.75 2.75-2.75-0.55-2.75-2.75z"/>
  <path d="m210 146c0-2.2 0.55-2.75 2.75-2.75s2.75 0.55 2.75 2.75-0.55 2.75-2.75 2.75-2.75-0.55-2.75-2.75z"/>
  <path d="m210 153c0-2.2 0.55-2.75 2.75-2.75s2.75 0.55 2.75 2.75-0.55 2.75-2.75 2.75-2.75-0.55-2.75-2.75z"/>
  <path d="m210 159c0-2.2 0.55-2.75 2.75-2.75s2.75 0.55 2.75 2.75c0 2.2-0.55 2.75-2.75 2.75s-2.75-0.55-2.75-2.75z"/>
  <path d="m210 166c0-2.2 0.55-2.75 2.75-2.75s2.75 0.55 2.75 2.75-0.55 2.75-2.75 2.75-2.75-0.55-2.75-2.75z"/>
  <path d="m203 186c0-2.2 0.55-2.75 2.75-2.75s2.75 0.55 2.75 2.75-0.55 2.75-2.75 2.75-2.75-0.55-2.75-2.75z"/>
  <path d="m210 186c0-2.2 0.55-2.75 2.75-2.75s2.75 0.55 2.75 2.75-0.55 2.75-2.75 2.75-2.75-0.55-2.75-2.75z"/>
  <path d="m210 192c0-2.2 0.55-2.75 2.75-2.75s2.75 0.55 2.75 2.75-0.55 2.75-2.75 2.75-2.75-0.55-2.75-2.75z"/>
  <path d="m216 59c0-2.2 0.55-2.75 2.75-2.75s2.75 0.55 2.75 2.75-0.55 2.75-2.75 2.75-2.75-0.55-2.75-2.75z"/>
  <path d="m216 72.2c0-2.2 0.55-2.75 2.75-2.75s2.75 0.55 2.75 2.75-0.55 2.75-2.75 2.75-2.75-0.55-2.75-2.75z"/>
  <path d="m216 79c0-2.2 0.55-2.75 2.75-2.75s2.75 0.55 2.75 2.75-0.55 2.75-2.75 2.75-2.75-0.55-2.75-2.75z"/>
  <path d="m217 99.1c0-2.2 0.55-2.75 2.75-2.75s2.75 0.55 2.75 2.75-0.55 2.75-2.75 2.75-2.75-0.55-2.75-2.75z"/>
  <path d="m216 119c0-2.2 0.55-2.75 2.75-2.75s2.75 0.55 2.75 2.75-0.55 2.75-2.75 2.75-2.75-0.55-2.75-2.75z"/>
  <path d="m216 146c0-2.2 0.55-2.75 2.75-2.75s2.75 0.55 2.75 2.75-0.55 2.75-2.75 2.75-2.75-0.55-2.75-2.75z"/>
  <path d="m216 159c0-2.2 0.55-2.75 2.75-2.75s2.75 0.55 2.75 2.75-0.55 2.75-2.75 2.75-2.75-0.55-2.75-2.75z"/>
  <path d="m216 179c0-2.2 0.55-2.75 2.75-2.75s2.75 0.55 2.75 2.75-0.55 2.75-2.75 2.75-2.75-0.55-2.75-2.75z"/>
  <path d="m216 186c0-2.2 0.55-2.75 2.75-2.75s2.75 0.55 2.75 2.75-0.55 2.75-2.75 2.75-2.75-0.55-2.75-2.75z"/>
  <path d="m216 199c0-2.2 0.55-2.75 2.75-2.75s2.75 0.55 2.75 2.75-0.55 2.75-2.75 2.75-2.75-0.55-2.75-2.75z"/>
  <path d="m216 206c0-2.2 0.55-2.75 2.75-2.75s2.75 0.55 2.75 2.75-0.55 2.75-2.75 2.75-2.75-0.55-2.75-2.75z"/>
  <path d="m216 212c0-2.2 0.55-2.75 2.75-2.75s2.75 0.55 2.75 2.75-0.55 2.75-2.75 2.75-2.75-0.55-2.75-2.75z"/>
  <path d="m216 219c0-2.2 0.55-2.75 2.75-2.75s2.75 0.55 2.75 2.75-0.55 2.75-2.75 2.75-2.75-0.55-2.75-2.75z"/>
  <path d="m210 226c0-2.2 0.55-2.75 2.75-2.75s2.75 0.55 2.75 2.75-0.55 2.75-2.75 2.75-2.75-0.55-2.75-2.75z"/>
  <path d="m210 219c0-2.2 0.55-2.75 2.75-2.75s2.75 0.55 2.75 2.75-0.55 2.75-2.75 2.75-2.75-0.55-2.75-2.75z"/>
  <path d="m216 239c0-2.2 0.55-2.75 2.75-2.75s2.75 0.55 2.75 2.75-0.55 2.75-2.75 2.75-2.75-0.55-2.75-2.75z"/>
  <path d="m210 245c0-2.2 0.55-2.75 2.75-2.75s2.75 0.55 2.75 2.75-0.55 2.75-2.75 2.75-2.75-0.55-2.75-2.75z"/>
  <path d="m223 59c0-2.2 0.55-2.75 2.75-2.75s2.75 0.55 2.75 2.75-0.55 2.75-2.75 2.75-2.75-0.55-2.75-2.75z"/>
  <path d="m223 65.6c0-2.2 0.55-2.75 2.75-2.75s2.75 0.55 2.75 2.75-0.55 2.75-2.75 2.75-2.75-0.55-2.75-2.75z"/>
  <path d="m223 72.2c0-2.2 0.55-2.75 2.75-2.75s2.75 0.55 2.75 2.75-0.55 2.75-2.75 2.75-2.75-0.55-2.75-2.75z"/>
  <path d="m223 99.1c0-2.2 0.55-2.75 2.75-2.75s2.75 0.55 2.75 2.75-0.55 2.75-2.75 2.75-2.75-0.55-2.75-2.75z"/>
  <path d="m223 112c0-2.2 0.55-2.75 2.75-2.75s2.75 0.55 2.75 2.75-0.55 2.75-2.75 2.75-2.75-0.55-2.75-2.75z"/>
  <path d="m223 139c0-2.2 0.55-2.75 2.75-2.75s2.75 0.55 2.75 2.75-0.55 2.75-2.75 2.75-2.75-0.55-2.75-2.75z"/>
  <path d="m223 153c0-2.2 0.55-2.75 2.75-2.75s2.75 0.55 2.75 2.75-0.55 2.75-2.75 2.75-2.75-0.55-2.75-2.75z"/>
  <path d="m223 172c0-2.2 0.55-2.75 2.75-2.75s2.75 0.55 2.75 2.75-0.55 2.75-2.75 2.75-2.75-0.55-2.75-2.75z"/>
  <path d="m223 179c0-2.2 0.55-2.75 2.75-2.75s2.75 0.55 2.75 2.75-0.55 2.75-2.75 2.75-2.75-0.55-2.75-2.75z"/>
  <path d="m223 219c0-2.2 0.55-2.75 2.75-2.75s2.75 0.55 2.75 2.75-0.55 2.75-2.75 2.75-2.75-0.55-2.75-2.75z"/>
  <path d="m223 212c0-2.2 0.55-2.75 2.75-2.75s2.75 0.55 2.75 2.75-0.55 2.75-2.75 2.75-2.75-0.55-2.75-2.75z"/>
  <path d="m223 245c0-2.2 0.55-2.75 2.75-2.75s2.75 0.55 2.75 2.75-0.55 2.75-2.75 2.75-2.75-0.55-2.75-2.75z"/>
  <path d="m223 239c0-2.2 0.55-2.75 2.75-2.75s2.75 0.55 2.75 2.75-0.55 2.75-2.75 2.75-2.75-0.55-2.75-2.75z"/>
  <path d="m230 99.1c0-2.2 0.55-2.75 2.75-2.75s2.75 0.55 2.75 2.75-0.55 2.75-2.75 2.75-2.75-0.55-2.75-2.75z"/>
  <path d="m230 126c0-2.2 0.55-2.75 2.75-2.75s2.75 0.55 2.75 2.75-0.55 2.75-2.75 2.75-2.75-0.55-2.75-2.75z"/>
  <path d="m230 159c0-2.2 0.55-2.75 2.75-2.75s2.75 0.55 2.75 2.75-0.55 2.75-2.75 2.75-2.75-0.55-2.75-2.75z"/>
  <path d="m236 65.6c0-2.2 0.55-2.75 2.75-2.75s2.75 0.55 2.75 2.75-0.55 2.75-2.75 2.75-2.75-0.55-2.75-2.75z"/>
  <path d="m236 79c0-2.2 0.55-2.75 2.75-2.75s2.75 0.55 2.75 2.75-0.55 2.75-2.75 2.75-2.75-0.55-2.75-2.75z"/>
  <path d="m236 85.9c0-2.2 0.55-2.75 2.75-2.75s2.75 0.55 2.75 2.75-0.55 2.75-2.75 2.75-2.75-0.55-2.75-2.75z"/>
  <path d="m236 99.1c0-2.2 0.55-2.75 2.75-2.75s2.75 0.55 2.75 2.75-0.55 2.75-2.75 2.75-2.75-0.55-2.75-2.75z"/>
  <path d="m236 112c0-2.2 0.55-2.75 2.75-2.75s2.75 0.55 2.75 2.75-0.55 2.75-2.75 2.75-2.75-0.55-2.75-2.75z"/>
  <path d="m236 119c0-2.2 0.55-2.75 2.75-2.75s2.75 0.55 2.75 2.75c0 2.2-0.55 2.75-2.75 2.75s-2.75-0.55-2.75-2.75z"/>
  <path d="m236 159c0-2.2 0.55-2.75 2.75-2.75s2.75 0.55 2.75 2.75-0.55 2.75-2.75 2.75-2.75-0.55-2.75-2.75z"/>
  <path d="m236 186c0-2.2 0.55-2.75 2.75-2.75s2.75 0.55 2.75 2.75-0.55 2.75-2.75 2.75-2.75-0.55-2.75-2.75z"/>
  <path d="m236 192c0-2.2 0.55-2.75 2.75-2.75s2.75 0.55 2.75 2.75-0.55 2.75-2.75 2.75-2.75-0.55-2.75-2.75z"/>
  <path d="m230 212c0-2.2 0.55-2.75 2.75-2.75s2.75 0.55 2.75 2.75-0.55 2.75-2.75 2.75-2.75-0.55-2.75-2.75z"/>
  <path d="m236 212c0-2.2 0.55-2.75 2.75-2.75s2.75 0.55 2.75 2.75-0.55 2.75-2.75 2.75-2.75-0.55-2.75-2.75z"/>
  <path d="m236 219c0-2.2 0.55-2.75 2.75-2.75s2.75 0.55 2.75 2.75-0.55 2.75-2.75 2.75-2.75-0.55-2.75-2.75z"/>
  <path d="m236 239c0-2.2 0.55-2.75 2.75-2.75s2.75 0.55 2.75 2.75-0.55 2.75-2.75 2.75-2.75-0.55-2.75-2.75z"/>
  <path d="m236 245c0-2.2 0.55-2.75 2.75-2.75s2.75 0.55 2.75 2.75-0.55 2.75-2.75 2.75-2.75-0.55-2.75-2.75z"/>
  <path d="m242 59c0-2.2 0.55-2.75 2.75-2.75s2.75 0.55 2.75 2.75-0.55 2.75-2.75 2.75-2.75-0.55-2.75-2.75z"/>
  <path d="m243 85.9c0-2.2 0.55-2.75 2.75-2.75s2.75 0.55 2.75 2.75-0.55 2.75-2.75 2.75-2.75-0.55-2.75-2.75z"/>
  <path d="m243 92.5c0-2.2 0.55-2.75 2.75-2.75s2.75 0.55 2.75 2.75-0.55 2.75-2.75 2.75-2.75-0.55-2.75-2.75z"/>
  <path d="m243 159c0-2.2 0.55-2.75 2.75-2.75s2.75 0.55 2.75 2.75-0.55 2.75-2.75 2.75-2.75-0.55-2.75-2.75z"/>
  <path d="m243 166c0-2.2 0.55-2.75 2.75-2.75s2.75 0.55 2.75 2.75-0.55 2.75-2.75 2.75-2.75-0.55-2.75-2.75z"/>
  <path d="m243 199c0-2.2 0.55-2.75 2.75-2.75s2.75 0.55 2.75 2.75-0.55 2.75-2.75 2.75-2.75-0.55-2.75-2.75z"/>
  <path d="m243 219c0-2.2 0.55-2.75 2.75-2.75s2.75 0.55 2.75 2.75-0.55 2.75-2.75 2.75-2.75-0.55-2.75-2.75z"/>
  <path d="m243 245c0-2.2 0.55-2.75 2.75-2.75s2.75 0.55 2.75 2.75-0.55 2.75-2.75 2.75-2.75-0.55-2.75-2.75z"/>
 </g>
 <path d="m143 52.5c0-2.19 0.43-2.75 2.75-2.75s2.69 0.604 2.75 2.75-0.461 2.75-2.75 2.75-2.75-0.562-2.75-2.75z" stroke-width="1.09"/>
 <path d="m83 65.6c0-2.15 0.667-2.75 2.75-2.75 2.08 0 2.75 0.512 2.75 2.75 0 2.24-0.601 2.75-2.75 2.75s-2.75-0.603-2.75-2.75z" stroke-width="1.09"/>
 <path d="m3 85.9c0-2.22 0.549-2.75 2.75-2.75s2.75 0.596 2.75 2.75-0.613 2.75-2.75 2.75-2.75-0.527-2.75-2.75z" stroke-width="1.09"/>
 <path d="m96.3 186c0-2.2 0.55-2.75 2.75-2.75s2.75 0.55 2.75 2.75-0.55 2.75-2.75 2.75-2.75-0.55-2.75-2.75z" stroke-width="1.09"/>
 <path d="m96.3 226c0-2.2 0.55-2.75 2.75-2.75s2.75 0.55 2.75 2.75-0.55 2.75-2.75 2.75-2.75-0.55-2.75-2.75z" stroke-width="1.09"/>
 <g transform="matrix(.31 0 0 .31 95 94.3)">
  <path d="m3.75 18.3 182-11.2 10.7 175-182 11.2z" color="#000000" fill="none" stroke-linecap="round" stroke-width=".484" style="-inkscape-stroke:none;paint-order:stroke fill markers"/>
  <g fill="#2d1e1e">
   <g stroke-width="1.09">
    <path d="m20.7 161-1.57-24.5 14-0.896q2.64-0.17 4.3 0.291 1.66 0.451 2.52 1.73 0.873 1.26 1.02 3.57 0.152 2.37-0.498 3.67-0.638 1.3-2.95 2.12 2.81 0.485 3.84 1.73 1.03 1.24 1.2 3.76 0.148 2.31-0.448 3.9-0.585 1.59-2.19 2.53-1.59 0.934-4.41 1.11zm14-12.3-11.5 0.735 0.574 8.94 8.93-0.573q2.81-0.18 4.12-0.529t1.87-1.34q0.553-0.995 0.417-3.11-0.14-2.18-1.02-3.23t-3.43-0.885zm-1.83-10.6-10.3 0.662 0.528 8.23 9.17-0.589q2.21-0.142 3.4-0.59 1.19-0.448 1.63-1.43 0.449-0.978 0.336-2.74-0.143-2.23-1.13-2.97-0.979-0.74-3.62-0.57z"/>
    <path d="m46.5 134 1.41 21.9 14.7-0.945 0.164 2.55-18.2 1.17-1.57-24.5z"/>
    <path d="m65.9 136 0.53 8.26 14.8-0.951 0.149 2.32-14.8 0.951 0.579 9.01 15.5-0.994 0.154 2.4-18.7 1.2-1.57-24.5 18.7-1.2 0.159 2.48z"/>
    <path d="m104 138-3.18 0.204q-0.249-1.88-0.773-2.8-0.524-0.916-1.67-1.22-1.15-0.318-3.4-0.173l-1.67 0.107q-4.49 0.288-5.89 1.14-1.51 0.909-1.35 3.49 0.0932 1.45 0.474 2.3 0.391 0.836 1.36 1.26 0.981 0.417 2.76 0.4 0.303 1.4e-4 4.29-0.138t5.83 0.203q1.86 0.34 3.07 1.68 1.21 1.33 1.39 4.09 0.137 2.13-0.188 3.6-0.325 1.46-1.54 2.48-1.22 1.01-3.7 1.36-2.36 0.347-5.55 0.552-2.64 0.17-4.43 0.0886-1.79-0.0908-3.21-0.655-1.41-0.565-2.25-1.86-0.84-1.3-0.981-3.49-0.0131-0.205-0.0137-0.576-5.84e-4 -0.372-0.0137-0.576l3.14-0.202q0.149 2.32 0.671 3.38 0.534 1.06 1.86 1.41 1.33 0.336 4.07 0.159l2.71-0.174q2.63-0.169 3.94-0.536 1.3-0.377 1.83-1.38 0.529-1.01 0.395-3.1-0.109-1.71-0.512-2.53-0.391-0.836-1.38-1.13-0.986-0.299-2.94-0.232-2.75 0.0789-5.39 0.131-2.64 0.052-4.53-0.365-1.89-0.417-3.08-1.78-1.19-1.37-1.36-4.03-0.18-2.8 0.911-4.31t3.18-2.1q2.09-0.604 5.47-0.821l0.754-0.0484q2.7-0.173 4.48-0.111 1.78 0.0518 3.18 0.579 1.4 0.527 2.22 1.81 0.839 1.28 0.982 3.51z"/>
    <path d="m128 136-3.18 0.204q-0.249-1.88-0.773-2.8-0.524-0.916-1.67-1.22-1.15-0.318-3.4-0.173l-1.67 0.107q-4.49 0.288-5.89 1.14-1.51 0.909-1.35 3.49 0.0932 1.45 0.474 2.3 0.391 0.836 1.36 1.26 0.981 0.417 2.76 0.4 0.303 1.4e-4 4.29-0.138 3.98-0.138 5.83 0.203 1.86 0.34 3.07 1.68 1.21 1.33 1.39 4.09 0.137 2.13-0.188 3.6-0.325 1.46-1.54 2.48-1.22 1.01-3.7 1.36-2.36 0.347-5.55 0.552-2.64 0.17-4.43 0.0886-1.79-0.0908-3.21-0.655-1.41-0.565-2.25-1.86-0.84-1.3-0.981-3.49-0.0131-0.205-0.0137-0.576-5.8e-4 -0.372-0.0137-0.576l3.14-0.202q0.149 2.32 0.671 3.38 0.534 1.06 1.86 1.41 1.33 0.336 4.07 0.159l2.71-0.174q2.63-0.169 3.94-0.536 1.3-0.377 1.83-1.38 0.529-1.01 0.395-3.1-0.109-1.71-0.512-2.53-0.391-0.836-1.38-1.13-0.986-0.299-2.94-0.232-2.75 0.0789-5.39 0.131-2.64 0.052-4.53-0.365-1.89-0.417-3.08-1.78-1.19-1.37-1.36-4.03-0.18-2.8 0.911-4.31 1.09-1.51 3.18-2.1 2.09-0.604 5.47-0.821l0.754-0.0484q2.7-0.173 4.48-0.111 1.78 0.0518 3.18 0.579 1.4 0.527 2.22 1.81 0.839 1.28 0.982 3.51z"/>
    <path d="m133 129 1.57 24.5-3.27 0.21-1.57-24.5z"/>
    <path d="m159 127 1.57 24.5-5.32 0.342-17.8-21.1 1.42 22.1-3.18 0.204-1.57-24.5 5.28-0.339 17.8 21.3-1.43-22.4z"/>
    <path d="m173 139 12.4-0.799q0.152 0.91 0.264 2.66l0.113 1.75q0.219 3.41-0.812 5.49-1.02 2.07-4.67 2.64-3.23 0.403-5.97 0.579-4.86 0.312-7.43-0.257-2.57-0.569-3.78-2.44-1.19-1.88-1.44-5.67-0.0732-1.14-0.193-3.36-0.119-2.22-0.191-3.34-0.209-3.26 0.594-5.26t2.94-3.04q2.13-1.04 5.96-1.28 4.66-0.299 7.04-0.374 3.59-0.142 5.29 1.33 1.7 1.47 1.9 4.54l0.0563 0.877-3.18 0.204q-0.16-2.49-1.04-3.54-0.871-1.06-3.59-0.963-2.05 0.053-6.08 0.312-3.17 0.203-4.54 0.78-1.36 0.567-1.74 1.92-0.368 1.34-0.229 4.41l0.114 3.23 0.314 3.43q0.121 1.88 0.419 3.08 0.309 1.19 1.28 2.04 0.986 0.847 2.93 0.986 1.58 0.104 4.72-0.0975l1.7-0.109q2.9-0.186 4.25-0.664 1.37-0.479 1.81-1.62 0.45-1.14 0.3-3.49l-0.136-2.11-9.26 0.595z"/>
   </g>
   <g stroke-width="1.07">
    <path d="m30.3 169 0.771 12-1.78 0.114-0.771-12-5.02 0.322-0.0929-1.45 11.8-0.755 0.0929 1.45z"/>
    <path d="m36.2 171 1.57-0.101 0.0444 1.08q0.845-1.36 2.88-1.49 3.14-0.202 3.36 3.13l-1.57 0.101q-0.0698-1.09-0.482-1.61-0.412-0.517-1.58-0.442-2.54 0.163-2.4 2.36l0.403 6.28-1.62 0.104z"/>
    <path d="m46.9 173-1.68 0.108q-0.113-1.76 0.888-2.32 1-0.559 3.22-0.702 1.67-0.107 2.67 0.0598 1.01 0.167 1.58 0.851 0.572 0.679 0.663 2.1l0.393 6.13-1.54 0.0989 0.0357-0.993q-0.574 0.737-1.44 1.02-0.858 0.276-2.16 0.36-1.46 0.0937-2.38-0.0731-0.924-0.167-1.45-0.784-0.53-0.617-0.61-1.86-0.0757-1.18 0.404-1.83 0.479-0.66 1.36-0.922 0.89-0.262 2.28-0.351 1.28-0.0822 2.13 0.025 0.852 0.107 1.4 0.696l-0.0702-1.09q-0.076-1.18-0.345-1.71-0.27-0.526-0.912-0.663t-2.05-0.0459q-1.53 0.0985-2.05 0.509-0.464 0.32-0.416 1.06 0.0038 0.059 0.0351 0.159 0.0371 0.0945 0.0419 0.17zm-0.121 3.73q0.076 1.18 0.647 1.56 0.577 0.372 1.97 0.283 1.07-0.0687 1.79-0.207 0.73-0.138 1.24-0.559 0.52-0.421 0.467-1.25-0.074-1.15-0.843-1.43-0.769-0.279-2.28-0.182l-0.408 0.0262q-1.77 0.114-2.27 0.566-0.367 0.287-0.309 1.19z"/>
    <path d="m54.9 170 1.47-0.0941 0.0788 1.23q0.566-0.865 1.47-1.24 0.902-0.37 2.16-0.451 1.48-0.0953 2.35 0.167 0.874 0.261 1.31 0.982 0.431 0.72 0.514 2l0.4 6.23-1.65 0.106-0.393-6.13q-0.0612-0.954-0.297-1.43-0.236-0.48-0.812-0.648-0.57-0.168-1.7-0.0953-3.22 0.206-3.04 2.91l0.371 5.77-1.62 0.104z"/>
    <path d="m74.1 171-1.62 0.104q-0.0581-0.906-0.739-1.15-0.681-0.252-1.84-0.178l-0.81 0.052q-1.15 0.0738-1.73 0.407-0.569 0.327-0.514 1.19 0.0375 0.584 0.187 0.881 0.149 0.292 0.499 0.415 0.349 0.118 1.04 0.116 1.11-0.05 2.19-0.0976t1.91 0.104q0.83 0.151 1.38 0.697 0.551 0.546 0.621 1.64 0.0833 1.3-0.427 1.96-0.504 0.657-1.45 0.895-0.935 0.232-2.53 0.334-1.45 0.0929-2.43 5e-3 -0.975-0.0882-1.67-0.604-0.686-0.521-0.759-1.67-0.0237-0.37-9e-3 -0.527l1.62-0.104q0.054 0.842 0.323 1.25 0.275 0.408 0.823 0.528 0.548 0.116 1.57 0.05l0.377-0.0242q1.93-0.124 2.51-0.538 0.464-0.326 0.395-1.39-0.0595-0.927-0.576-1.14-0.517-0.22-1.57-0.152l-0.662 0.0425q-0.0371 2e-3 -0.15-0.0119-0.113-0.0143-0.156-0.0115-1.61 0.0171-2.12 7e-3 -0.516-0.0153-1.14-0.207-0.621-0.197-1-0.689-0.38-0.498-0.437-1.39-0.108-1.68 0.648-2.2 1.05-0.751 3.48-0.907 1.34-0.0862 2.33 0.0334 0.989 0.114 1.67 0.652 0.686 0.532 0.757 1.63z"/>
    <path d="m75.3 169 1.57-0.101 0.0293 1.23q0.538-0.81 1.35-1.15 0.811-0.337 2.01-0.414 1.87-0.12 2.86 0.366 0.987 0.48 1.34 1.46 0.355 0.978 0.462 2.66 0.0812 1.26 0.0043 2.1-0.0769 0.834-0.451 1.49-0.374 0.659-1.2 1.06-0.825 0.397-2.22 0.487-1.22 0.0786-2.13-0.116-0.907-0.2-1.52-0.904l0.333 5.18-1.57 0.101zm1.88 4.29 0.0464 0.724q0.0722 1.13 0.32 1.79 0.247 0.662 0.928 1.01 0.687 0.343 1.97 0.261 1.4-0.0901 2.02-0.501 0.62-0.411 0.738-1.08 0.124-0.675 0.0428-1.95l-0.0354-0.552q-0.0864-1.35-0.278-2.01-0.192-0.666-0.853-1-0.661-0.334-2.05-0.245-1.38 0.0885-2.01 0.474-0.634 0.38-0.782 1.07-0.142 0.693-0.0572 2.01z"/>
    <path d="m85.9 172q-0.11-1.71 0.168-2.71 0.284-0.998 1.24-1.53 0.959-0.541 2.9-0.665 2.09-0.134 3.17 0.195 1.09 0.323 1.54 1.25 0.451 0.929 0.568 2.76 0.123 1.92-0.0396 2.96-0.157 1.04-1.09 1.73-0.931 0.684-3.04 0.819-2.02 0.13-3.12-0.133-1.09-0.269-1.61-1.15-0.516-0.876-0.629-2.63zm1.65-0.106 0.0509 0.793q0.139 2.17 0.835 2.75 0.489 0.367 1.78 0.284l0.786-0.0504q1.04-0.0667 1.64-0.251 0.603-0.184 0.915-0.64 0.319-0.456 0.325-1.32-0.0172-0.752-0.107-2.16-0.0877-1.37-0.264-1.99-0.17-0.624-0.759-0.893-0.583-0.275-1.88-0.192l-0.353 0.0226q-1.46 0.0937-2.1 0.372-0.634 0.278-0.81 0.924-0.17 0.646-0.0796 2.05z"/>
    <path d="m96 167 1.57-0.101 0.0444 1.08q0.845-1.36 2.88-1.49 3.14-0.202 3.36 3.13l-1.57 0.101q-0.0698-1.09-0.482-1.61-0.412-0.517-1.58-0.442-2.54 0.163-2.4 2.36l0.403 6.28-1.62 0.104z"/>
    <path d="m112 166 0.0733 1.14-4.18 0.268 0.369 5.75q0.0547 0.852 0.372 1.14 0.317 0.286 1.24 0.227 1.01-0.0651 1.27-0.474 0.253-0.409 0.196-1.29l-0.0378-0.59 1.52-0.0973q0.11 1.72-0.435 2.61-0.539 0.89-2.43 1.01-1.21 0.0774-1.91-0.12-0.696-0.198-1.03-0.747-0.333-0.549-0.398-1.56l-0.369-5.75-1.42 0.0913-0.0733-1.14 1.42-0.0913-0.145-2.26 1.65-0.106 0.145 2.26z"/>
    <path d="m131 165-1.69 0.109q-0.135-1.04-0.416-1.54-0.281-0.504-0.894-0.675-0.614-0.176-1.81-0.0989l-0.891 0.0572q-2.39 0.154-3.14 0.621-0.806 0.498-0.715 1.92 0.0513 0.799 0.255 1.26 0.21 0.46 0.728 0.696 0.524 0.23 1.47 0.223 0.162 3.6e-4 2.29-0.0714 2.13-0.0719 3.11 0.118 0.994 0.189 1.64 0.928 0.65 0.733 0.747 2.25 0.0753 1.17-0.0964 1.98-0.172 0.802-0.82 1.36-0.648 0.553-1.97 0.745-1.26 0.189-2.96 0.298-1.41 0.0905-2.36 0.0441-0.954-0.0518-1.71-0.364-0.753-0.312-1.2-1.03-0.45-0.714-0.527-1.92-7e-3 -0.113-8e-3 -0.317-7.4e-4 -0.204-8e-3 -0.317l1.68-0.108q0.0819 1.28 0.362 1.86 0.286 0.584 0.994 0.776 0.708 0.186 2.17 0.0919l1.45-0.0929q1.4-0.0901 2.1-0.291 0.695-0.206 0.976-0.757 0.281-0.556 0.207-1.7-0.0602-0.938-0.276-1.39-0.21-0.46-0.736-0.626-0.526-0.165-1.57-0.131-1.47 0.0405-2.88 0.0663t-2.42-0.205q-1.01-0.231-1.65-0.982-0.639-0.756-0.732-2.22-0.0987-1.54 0.482-2.37 0.58-0.828 1.7-1.15 1.12-0.33 2.92-0.445l0.402-0.0258q1.44-0.0925 2.39-0.0564 0.952 0.0304 1.7 0.322 0.745 0.291 1.19 1 0.449 0.703 0.528 1.93z"/>
    <path d="m140 171 1.7-0.109q0.085 1.32-0.43 2.01-0.509 0.679-1.45 0.927-0.941 0.243-2.57 0.348-1.53 0.0981-2.5-0.0766-0.962-0.175-1.51-0.667-0.547-0.498-0.807-1.34-0.253-0.85-0.341-2.21-0.12-1.87 0.0988-2.91 0.218-1.05 1.17-1.67 0.96-0.627 3.01-0.759 2.05-0.131 3.1 0.173 1.05 0.299 1.49 1.18 0.441 0.876 0.59 2.7l0.0468 0.729-7.81 0.501q0.0836 1.3 0.263 1.96 0.185 0.661 0.836 1.02 0.657 0.362 2.04 0.273l0.433-0.0278q1.36-0.0873 2.04-0.411 0.681-0.329 0.617-1.33zm-0.141-2.68q-0.0815-1.27-0.311-1.85-0.223-0.578-0.888-0.772-0.658-0.195-2.08-0.103-1.25 0.0802-1.88 0.385-0.633 0.299-0.841 0.931-0.208 0.632-0.133 1.8z"/>
    <path d="m142 164 1.57-0.101 0.0444 1.08q0.845-1.36 2.88-1.49 3.14-0.202 3.36 3.13l-1.57 0.101q-0.0698-1.09-0.482-1.61-0.412-0.517-1.58-0.442-2.54 0.163-2.4 2.36l0.403 6.28-1.62 0.104z"/>
    <path d="m160 163-3.05 9.65-2.28 0.146-4.17-9.19 1.62-0.104 3.65 8.12 2.45-8.51z"/>
    <path d="m162 159 0.1 1.56-1.65 0.106-0.1-1.56zm0.864 13.5-1.65 0.106-0.604-9.42 1.65-0.106z"/>
    <path d="m172 168 1.62-0.104q0.0929 1.45-0.316 2.23-0.403 0.779-1.36 1.12-0.953 0.341-2.69 0.452-1.69 0.109-2.68-0.118-0.99-0.232-1.49-0.809-0.491-0.582-0.67-1.44-0.173-0.855-0.273-2.42-0.107-1.66 0.234-2.65 0.34-0.991 1.35-1.51 1.02-0.528 2.91-0.65 2.09-0.134 3.26 0.377 1.18 0.506 1.29 2.22l0.0196 0.306-1.57 0.101q-0.0547-0.852-0.342-1.27-0.281-0.418-0.849-0.543-0.561-0.125-1.55-0.0619-1.48 0.0949-2.14 0.385-0.658 0.29-0.839 0.958-0.181 0.663-0.0906 2.07l0.0605 0.943q0.0802 1.25 0.282 1.87 0.208 0.622 0.866 0.919 0.658 0.291 2.03 0.204 1.31-0.0838 1.91-0.268 0.609-0.19 0.849-0.711 0.239-0.527 0.17-1.61z"/>
    <path d="m182 168 1.7-0.109q0.085 1.32-0.43 2.01-0.509 0.679-1.45 0.927-0.941 0.243-2.57 0.348-1.53 0.0981-2.5-0.0766-0.962-0.175-1.51-0.667-0.547-0.498-0.807-1.34-0.253-0.85-0.341-2.21-0.12-1.87 0.0988-2.91 0.218-1.05 1.17-1.67 0.96-0.627 3.01-0.759 2.05-0.131 3.1 0.173 1.05 0.299 1.49 1.18 0.441 0.876 0.59 2.7l0.0468 0.729-7.81 0.501q0.0836 1.3 0.263 1.96 0.185 0.661 0.836 1.02 0.657 0.362 2.04 0.273l0.433-0.0278q1.36-0.0873 2.04-0.411 0.681-0.329 0.617-1.33zm-0.141-2.68q-0.0815-1.27-0.311-1.85-0.223-0.578-0.888-0.772-0.658-0.195-2.08-0.103-1.25 0.0802-1.88 0.385-0.633 0.299-0.841 0.931t-0.133 1.8z"/>
   </g>
   <path d="m20.6 164 0.141 2.17c165-10.6 165-10.6 165-10.6l1.08-0.0703-0.125-2.1c-147 9.34-0.0232-0.0706-166 10.6z" color="#000000" style="-inkscape-stroke:none"/>
  </g>
  <path d="m65.7 51.8c32-6.28 50.8-30.6 83.6-28.3 34.9 2.46 32.5 39.6-1.76 44.5-38.4 5.51-64.3-10.2-91.3-11.9-14.3-0.974-34.4 3.47-43.9 15.1 12.6-5.73 24-9.89 38.2-9.25 32.8 1.8 67.2 27.2 108 13.2 36.5-12.7 24.8-57.9-10.6-60.9-28.5-2.16-51.2 22.9-75.1 33.9" color="#000000" fill="#ff4000" stroke-width="1.3"/>
  <path d="m148 13.8c-16.3-1.51-29.8 5.62-42.7 14.2-12.8 8.53-30.3 19.9-37.1 22.5-1.82 0.94-3.81 1.57-2.59 1.57 14.4-1.89 29.7-10.6 41.4-16.7 12.9-6.62 25.7-12.1 41.9-10.9 17.2 1.21 25 10.7 24.6 20.5-0.442 9.77-9.21 19.9-26.1 22.3-19.1 2.74-33.8 0.411-47.8-2.91-14-3.32-27.3-7.65-43.4-8.77-14.3-0.979-33.3 3.46-43.6 14.8-0.931 1.14-0.409 0.571-1.68 2.14l2.11-1.01c12.3-5.39 23.3-9.29 37.4-8.59 17.8 0.835 40.3 9.98 58.5 14 18.9 4.18 32.4 4.71 50-0.595 18.5-6.43 25.1-21.9 22.2-35.3-2.88-13.4-14.9-25.6-32.9-27.3zm-0.0186 1.24c17.5 1.61 29 13.4 31.8 26.3s-3.28 27.3-21.2 33.6c-17.8 6.19-34.4 4.39-52.6-0.132-18.1-4.52-37.4-12.2-55.5-13.1-12-0.566-23.7 2.91-36.9 8.68 6.76-5.71 11.9-8.49 19.4-10.9 8.13-2.64 16.8-2.98 23.2-2.55 16 1.1 29.2 5.37 43.2 8.72 14.1 3.34 28.9 5.71 48.2 2.94 17.3-2.49 26.8-13.1 27.2-23.6 0.475-10.4-8.08-20.5-25.8-21.8-16.6-1.17-27.1 3.34-39.9 9.99-13 6.85-17.1 8.95-25.7 12.8-7.8 3.47-13.2 4.54-14.7 5.04-2.39 0.797 10.4-3.63 36.6-21.6 12.8-8.53 26.8-15.9 42.7-14.4z" color="#000000" fill="#993f00" stroke-width="10.2"/>
  <path d="m175 68.7-11.5 7.4c31.6 23.5 3.19 34.4-15.2 37.7-32.5 5.41-63.2-12.8-95.9-11.5-13 0.548-28.6 4.71-38.5 15.3 13.7-4.47 25.8-10.4 40.8-9.2 33.2 2.62 66.6 22.2 101 14.7 25.6-5.65 42.2-33.9 19.4-54.4" color="#000000" fill="#4b3737" stroke-width="1.3"/>
  <path d="m170 71.8c-2.34 1.58-7.48 4.06-7.48 4.06l3.55 2.64c6.97 5.1 10.4 9.61 11.4 13.4 1.07 3.85-0.132 7.11-2.79 9.93-5.32 5.73-16.5 9.55-25.7 11.2-16.1 2.68-31.7-0.487-47.5-4.19-15.7-3.72-31.6-7.96-48.1-7.31-13 0.548-26.3 4.04-34.6 11.5-2.89 2.8-6.45 5.98-3.15 4.7 13.8-4.49 25.3-9.95 40.2-8.77 16.5 1.3 33.2 6.82 50 11.1 16.8 4.29 33.8 7.35 50.8 3.59 13-2.87 23.8-11.6 28.5-22.2 4.65-10.4 2.99-22.4-8.51-33.8-1.32-1.24-0.634-1.13-2.68 0.72-2.2 1.98-2.54 2.33-3.97 3.29zm5.79-2.69c10.6 9.49 12.7 21.9 8.2 31.9-4.56 10.1-15.1 18.6-27.6 21.4-16.7 3.7-33.4 0.698-50.2-3.56-16.8-4.28-33.5-9.85-50.2-11.2-13.5-1.06-27.4 4.74-39.3 8.9 10.1-9.87 19.6-12.1 35.2-13.8 15.5-0.447 33.6 3.58 49.4 7.32 15.8 3.73 31.6 6.94 48 4.22l0.021-9.7e-4c9.29-1.64 20.7-5.37 26.5-11.5 2.87-3.09 4.27-6.9 3.08-11.2-1.14-4.09-7.33-10.6-13.8-15.5 0 0 4.19-2.15 5.99-3.33s4.82-3.7 4.82-3.7z" color="#000000" fill="#2d1e1e" stroke-width="10.2"/>
 </g>
 <path d="m2.5 46.9c0-6.26-2.99e-4 -40.9-2.99e-4 -44.5 5.4-0.0161 40.5 6.6e-6 44.7 0 0 2.56-0.0146 42.5 0 44.5-2.3 0-29.4-8.61e-4 -44.7 0zm37.6-6.57c0-5.28-0.0072-29.7 0-31.4-3.36 0-25 1.7e-4 -30.4 1.7e-4l3e-7 31.4zm-25.4-25.4h20v20h-20zm-12.2 188h44.7v44.5h-44.7c-0.21-10.9 0-38.9 0-44.5zm37.6 7h-30.4v31h30.4zm-25.1 5 20-3.7e-4v20.9l-20 0.1zm188-168c7e-3 -12.2-0.2-34.8-0.2-44.5h44.7v44.5zm38-6.57v-31.4h-31v31.4zm-26-25.4h20v20h-20z"/>
</svg>
