<?xml version="1.0" encoding="UTF-8"?>
<svg version="1.1" viewBox="0 0 200 200" xmlns="http://www.w3.org/2000/svg"><title>blessing transport service logo</title><style>#g1 {fill:#2d1e1e;} #p1 {color:#000; fill:#fff;} #p2, #p3 {color:#000;} #p4 {color:#000;fill:#ff4000;} #p5 {color:#000;fill:#993f00;} #p6 {color:#000;fill:#4b3737;} #p7 {color:#000;fill:#2d1e1e;} @media (prefers-color-scheme: dark) {#g1 {fill:#2d1e1e;} #p1 {color:#cacaca; fill:#c5c5c5;} #p2, #p3 {color:#000;} #p4 {color:#000;fill:#ff4000;} #p5 {color:#000;fill:#993f00;} #p6 {color:#000;fill:#4b3737;} #p7 {color:#000;fill:#2d1e1e;}}</style><path id="p1" d="m3.79 18.2 182-11.2 10.7 175-182 11.2z" stroke-linecap="round" stroke-width=".484"/><g id="g1" transform="matrix(2 0 0 2 .0307 -.045)"><path id="p2" d="m93.3 2.99-91.8 5.51 4.99 87.6h-.001l.08.805 92.2-5.4-5.39-87.5zm-.975 1.08 5.41 86.4-90.3 5.44-4.76-86.2z" stroke-width=".5"/><g id="g2" stroke-width=".545"><path d="m10.4 80.4-.785-12.2 6.98-.448q1.32-.0848 2.15.146.829.226 1.26.863.436.633.511 1.79.076 1.18-.249 1.84-.319.652-1.47 1.06 1.41.242 1.92.865.517.618.598 1.88.0741 1.15-.224 1.95-.292.797-1.09 1.26-.797.467-2.21.557zm6.98-6.14-5.73.368.287 4.47 4.46-.287q1.4-.09 2.06-.264.658-.174.935-.672.277-.497.209-1.55-.0701-1.09-.511-1.62-.441-.525-1.72-.443zm-.917-5.31-5.15.331.264 4.11 4.59-.294q1.11-.0711 1.7-.295.597-.224.816-.713.225-.489.168-1.37-.0716-1.12-.567-1.49-.489-.37-1.81-.285z"/><path d="m23.2 67.2.703 11 7.36-.473.0819 1.28-9.12.585-.785-12.2z"/><path d="m33 67.9.265 4.13 7.41-.476.0744 1.16-7.41.476.289 4.51 7.74-.497.0769 1.2-9.33.599-.785-12.2 9.33-.599.0794 1.24z"/><path d="m52.2 68.8-1.59.102q-.124-.941-.387-1.4-.262-.458-.837-.612-.575-.159-1.7-.0866l-.835.0536q-2.24.144-2.94.571-.757.455-.674 1.75.0466.726.237 1.15.196.418.681.632.491.208 1.38.2.151 7e-5 2.14-.0691 1.99-.0692 2.92.101.931.17 1.53.841.607.666.696 2.04.0685 1.07-.0939 1.8-.163.73-.77 1.24-.608.504-1.85.681-1.18.174-2.78.276-1.32.0848-2.22.0443-.894-.0454-1.6-.328-.705-.283-1.13-.931-.42-.648-.49-1.74-.0066-.102-.0069-.288-.000292-.186-.0069-.288l1.57-.101q.0744 1.16.336 1.69.267.531.93.704.663.168 2.04.0797l1.36-.0871q1.32-.0845 1.97-.268.652-.189.916-.69.264-.506.197-1.55-.0547-.853-.256-1.27-.196-.418-.688-.567-.493-.149-1.47-.116-1.38.0394-2.7.0655-1.32.026-2.26-.182-.945-.208-1.54-.889-.597-.686-.682-2.02-.0898-1.4.456-2.15.545-.754 1.59-1.05 1.05-.302 2.73-.41l.377-.0242q1.35-.0867 2.24-.0556.892.0259 1.59.289.698.263 1.11.907.419.639.491 1.75z"/><path d="m63.9 68-1.59.102q-.124-.941-.387-1.4-.262-.458-.837-.612-.575-.159-1.7-.0866l-.835.0536q-2.24.144-2.94.571-.757.455-.674 1.75.0466.726.237 1.15.196.418.681.632.491.208 1.38.2.151 7e-5 2.14-.0691 1.99-.0692 2.92.101.931.17 1.53.841.607.666.696 2.04.0685 1.07-.0939 1.8-.163.73-.77 1.24-.608.504-1.85.681-1.18.174-2.78.276-1.32.0848-2.22.0443-.894-.0454-1.6-.328-.705-.283-1.13-.931-.42-.648-.49-1.74-.0066-.102-.0069-.288-.00029-.186-.0069-.288l1.57-.101q.0744 1.16.336 1.69.267.531.93.704.663.168 2.04.0797l1.36-.0871q1.32-.0845 1.97-.268.652-.189.916-.69.264-.506.197-1.55-.0547-.853-.256-1.27-.196-.418-.688-.567-.493-.149-1.47-.116-1.38.0394-2.7.0655-1.32.026-2.26-.182-.945-.208-1.54-.889-.597-.686-.682-2.02-.0898-1.4.456-2.15.545-.754 1.59-1.05 1.05-.302 2.73-.41l.377-.0242q1.35-.0867 2.24-.0556.892.0259 1.59.289.698.263 1.11.907.419.639.491 1.75z"/><path d="m66.5 64.5.785 12.2-1.63.105-.785-12.2z"/><path d="m79.7 63.6.785 12.2-2.66.171-8.88-10.5.71 11.1-1.59.102-.785-12.2 2.64-.169 8.91 10.7-.717-11.2z"/><path d="m86.6 69.3 6.22-.399q.0758.455.132 1.33l.0563.877q.109 1.71-.406 2.75-.51 1.04-2.34 1.32-1.62.202-2.99.289-2.43.156-3.72-.128t-1.89-1.22q-.596-.94-.718-2.84-.0366-.57-.0963-1.68t-.0957-1.67q-.104-1.63.297-2.63t1.47-1.52q1.07-.519 2.98-.641 2.33-.15 3.52-.187 1.79-.0711 2.64.667.85.733.949 2.27l.0282.439-1.59.102q-.0801-1.25-.521-1.77-.436-.53-1.79-.482-1.02.0265-3.04.156-1.58.102-2.27.39-.68.283-.87.961-.184.672-.115 2.2l.0572 1.62.157 1.72q.0604.94.21 1.54.155.597.642 1.02.493.423 1.46.493.789.0521 2.36-.0488l.852-.0547q1.45-.093 2.13-.332.683-.24.903-.811.225-.572.15-1.75l-.0679-1.06-4.63.297z"/></g><g id="g3" stroke-width=".537"><path d="m15.2 84.5.385 6.01-.888.057-.385-6.01-2.51.161-.0464-.724 5.88-.377.0464.724z"/><path d="m18.1 85.6.786-.0504.0222.539q.422-.678 1.44-.744 1.57-.101 1.68 1.57l-.786.0504q-.0349-.544-.241-.803t-.791-.221q-1.27.0814-1.2 1.18l.201 3.14-.81.052z"/><path d="m23.4 86.6-.838.0538q-.0566-.882.444-1.16.501-.28 1.61-.351.835-.0536 1.34.0299.505.0833.791.426.286.34.331 1.05l.197 3.06-.77.0494.0178-.496q-.287.368-.719.509-.429.138-1.08.18-.73.0468-1.19-.0366-.462-.0834-.727-.392-.265-.309-.305-.928-.0378-.59.202-.917.24-.33.682-.461.445-.131 1.14-.175.64-.0411 1.06.0125.426.0534.702.348l-.0351-.547q-.038-.592-.173-.853-.135-.263-.456-.331-.321-.0682-1.03-.023-.767.0492-1.03.254-.232.16-.208.53.0019.0295.0175.0796.0186.0472.021.0848zm-.0604 1.87q.038.592.323.779.288.186.984.141.535-.0344.897-.103.365-.0692.622-.279.26-.21.233-.623-.037-.576-.422-.713-.385-.139-1.14-.0908l-.204.0131q-.885.0568-1.14.283-.183.144-.154.594z"/><path d="m27.5 85 .733-.047.0394.614q.283-.433.734-.618t1.08-.226q.742-.0476 1.18.0833.437.131.653.491t.257 1l.2 3.12-.823.0528-.197-3.06q-.0306-.477-.149-.717-.118-.24-.406-.324-.285-.084-.851-.0476-1.61.103-1.52 1.45l.185 2.89-.81.052z"/><path d="m37.1 85.6-.81.052q-.0291-.453-.369-.576-.34-.126-.922-.0888l-.405.026q-.575.0369-.863.203-.285.164-.257.595.0188.292.0935.441.0746.146.249.207.175.0588.519.0582.557-.025 1.1-.0488.539-.0238.954.0518t.69.349q.275.273.31.82.0416.649-.214.98-.252.328-.723.447-.468.116-1.26.167-.724.0464-1.21.0025-.487-.0441-.833-.302-.343-.261-.38-.834-.0119-.185-.0045-.263l.81-.052q.027.421.161.627.137.204.411.264.274.0578.784.025l.189-.0121q.965-.0619 1.26-.269.232-.163.198-.696-.0298-.464-.288-.571-.259-.11-.784-.0761l-.331.0212q-.0186.001-.0749-.0059-.0564-.0071-.078-.0057-.804.0085-1.06.0035-.258-.0077-.569-.103-.311-.0985-.5-.345-.19-.249-.219-.696-.0538-.839.324-1.1.526-.376 1.74-.453.671-.0431 1.17.0167.494.0571.835.326.343.266.378.815z"/><path d="m37.7 84.3.786-.0504.0146.615q.269-.405.674-.573.405-.169 1.01-.207.937-.0602 1.43.183.494.24.671.732.177.489.231 1.33.0406.632.0021 1.05-.0385.417-.225.746-.187.33-.599.531-.413.199-1.11.244-.612.0393-1.07-.0581-.454-.1-.759-.452l.166 2.59-.786.0504zm.939 2.14.0232.362q.0361.563.16.894.124.331.464.503.343.172.987.13.702-.045 1.01-.251.31-.206.369-.54.0622-.338.0214-.973l-.0177-.276q-.0432-.673-.139-1.01-.0959-.333-.427-.5-.331-.167-1.03-.122-.69.0442-1.01.237-.317.19-.391.536-.0709.346-.0286 1.01z"/><path d="m42.9 86.2q-.0549-.855.0839-1.35.142-.499.622-.766.48-.27 1.45-.333 1.05-.0671 1.59.0973.545.161.77.626t.284 1.38q.0616.959-.0198 1.48-.0783.522-.547.867-.466.342-1.52.41-1.01.0649-1.56-.0667-.546-.134-.807-.573-.258-.438-.314-1.32zm.823-.0528.0255.397q.0697 1.09.417 1.37.245.183.888.142l.393-.0252q.52-.0334.821-.125.302-.092.458-.32.159-.228.162-.662-.0086-.376-.0537-1.08-.0439-.683-.132-.995-.0852-.312-.38-.447-.291-.137-.938-.0959l-.176.0113q-.73.0468-1.05.186-.317.139-.405.462-.0849.323-.0398 1.03z"/><path d="m48 83.7.786-.0504.0222.539q.422-.678 1.44-.744 1.57-.101 1.68 1.57l-.786.0504q-.0349-.544-.241-.803-.206-.259-.791-.221-1.27.0814-1.2 1.18l.201 3.14-.81.052z"/><path d="m55.8 83.2.0366.571-2.09.134.185 2.88q.0274.426.186.572.158.143.622.113.507-.0326.634-.237.127-.205.0982-.647l-.0189-.295.758-.0486q.055.858-.218 1.3-.27.445-1.22.506-.603.0387-.954-.0599-.348-.0988-.515-.373t-.199-.781l-.185-2.88-.711.0456-.0366-.571.711-.0456-.0726-1.13.823-.0528.0726 1.13z"/><path d="m65.5 82.4-.847.0544q-.0674-.518-.208-.77-.14-.252-.447-.337-.307-.088-.907-.0494l-.445.0286q-1.2.0768-1.57.311-.403.249-.358.959.0256.399.128.632.105.23.364.348.262.115.737.111.0808.00018 1.14-.0357 1.06-.036 1.56.0589.497.0946.819.464.325.367.373 1.13.0376.587-.0482.991-.0861.401-.41.68-.324.276-.985.373-.631.0943-1.48.149-.705.0452-1.18.022-.477-.0259-.856-.182-.376-.156-.601-.513t-.263-.96q-.0035-.0563-.004-.159-.00037-.102-.004-.159l.838-.0538q.041.638.181.93.143.292.497.388.354.093 1.09.046l.724-.0464q.702-.045 1.05-.145.347-.103.488-.378.141-.278.104-.852-.0301-.469-.138-.696-.105-.23-.368-.313t-.784-.0654q-.735.0202-1.44.0332-.704.0129-1.21-.103-.504-.116-.823-.491-.319-.378-.366-1.11-.0494-.769.241-1.18.29-.414.848-.577.558-.165 1.46-.223l.201-.0129q.721-.0462 1.19-.0282.476.0152.849.161.373.146.594.5.224.352.264.965z"/><path d="m70.2 85.5.851-.0546q.0425.662-.215 1-.255.339-.725.464-.47.122-1.28.174-.764.049-1.25-.0383-.481-.0876-.757-.334-.274-.249-.403-.671-.127-.425-.17-1.11-.0599-.933.0494-1.46.109-.526.586-.837.48-.313 1.51-.379 1.02-.0657 1.55.0863.525.149.743.59.221.438.295 1.35l.0234.364-3.9.251q.0418.651.131.982.0926.33.418.511.328.181 1.02.136l.216-.0139q.68-.0436 1.02-.205.34-.164.308-.663zm-.0703-1.34q-.0408-.635-.156-.924-.112-.289-.444-.386-.329-.0973-1.04-.0516-.625.0401-.941.192-.316.149-.42.466-.104.316-.0664.9z"/><path d="m71.2 82.2.786-.0504.0222.539q.422-.678 1.44-.744 1.57-.101 1.68 1.57l-.786.0504q-.0349-.544-.241-.803-.206-.259-.791-.221-1.27.0814-1.2 1.18l.201 3.14-.81.052z"/><path d="m80.2 81.6-1.52 4.83-1.14.0732-2.09-4.59.81-.052 1.83 4.06 1.23-4.26z"/><path d="m81.2 79.5.0501.78-.823.0528-.0501-.78zm.432 6.73-.823.0528-.302-4.71.823-.0528z"/><path d="m85.9 84.2.81-.052q.0464.724-.158 1.12-.202.39-.678.56-.477.171-1.34.226-.847.0544-1.34-.0592-.495-.116-.743-.404-.245-.291-.335-.719-.0865-.428-.137-1.21-.0533-.831.117-1.32.17-.495.675-.756.508-.264 1.46-.325 1.05-.0671 1.63.189.588.253.643 1.11l.0098.153-.786.0504q-.0274-.426-.171-.635-.141-.209-.424-.271-.28-.0627-.775-.031-.739.0474-1.07.192-.329.145-.42.479-.0905.331-.0453 1.04l.0302.472q.0401.624.141.936.104.311.433.459.329.146 1.01.102.653-.0419.957-.134.304-.0949.424-.356.12-.263.085-.805z"/><path d="m91.1 84.2.851-.0546q.0425.662-.215 1-.255.339-.725.464-.47.122-1.28.174-.764.049-1.25-.0383-.481-.0876-.757-.334-.274-.249-.403-.671-.127-.425-.17-1.11-.0599-.933.0494-1.46.109-.526.586-.837.48-.313 1.51-.379 1.02-.0657 1.55.0863.525.149.743.59.221.438.295 1.35l.0234.364-3.9.251q.0418.651.131.982.0926.33.418.511.328.181 1.02.136l.216-.0139q.68-.0436 1.02-.205.34-.164.308-.663zm-.0703-1.34q-.0408-.635-.156-.924-.112-.289-.444-.386-.329-.0973-1.04-.0516-.625.0401-.941.192-.316.149-.42.466t-.0664.9z"/></g><path id="p3" d="m10.3 81.8.0703 1.08c82.4-5.29 82.5-5.29 82.5-5.29l.542-.0352-.0625-1.05c-73.4 4.67-.0116-.0353-83 5.29z" stroke-width=".5"/></g><path id="p4" d="m66.2 51.4c32-6.28 53.2-31.8 83.2-27.8 34.8 2.46 32.4 39.6-1.76 44.6-38.4 5.52-64.2-10.2-91.2-11.9-14.3-.974-34.4 3.29-44 14.9 12.6-5.72 24-9.69 38.2-9.05 32.8 1.8 67.2 27.2 108 13.2 36.4-12.7 24.8-57.8-10.6-60.8-18.9-1.67-33.4 7.5-53.5 21.2-22.6 13.8-28.3 15.7-28.3 15.7" stroke-width="1.3"/><path id="p5" d="m148 13.6c-16.3-1.51-29.8 5.67-42.8 14.3-12.8 8.54-31.5 20.3-38.3 22.9-3.02 1.16-3.22 1.37-1.52 1.11 14.4-1.89 29.8-10.6 41.4-16.7 12.9-6.62 25.8-12.1 42-10.9 17.2 1.21 25 10.7 24.6 20.4-.442 9.76-9.22 19.9-26.2 22.4-19.1 2.74-33.8.41-47.8-2.9-14-3.32-27.2-7.66-43.4-8.76-9.84-.676-21.8 1.23-31.7 6.22-4.44 2.24-8.47 5.1-11.7 8.62-.932 1.14-.59.572-1.86 2.14l2.1-1.01c12.3-5.38 23.2-9.3 37.4-8.58 17.8.836 40.2 9.98 58.6 14 18.9 4.18 32.4 4.72 50-.594 18.5-6.42 25-21.8 22.2-35.4-2.88-13.4-15-25.6-33-27.2zm-.379 1.14c17.5 1.61 29.3 13.5 32.1 26.4s-3.28 27.4-21.2 33.6c-17.8 6.2-34.4 4.38-52.6-.132-18.1-4.52-37.4-12.2-55.6-13.1-12-.566-23.5 2.57-37 8.9 6.61-5.89 11.9-8.72 19.4-11.1 8.14-2.64 16.8-2.98 23.2-2.56 16 1.1 29.2 5.36 43.2 8.72 14.1 3.34 29 5.72 48.2 2.94 17.3-2.48 26.8-13.1 27.2-23.6.474-10.4-8.08-20.6-25.8-21.8-16.6-1.17-27 3.34-40 10-13 6.84-17.1 8.96-25.8 12.8-.677.302-1.34.586-1.98.853-6.74 2.81-11.4 3.73-12.8 4.19-2.4.798 10.4-3.64 36.6-21.6 12.8-8.54 26.9-16 42.9-14.5z" stroke-width="10.2"/><path id="p6" d="m175 67.5s-2.02 2.17-4.4 4.05c-2.74 1.79-7.41 4.08-7.41 4.08 32.5 22.9 4.39 34.9-14 38.1-32.4 5.42-63.2-12.1-96-11.5-13 .548-26 3.24-38 14.8 13.7-4.48 25.4-9.96 40.4-8.84 35.7 3.38 70 22.6 101 14.4 25.6-6.84 42.2-33.2 18.4-55.1" stroke-width="1.3"/><path id="p7" d="m168 72.1c-2.41 1.56-6.18 3.3-6.18 3.3l3.78 3c6.96 5.1 10.4 9.6 11.4 13.4 1.07 3.84-.132 7.1-2.8 9.94-5.32 5.74-16.5 9.54-25.6 11.2-16.1 2.68-31.8-.488-47.4-4.18-15.7-3.72-31.6-7.96-48-7.32-13 .548-24.8 4.12-34.6 12-4.75 4.38-6.78 5.49-3.5 4.21 3.56-1.16 7.31-2.41 10.7-3.57 9.61-3.33 18.8-6.1 29.9-5.23 16.5 1.3 33.2 6.82 50 11.1 16.8 4.3 33.8 7.36 50.8 3.58 13-2.88 23.8-11.6 28.6-22.2 4.66-10.4 3-22.5-8.52-33.9-.729-.72-.88-.94-1.48-1.49-.507.559-1.1 1.21-1.89 2.03-1.12 1.07-1.92 1.73-2.9 2.56 0 0-.79.6-2.32 1.59zm6.99-4.18c11.3 10.5 14.4 23.6 8 34.8-5.33 9.22-14.5 16.9-27.1 19.7-16.7 3.7-33.4.698-50.2-3.56-16.8-4.28-33.4-9.84-50.2-11.2-13.5-1.06-27.4 4.74-39.2 8.9 10.1-9.88 22.8-13.3 35.2-14.1 15.5-.448 33.6 3.9 49.4 7.64 15.8 3.72 31.6 6.94 48 4.22l.021-.00097c9.3-1.64 20.8-5.38 26.4-11.5 2.86-3.08 4.26-6.9 3.08-11.2-2.22-7.18-8.06-11.1-14.5-16.1 0 0 4.56-2.34 6.36-3.52s4.74-4.04 4.74-4.04z" stroke-width="10.2"/></svg>
