<?xml version="1.0" encoding="UTF-8"?>
<svg width="32" height="32" version="1.1" viewBox="0 0 32 32" xmlns="http://www.w3.org/2000/svg" xmlns:cc="http://creativecommons.org/ns#" xmlns:dc="http://purl.org/dc/elements/1.1/" xmlns:rdf="http://www.w3.org/1999/02/22-rdf-syntax-ns#">
 <title>blessing transport service logo</title>
 <g transform="matrix(.31 0 0 .31 .504 .492)" stroke-width="3.23">
  <path d="m1.88 9.14 90.9-5.58 5.36 87.3-91 5.58z" color="#000000" fill="#fff" stroke-linecap="round" stroke-width=".781" style="-inkscape-stroke:none;paint-order:stroke fill markers"/>
  <g fill="#2d1e1e">
   <path d="m93 3.44-91.4 5.46 5.24 87.2h-1e-3l0.0303 0.505 91.5-5.5-5.39-87.1zm-0.475 0.535 5.36 86.6-90.5 5.44-5.21-86.6z" color="#000000" stroke-width="1.61" style="-inkscape-stroke:none"/>
   <g stroke-width="1.76">
    <path d="m10.4 80.4-0.785-12.2 6.98-0.448q1.32-0.0848 2.15 0.146 0.829 0.226 1.26 0.863 0.436 0.633 0.511 1.79 0.076 1.18-0.249 1.84-0.319 0.652-1.47 1.06 1.41 0.242 1.92 0.865 0.517 0.618 0.598 1.88 0.0741 1.15-0.224 1.95-0.292 0.797-1.09 1.26-0.797 0.467-2.21 0.557zm6.98-6.14-5.73 0.368 0.287 4.47 4.46-0.287q1.4-0.09 2.06-0.264 0.658-0.174 0.935-0.672 0.277-0.497 0.209-1.55-0.0701-1.09-0.511-1.62-0.441-0.525-1.72-0.443zm-0.917-5.31-5.15 0.331 0.264 4.11 4.59-0.294q1.11-0.0711 1.7-0.295 0.597-0.224 0.816-0.713 0.225-0.489 0.168-1.37-0.0716-1.12-0.567-1.49-0.489-0.37-1.81-0.285z"/>
    <path d="m23.2 67.2 0.703 11 7.36-0.473 0.0819 1.28-9.12 0.585-0.785-12.2z"/>
    <path d="m33 67.9 0.265 4.13 7.41-0.476 0.0744 1.16-7.41 0.476 0.289 4.51 7.74-0.497 0.0769 1.2-9.33 0.599-0.785-12.2 9.33-0.599 0.0794 1.24z"/>
    <path d="m52.2 68.8-1.59 0.102q-0.124-0.941-0.387-1.4-0.262-0.458-0.837-0.612-0.575-0.159-1.7-0.0866l-0.835 0.0536q-2.24 0.144-2.94 0.571-0.757 0.455-0.674 1.75 0.0466 0.726 0.237 1.15 0.196 0.418 0.681 0.632 0.491 0.208 1.38 0.2 0.151 7e-5 2.14-0.0691 1.99-0.0692 2.92 0.101 0.931 0.17 1.53 0.841 0.607 0.666 0.696 2.04 0.0685 1.07-0.0939 1.8-0.163 0.73-0.77 1.24-0.608 0.504-1.85 0.681-1.18 0.174-2.78 0.276-1.32 0.0848-2.22 0.0443-0.894-0.0454-1.6-0.328-0.705-0.283-1.13-0.931-0.42-0.648-0.49-1.74-0.0066-0.102-0.0069-0.288-2.92e-4 -0.186-0.0069-0.288l1.57-0.101q0.0744 1.16 0.336 1.69 0.267 0.531 0.93 0.704 0.663 0.168 2.04 0.0797l1.36-0.0871q1.32-0.0845 1.97-0.268 0.652-0.189 0.916-0.69 0.264-0.506 0.197-1.55-0.0547-0.853-0.256-1.27-0.196-0.418-0.688-0.567-0.493-0.149-1.47-0.116-1.38 0.0394-2.7 0.0655-1.32 0.026-2.26-0.182-0.945-0.208-1.54-0.889-0.597-0.686-0.682-2.02-0.0898-1.4 0.456-2.15 0.545-0.754 1.59-1.05 1.05-0.302 2.73-0.41l0.377-0.0242q1.35-0.0867 2.24-0.0556 0.892 0.0259 1.59 0.289 0.698 0.263 1.11 0.907 0.419 0.639 0.491 1.75z"/>
    <path d="m63.9 68-1.59 0.102q-0.124-0.941-0.387-1.4-0.262-0.458-0.837-0.612-0.575-0.159-1.7-0.0866l-0.835 0.0536q-2.24 0.144-2.94 0.571-0.757 0.455-0.674 1.75 0.0466 0.726 0.237 1.15 0.196 0.418 0.681 0.632 0.491 0.208 1.38 0.2 0.151 7e-5 2.14-0.0691 1.99-0.0692 2.92 0.101 0.931 0.17 1.53 0.841 0.607 0.666 0.696 2.04 0.0685 1.07-0.0939 1.8-0.163 0.73-0.77 1.24-0.608 0.504-1.85 0.681-1.18 0.174-2.78 0.276-1.32 0.0848-2.22 0.0443-0.894-0.0454-1.6-0.328-0.705-0.283-1.13-0.931-0.42-0.648-0.49-1.74-0.0066-0.102-0.0069-0.288-2.9e-4 -0.186-0.0069-0.288l1.57-0.101q0.0744 1.16 0.336 1.69 0.267 0.531 0.93 0.704 0.663 0.168 2.04 0.0797l1.36-0.0871q1.32-0.0845 1.97-0.268 0.652-0.189 0.916-0.69 0.264-0.506 0.197-1.55-0.0547-0.853-0.256-1.27-0.196-0.418-0.688-0.567-0.493-0.149-1.47-0.116-1.38 0.0394-2.7 0.0655-1.32 0.026-2.26-0.182-0.945-0.208-1.54-0.889-0.597-0.686-0.682-2.02-0.0898-1.4 0.456-2.15 0.545-0.754 1.59-1.05 1.05-0.302 2.73-0.41l0.377-0.0242q1.35-0.0867 2.24-0.0556 0.892 0.0259 1.59 0.289 0.698 0.263 1.11 0.907 0.419 0.639 0.491 1.75z"/>
    <path d="m66.5 64.5 0.785 12.2-1.63 0.105-0.785-12.2z"/>
    <path d="m79.7 63.6 0.785 12.2-2.66 0.171-8.88-10.5 0.71 11.1-1.59 0.102-0.785-12.2 2.64-0.169 8.91 10.7-0.717-11.2z"/>
    <path d="m86.6 69.3 6.22-0.399q0.0758 0.455 0.132 1.33l0.0563 0.877q0.109 1.71-0.406 2.75-0.51 1.04-2.34 1.32-1.62 0.202-2.99 0.289-2.43 0.156-3.72-0.128t-1.89-1.22q-0.596-0.94-0.718-2.84-0.0366-0.57-0.0963-1.68t-0.0957-1.67q-0.104-1.63 0.297-2.63t1.47-1.52q1.07-0.519 2.98-0.641 2.33-0.15 3.52-0.187 1.79-0.0711 2.64 0.667 0.85 0.733 0.949 2.27l0.0282 0.439-1.59 0.102q-0.0801-1.25-0.521-1.77-0.436-0.53-1.79-0.482-1.02 0.0265-3.04 0.156-1.58 0.102-2.27 0.39-0.68 0.283-0.87 0.961-0.184 0.672-0.115 2.2l0.0572 1.62 0.157 1.72q0.0604 0.94 0.21 1.54 0.155 0.597 0.642 1.02 0.493 0.423 1.46 0.493 0.789 0.0521 2.36-0.0488l0.852-0.0547q1.45-0.093 2.13-0.332 0.683-0.24 0.903-0.811 0.225-0.572 0.15-1.75l-0.0679-1.06-4.63 0.297z"/>
   </g>
   <g stroke-width="1.73">
    <path d="m15.2 84.5 0.385 6.01-0.888 0.057-0.385-6.01-2.51 0.161-0.0464-0.724 5.88-0.377 0.0464 0.724z"/>
    <path d="m18.1 85.6 0.786-0.0504 0.0222 0.539q0.422-0.678 1.44-0.744 1.57-0.101 1.68 1.57l-0.786 0.0504q-0.0349-0.544-0.241-0.803t-0.791-0.221q-1.27 0.0814-1.2 1.18l0.201 3.14-0.81 0.052z"/>
    <path d="m23.4 86.6-0.838 0.0538q-0.0566-0.882 0.444-1.16 0.501-0.28 1.61-0.351 0.835-0.0536 1.34 0.0299 0.505 0.0833 0.791 0.426 0.286 0.34 0.331 1.05l0.197 3.06-0.77 0.0494 0.0178-0.496q-0.287 0.368-0.719 0.509-0.429 0.138-1.08 0.18-0.73 0.0468-1.19-0.0366-0.462-0.0834-0.727-0.392-0.265-0.309-0.305-0.928-0.0378-0.59 0.202-0.917 0.24-0.33 0.682-0.461 0.445-0.131 1.14-0.175 0.64-0.0411 1.06 0.0125 0.426 0.0534 0.702 0.348l-0.0351-0.547q-0.038-0.592-0.173-0.853-0.135-0.263-0.456-0.331-0.321-0.0682-1.03-0.023-0.767 0.0492-1.03 0.254-0.232 0.16-0.208 0.53 0.0019 0.0295 0.0175 0.0796 0.0186 0.0472 0.021 0.0848zm-0.0604 1.87q0.038 0.592 0.323 0.779 0.288 0.186 0.984 0.141 0.535-0.0344 0.897-0.103 0.365-0.0692 0.622-0.279 0.26-0.21 0.233-0.623-0.037-0.576-0.422-0.713-0.385-0.139-1.14-0.0908l-0.204 0.0131q-0.885 0.0568-1.14 0.283-0.183 0.144-0.154 0.594z"/>
    <path d="m27.5 85 0.733-0.047 0.0394 0.614q0.283-0.433 0.734-0.618t1.08-0.226q0.742-0.0476 1.18 0.0833 0.437 0.131 0.653 0.491t0.257 1l0.2 3.12-0.823 0.0528-0.197-3.06q-0.0306-0.477-0.149-0.717-0.118-0.24-0.406-0.324-0.285-0.084-0.851-0.0476-1.61 0.103-1.52 1.45l0.185 2.89-0.81 0.052z"/>
    <path d="m37.1 85.6-0.81 0.052q-0.0291-0.453-0.369-0.576-0.34-0.126-0.922-0.0888l-0.405 0.026q-0.575 0.0369-0.863 0.203-0.285 0.164-0.257 0.595 0.0188 0.292 0.0935 0.441 0.0746 0.146 0.249 0.207 0.175 0.0588 0.519 0.0582 0.557-0.025 1.1-0.0488 0.539-0.0238 0.954 0.0518t0.69 0.349q0.275 0.273 0.31 0.82 0.0416 0.649-0.214 0.98-0.252 0.328-0.723 0.447-0.468 0.116-1.26 0.167-0.724 0.0464-1.21 0.0025-0.487-0.0441-0.833-0.302-0.343-0.261-0.38-0.834-0.0119-0.185-0.0045-0.263l0.81-0.052q0.027 0.421 0.161 0.627 0.137 0.204 0.411 0.264 0.274 0.0578 0.784 0.025l0.189-0.0121q0.965-0.0619 1.26-0.269 0.232-0.163 0.198-0.696-0.0298-0.464-0.288-0.571-0.259-0.11-0.784-0.0761l-0.331 0.0212q-0.0186 1e-3 -0.0749-0.0059-0.0564-0.0071-0.078-0.0057-0.804 0.0085-1.06 0.0035-0.258-0.0077-0.569-0.103-0.311-0.0985-0.5-0.345-0.19-0.249-0.219-0.696-0.0538-0.839 0.324-1.1 0.526-0.376 1.74-0.453 0.671-0.0431 1.17 0.0167 0.494 0.0571 0.835 0.326 0.343 0.266 0.378 0.815z"/>
    <path d="m37.7 84.3 0.786-0.0504 0.0146 0.615q0.269-0.405 0.674-0.573 0.405-0.169 1.01-0.207 0.937-0.0602 1.43 0.183 0.494 0.24 0.671 0.732 0.177 0.489 0.231 1.33 0.0406 0.632 0.0021 1.05-0.0385 0.417-0.225 0.746-0.187 0.33-0.599 0.531-0.413 0.199-1.11 0.244-0.612 0.0393-1.07-0.0581-0.454-0.1-0.759-0.452l0.166 2.59-0.786 0.0504zm0.939 2.14 0.0232 0.362q0.0361 0.563 0.16 0.894 0.124 0.331 0.464 0.503 0.343 0.172 0.987 0.13 0.702-0.045 1.01-0.251 0.31-0.206 0.369-0.54 0.0622-0.338 0.0214-0.973l-0.0177-0.276q-0.0432-0.673-0.139-1.01-0.0959-0.333-0.427-0.5-0.331-0.167-1.03-0.122-0.69 0.0442-1.01 0.237-0.317 0.19-0.391 0.536-0.0709 0.346-0.0286 1.01z"/>
    <path d="m42.9 86.2q-0.0549-0.855 0.0839-1.35 0.142-0.499 0.622-0.766 0.48-0.27 1.45-0.333 1.05-0.0671 1.59 0.0973 0.545 0.161 0.77 0.626t0.284 1.38q0.0616 0.959-0.0198 1.48-0.0783 0.522-0.547 0.867-0.466 0.342-1.52 0.41-1.01 0.0649-1.56-0.0667-0.546-0.134-0.807-0.573-0.258-0.438-0.314-1.32zm0.823-0.0528 0.0255 0.397q0.0697 1.09 0.417 1.37 0.245 0.183 0.888 0.142l0.393-0.0252q0.52-0.0334 0.821-0.125 0.302-0.092 0.458-0.32 0.159-0.228 0.162-0.662-0.0086-0.376-0.0537-1.08-0.0439-0.683-0.132-0.995-0.0852-0.312-0.38-0.447-0.291-0.137-0.938-0.0959l-0.176 0.0113q-0.73 0.0468-1.05 0.186-0.317 0.139-0.405 0.462-0.0849 0.323-0.0398 1.03z"/>
    <path d="m48 83.7 0.786-0.0504 0.0222 0.539q0.422-0.678 1.44-0.744 1.57-0.101 1.68 1.57l-0.786 0.0504q-0.0349-0.544-0.241-0.803-0.206-0.259-0.791-0.221-1.27 0.0814-1.2 1.18l0.201 3.14-0.81 0.052z"/>
    <path d="m55.8 83.2 0.0366 0.571-2.09 0.134 0.185 2.88q0.0274 0.426 0.186 0.572 0.158 0.143 0.622 0.113 0.507-0.0326 0.634-0.237 0.127-0.205 0.0982-0.647l-0.0189-0.295 0.758-0.0486q0.055 0.858-0.218 1.3-0.27 0.445-1.22 0.506-0.603 0.0387-0.954-0.0599-0.348-0.0988-0.515-0.373t-0.199-0.781l-0.185-2.88-0.711 0.0456-0.0366-0.571 0.711-0.0456-0.0726-1.13 0.823-0.0528 0.0726 1.13z"/>
    <path d="m65.5 82.4-0.847 0.0544q-0.0674-0.518-0.208-0.77-0.14-0.252-0.447-0.337-0.307-0.088-0.907-0.0494l-0.445 0.0286q-1.2 0.0768-1.57 0.311-0.403 0.249-0.358 0.959 0.0256 0.399 0.128 0.632 0.105 0.23 0.364 0.348 0.262 0.115 0.737 0.111 0.0808 1.8e-4 1.14-0.0357 1.06-0.036 1.56 0.0589 0.497 0.0946 0.819 0.464 0.325 0.367 0.373 1.13 0.0376 0.587-0.0482 0.991-0.0861 0.401-0.41 0.68-0.324 0.276-0.985 0.373-0.631 0.0943-1.48 0.149-0.705 0.0452-1.18 0.022-0.477-0.0259-0.856-0.182-0.376-0.156-0.601-0.513t-0.263-0.96q-0.0035-0.0563-4e-3 -0.159-3.7e-4 -0.102-4e-3 -0.159l0.838-0.0538q0.041 0.638 0.181 0.93 0.143 0.292 0.497 0.388 0.354 0.093 1.09 0.046l0.724-0.0464q0.702-0.045 1.05-0.145 0.347-0.103 0.488-0.378 0.141-0.278 0.104-0.852-0.0301-0.469-0.138-0.696-0.105-0.23-0.368-0.313t-0.784-0.0654q-0.735 0.0202-1.44 0.0332-0.704 0.0129-1.21-0.103-0.504-0.116-0.823-0.491-0.319-0.378-0.366-1.11-0.0494-0.769 0.241-1.18 0.29-0.414 0.848-0.577 0.558-0.165 1.46-0.223l0.201-0.0129q0.721-0.0462 1.19-0.0282 0.476 0.0152 0.849 0.161 0.373 0.146 0.594 0.5 0.224 0.352 0.264 0.965z"/>
    <path d="m70.2 85.5 0.851-0.0546q0.0425 0.662-0.215 1-0.255 0.339-0.725 0.464-0.47 0.122-1.28 0.174-0.764 0.049-1.25-0.0383-0.481-0.0876-0.757-0.334-0.274-0.249-0.403-0.671-0.127-0.425-0.17-1.11-0.0599-0.933 0.0494-1.46 0.109-0.526 0.586-0.837 0.48-0.313 1.51-0.379 1.02-0.0657 1.55 0.0863 0.525 0.149 0.743 0.59 0.221 0.438 0.295 1.35l0.0234 0.364-3.9 0.251q0.0418 0.651 0.131 0.982 0.0926 0.33 0.418 0.511 0.328 0.181 1.02 0.136l0.216-0.0139q0.68-0.0436 1.02-0.205 0.34-0.164 0.308-0.663zm-0.0703-1.34q-0.0408-0.635-0.156-0.924-0.112-0.289-0.444-0.386-0.329-0.0973-1.04-0.0516-0.625 0.0401-0.941 0.192-0.316 0.149-0.42 0.466-0.104 0.316-0.0664 0.9z"/>
    <path d="m71.2 82.2 0.786-0.0504 0.0222 0.539q0.422-0.678 1.44-0.744 1.57-0.101 1.68 1.57l-0.786 0.0504q-0.0349-0.544-0.241-0.803-0.206-0.259-0.791-0.221-1.27 0.0814-1.2 1.18l0.201 3.14-0.81 0.052z"/>
    <path d="m80.2 81.6-1.52 4.83-1.14 0.0732-2.09-4.59 0.81-0.052 1.83 4.06 1.23-4.26z"/>
    <path d="m81.2 79.5 0.0501 0.78-0.823 0.0528-0.0501-0.78zm0.432 6.73-0.823 0.0528-0.302-4.71 0.823-0.0528z"/>
    <path d="m85.9 84.2 0.81-0.052q0.0464 0.724-0.158 1.12-0.202 0.39-0.678 0.56-0.477 0.171-1.34 0.226-0.847 0.0544-1.34-0.0592-0.495-0.116-0.743-0.404-0.245-0.291-0.335-0.719-0.0865-0.428-0.137-1.21-0.0533-0.831 0.117-1.32 0.17-0.495 0.675-0.756 0.508-0.264 1.46-0.325 1.05-0.0671 1.63 0.189 0.588 0.253 0.643 1.11l0.0098 0.153-0.786 0.0504q-0.0274-0.426-0.171-0.635-0.141-0.209-0.424-0.271-0.28-0.0627-0.775-0.031-0.739 0.0474-1.07 0.192-0.329 0.145-0.42 0.479-0.0905 0.331-0.0453 1.04l0.0302 0.472q0.0401 0.624 0.141 0.936 0.104 0.311 0.433 0.459 0.329 0.146 1.01 0.102 0.653-0.0419 0.957-0.134 0.304-0.0949 0.424-0.356 0.12-0.263 0.085-0.805z"/>
    <path d="m91.1 84.2 0.851-0.0546q0.0425 0.662-0.215 1-0.255 0.339-0.725 0.464-0.47 0.122-1.28 0.174-0.764 0.049-1.25-0.0383-0.481-0.0876-0.757-0.334-0.274-0.249-0.403-0.671-0.127-0.425-0.17-1.11-0.0599-0.933 0.0494-1.46 0.109-0.526 0.586-0.837 0.48-0.313 1.51-0.379 1.02-0.0657 1.55 0.0863 0.525 0.149 0.743 0.59 0.221 0.438 0.295 1.35l0.0234 0.364-3.9 0.251q0.0418 0.651 0.131 0.982 0.0926 0.33 0.418 0.511 0.328 0.181 1.02 0.136l0.216-0.0139q0.68-0.0436 1.02-0.205 0.34-0.164 0.308-0.663zm-0.0703-1.34q-0.0408-0.635-0.156-0.924-0.112-0.289-0.444-0.386-0.329-0.0973-1.04-0.0516-0.625 0.0401-0.941 0.192-0.316 0.149-0.42 0.466t-0.0664 0.9z"/>
   </g>
   <path d="m10.3 81.8 0.0703 1.08c82.4-5.29 82.5-5.29 82.5-5.29l0.542-0.0352-0.0625-1.05c-73.4 4.67-0.0116-0.0353-83 5.29z" color="#000000" stroke-width="1.61" style="-inkscape-stroke:none"/>
  </g>
  <path d="m32.9 25.9c16-3.14 25.4-15.3 41.8-14.1 17.4 1.23 16.2 19.8-0.878 22.3-19.2 2.76-32.1-5.12-45.6-5.93-7.13-0.487-17.2 1.74-22 7.54 6.31-2.86 12-4.94 19.1-4.62 16.4 0.901 33.6 13.6 54.1 6.61 18.2-6.33 12.4-28.9-5.3-30.4-14.3-1.08-25.6 11.5-37.6 17" color="#000000" fill="#ff4000" stroke-width="2.1"/>
  <path d="m74.1 6.88c-8.17-0.755-14.9 2.81-21.4 7.11-6.39 4.27-15.2 9.94-18.6 11.2-0.909 0.47-1.91 0.783-1.3 0.786 7.19-0.944 14.9-5.3 20.7-8.33 6.43-3.31 12.9-6.06 21-5.47 8.6 0.605 12.5 5.34 12.3 10.2-0.221 4.88-4.61 9.96-13.1 11.2-9.54 1.37-16.9 0.205-23.9-1.45-6.98-1.66-13.6-3.83-21.7-4.38-7.13-0.49-16.6 1.73-21.8 7.42-0.466 0.568-0.204 0.286-0.841 1.07l1.05-0.505c6.17-2.69 11.6-4.65 18.7-4.29 8.89 0.418 20.1 4.99 29.3 7.02 9.43 2.09 16.2 2.36 25-0.297 9.25-3.21 12.5-10.9 11.1-17.7-1.44-6.72-7.47-12.8-16.5-13.6zm-0.0093 0.622c8.73 0.805 14.5 6.69 15.9 13.1s-1.64 13.7-10.6 16.8c-8.9 3.1-17.2 2.19-26.3-0.0662-9.03-2.26-18.7-6.1-27.8-6.53-5.98-0.283-11.9 1.45-18.5 4.34 3.38-2.86 5.95-4.25 9.7-5.46 4.07-1.32 8.42-1.49 11.6-1.28 7.99 0.552 14.6 2.68 21.6 4.36 7.04 1.67 14.5 2.86 24.1 1.47 8.66-1.24 13.4-6.56 13.6-11.8 0.237-5.22-4.04-10.3-12.9-10.9-8.28-0.584-13.5 1.67-20 5-6.49 3.42-8.54 4.48-12.9 6.39-3.9 1.74-6.62 2.27-7.37 2.52-1.2 0.399 5.21-1.82 18.3-10.8 6.42-4.27 13.4-7.96 21.4-7.22z" color="#000000" fill="#993f00" stroke-width="16.5"/>
  <path d="m87.7 34.4-5.74 3.7c15.8 11.8 1.6 17.2-7.59 18.8-16.2 2.71-31.6-6.41-48-5.74-6.51 0.274-14.3 2.35-19.2 7.67 6.86-2.24 12.9-5.18 20.4-4.6 16.6 1.31 33.3 11.1 50.4 7.35 12.8-2.83 21.1-16.9 9.7-27.2" color="#000000" fill="#4b3737" stroke-width="2.1"/>
  <path d="m84.8 35.9c-1.17 0.792-3.74 2.03-3.74 2.03l1.77 1.32c3.48 2.55 5.2 4.8 5.72 6.72 0.536 1.92-0.0658 3.55-1.4 4.97-2.66 2.87-8.27 4.77-12.8 5.58-8.05 1.34-15.9-0.244-23.7-2.09-7.87-1.86-15.8-3.98-24-3.66-6.51 0.274-13.1 2.02-17.3 5.75-1.44 1.4-3.22 2.99-1.58 2.35 6.89-2.25 12.6-4.98 20.1-4.39 8.25 0.65 16.6 3.41 25 5.56 8.41 2.15 16.9 3.68 25.4 1.79 6.49-1.44 11.9-5.81 14.3-11.1 2.33-5.18 1.5-11.2-4.26-16.9-0.658-0.618-0.317-0.566-1.34 0.36-1.1 0.991-1.27 1.16-1.98 1.65zm2.89-1.34c5.28 4.74 6.33 11 4.1 16-2.28 5.06-7.53 9.3-13.8 10.7-8.34 1.85-16.7 0.349-25.1-1.78-8.38-2.14-16.7-4.92-25.1-5.58-6.73-0.528-13.7 2.37-19.6 4.45 5.07-4.94 9.81-6.06 17.6-6.89 7.76-0.224 16.8 1.79 24.7 3.66 7.9 1.86 15.8 3.47 24 2.11l0.0105-4.85e-4c4.65-0.819 10.4-2.69 13.2-5.76 1.43-1.54 2.13-3.45 1.54-5.59-0.568-2.04-3.67-5.3-6.91-7.77 0 0 2.1-1.08 3-1.67s2.41-1.85 2.41-1.85z" color="#000000" fill="#2d1e1e" stroke-width="16.5"/>
 </g>
 <metadata>
  <rdf:RDF>
   <cc:Work rdf:about="">
    <dc:title>blessing transport service logo</dc:title>
   </cc:Work>
  </rdf:RDF>
 </metadata>
</svg>
