<svg version="1.1" viewBox="0 0 200 200" xmlns="http://www.w3.org/2000/svg"><title>blessing transport service logo</title><g transform="matrix(2 0 0 2 .0307 -.045)"><path transform="matrix(.5 0 0 .5 -.0154 .0225)" d="m3.79 18.2 182-11.2 10.7 175-182 11.2z" fill="#fff" stroke-linecap="round" stroke-width=".484" style="mix-blend-mode:normal"/><path d="m93.3 2.99-91.8 5.51 4.99 87.6h-.001l.08.805 92.2-5.4-5.39-87.5zm-.975 1.08 5.41 86.4-90.3 5.44-4.76-86.2z" stroke-width=".5" style="fill-rule:evenodd"/><g stroke-width=".545"><path d="m10.4 80.4-.785-12.2 6.98-.448q1.32-.0848 2.15.146.829.226 1.26.863.436.633.511 1.79.076 1.18-.249 1.84-.319.652-1.47 1.06 1.41.242 1.92.865.517.618.598 1.88.0741 1.15-.224 1.95-.292.797-1.09 1.26-.797.467-2.21.557zm6.98-6.14-5.73.368.287 4.47 4.46-.287q1.4-.09 2.06-.264.658-.174.935-.672.277-.497.209-1.55-.0701-1.09-.511-1.62-.441-.525-1.72-.443zm-.917-5.31-5.15.331.264 4.11 4.59-.294q1.11-.0711 1.7-.295.597-.224.816-.713.225-.489.168-1.37-.0716-1.12-.567-1.49-.489-.37-1.81-.285z"/><path d="m23.2 67.2.703 11 7.36-.473.0819 1.28-9.12.585-.785-12.2z"/><path d="m33 67.9.265 4.13 7.41-.476.0744 1.16-7.41.476.289 4.51 7.74-.497.0769 1.2-9.33.599-.785-12.2 9.33-.599.0794 1.24z"/><path d="m52.2 68.8-1.59.102q-.124-.941-.387-1.4-.262-.458-.837-.612-.575-.159-1.7-.0866l-.835.0536q-2.24.144-2.94.571-.757.455-.674 1.75.0466.726.237 1.15.196.418.681.632.491.208 1.38.2.151 7e-5 2.14-.0691 1.99-.0692 2.92.101.931.17 1.53.841.607.666.696 2.04.0685 1.07-.0939 1.8-.163.73-.77 1.24-.608.504-1.85.681-1.18.174-2.78.276-1.32.0848-2.22.0443-.894-.0454-1.6-.328-.705-.283-1.13-.931-.42-.648-.49-1.74-.0066-.102-.0069-.288-.000292-.186-.0069-.288l1.57-.101q.0744 1.16.336 1.69.267.531.93.704.663.168 2.04.0797l1.36-.0871q1.32-.0845 1.97-.268.652-.189.916-.69.264-.506.197-1.55-.0547-.853-.256-1.27-.196-.418-.688-.567-.493-.149-1.47-.116-1.38.0394-2.7.0655-1.32.026-2.26-.182-.945-.208-1.54-.889-.597-.686-.682-2.02-.0898-1.4.456-2.15.545-.754 1.59-1.05 1.05-.302 2.73-.41l.377-.0242q1.35-.0867 2.24-.0556.892.0259 1.59.289.698.263 1.11.907.419.639.491 1.75z"/><path d="m63.9 68-1.59.102q-.124-.941-.387-1.4-.262-.458-.837-.612-.575-.159-1.7-.0866l-.835.0536q-2.24.144-2.94.571-.757.455-.674 1.75.0466.726.237 1.15.196.418.681.632.491.208 1.38.2.151 7e-5 2.14-.0691 1.99-.0692 2.92.101.931.17 1.53.841.607.666.696 2.04.0685 1.07-.0939 1.8-.163.73-.77 1.24-.608.504-1.85.681-1.18.174-2.78.276-1.32.0848-2.22.0443-.894-.0454-1.6-.328-.705-.283-1.13-.931-.42-.648-.49-1.74-.0066-.102-.0069-.288-.00029-.186-.0069-.288l1.57-.101q.0744 1.16.336 1.69.267.531.93.704.663.168 2.04.0797l1.36-.0871q1.32-.0845 1.97-.268.652-.189.916-.69.264-.506.197-1.55-.0547-.853-.256-1.27-.196-.418-.688-.567-.493-.149-1.47-.116-1.38.0394-2.7.0655-1.32.026-2.26-.182-.945-.208-1.54-.889-.597-.686-.682-2.02-.0898-1.4.456-2.15.545-.754 1.59-1.05 1.05-.302 2.73-.41l.377-.0242q1.35-.0867 2.24-.0556.892.0259 1.59.289.698.263 1.11.907.419.639.491 1.75z"/><path d="m66.5 64.5.785 12.2-1.63.105-.785-12.2z"/><path d="m79.7 63.6.785 12.2-2.66.171-8.88-10.5.71 11.1-1.59.102-.785-12.2 2.64-.169 8.91 10.7-.717-11.2z"/><path d="m86.6 69.3 6.22-.399q.0758.455.132 1.33l.0563.877q.109 1.71-.406 2.75-.51 1.04-2.34 1.32-1.62.202-2.99.289-2.43.156-3.72-.128t-1.89-1.22q-.596-.94-.718-2.84-.0366-.57-.0963-1.68t-.0957-1.67q-.104-1.63.297-2.63t1.47-1.52q1.07-.519 2.98-.641 2.33-.15 3.52-.187 1.79-.0711 2.64.667.85.733.949 2.27l.0282.439-1.59.102q-.0801-1.25-.521-1.77-.436-.53-1.79-.482-1.02.0265-3.04.156-1.58.102-2.27.39-.68.283-.87.961-.184.672-.115 2.2l.0572 1.62.157 1.72q.0604.94.21 1.54.155.597.642 1.02.493.423 1.46.493.789.0521 2.36-.0488l.852-.0547q1.45-.093 2.13-.332.683-.24.903-.811.225-.572.15-1.75l-.0679-1.06-4.63.297z"/></g><g stroke-width=".537"><path d="m15.2 84.5.385 6.01-.888.057-.385-6.01-2.51.161-.0464-.724 5.88-.377.0464.724z"/><path d="m18.1 85.6.786-.0504.0222.539q.422-.678 1.44-.744 1.57-.101 1.68 1.57l-.786.0504q-.0349-.544-.241-.803t-.791-.221q-1.27.0814-1.2 1.18l.201 3.14-.81.052z"/><path d="m23.4 86.6-.838.0538q-.0566-.882.444-1.16.501-.28 1.61-.351.835-.0536 1.34.0299.505.0833.791.426.286.34.331 1.05l.197 3.06-.77.0494.0178-.496q-.287.368-.719.509-.429.138-1.08.18-.73.0468-1.19-.0366-.462-.0834-.727-.392-.265-.309-.305-.928-.0378-.59.202-.917.24-.33.682-.461.445-.131 1.14-.175.64-.0411 1.06.0125.426.0534.702.348l-.0351-.547q-.038-.592-.173-.853-.135-.263-.456-.331-.321-.0682-1.03-.023-.767.0492-1.03.254-.232.16-.208.53.0019.0295.0175.0796.0186.0472.021.0848zm-.0604 1.87q.038.592.323.779.288.186.984.141.535-.0344.897-.103.365-.0692.622-.279.26-.21.233-.623-.037-.576-.422-.713-.385-.139-1.14-.0908l-.204.0131q-.885.0568-1.14.283-.183.144-.154.594z"/><path d="m27.5 85 .733-.047.0394.614q.283-.433.734-.618t1.08-.226q.742-.0476 1.18.0833.437.131.653.491t.257 1l.2 3.12-.823.0528-.197-3.06q-.0306-.477-.149-.717-.118-.24-.406-.324-.285-.084-.851-.0476-1.61.103-1.52 1.45l.185 2.89-.81.052z"/><path d="m37.1 85.6-.81.052q-.0291-.453-.369-.576-.34-.126-.922-.0888l-.405.026q-.575.0369-.863.203-.285.164-.257.595.0188.292.0935.441.0746.146.249.207.175.0588.519.0582.557-.025 1.1-.0488.539-.0238.954.0518t.69.349q.275.273.31.82.0416.649-.214.98-.252.328-.723.447-.468.116-1.26.167-.724.0464-1.21.0025-.487-.0441-.833-.302-.343-.261-.38-.834-.0119-.185-.0045-.263l.81-.052q.027.421.161.627.137.204.411.264.274.0578.784.025l.189-.0121q.965-.0619 1.26-.269.232-.163.198-.696-.0298-.464-.288-.571-.259-.11-.784-.0761l-.331.0212q-.0186.001-.0749-.0059-.0564-.0071-.078-.0057-.804.0085-1.06.0035-.258-.0077-.569-.103-.311-.0985-.5-.345-.19-.249-.219-.696-.0538-.839.324-1.1.526-.376 1.74-.453.671-.0431 1.17.0167.494.0571.835.326.343.266.378.815z"/><path d="m37.7 84.3.786-.0504.0146.615q.269-.405.674-.573.405-.169 1.01-.207.937-.0602 1.43.183.494.24.671.732.177.489.231 1.33.0406.632.0021 1.05-.0385.417-.225.746-.187.33-.599.531-.413.199-1.11.244-.612.0393-1.07-.0581-.454-.1-.759-.452l.166 2.59-.786.0504zm.939 2.14.0232.362q.0361.563.16.894.124.331.464.503.343.172.987.13.702-.045 1.01-.251.31-.206.369-.54.0622-.338.0214-.973l-.0177-.276q-.0432-.673-.139-1.01-.0959-.333-.427-.5-.331-.167-1.03-.122-.69.0442-1.01.237-.317.19-.391.536-.0709.346-.0286 1.01z"/><path d="m42.9 86.2q-.0549-.855.0839-1.35.142-.499.622-.766.48-.27 1.45-.333 1.05-.0671 1.59.0973.545.161.77.626t.284 1.38q.0616.959-.0198 1.48-.0783.522-.547.867-.466.342-1.52.41-1.01.0649-1.56-.0667-.546-.134-.807-.573-.258-.438-.314-1.32zm.823-.0528.0255.397q.0697 1.09.417 1.37.245.183.888.142l.393-.0252q.52-.0334.821-.125.302-.092.458-.32.159-.228.162-.662-.0086-.376-.0537-1.08-.0439-.683-.132-.995-.0852-.312-.38-.447-.291-.137-.938-.0959l-.176.0113q-.73.0468-1.05.186-.317.139-.405.462-.0849.323-.0398 1.03z"/><path d="m48 83.7.786-.0504.0222.539q.422-.678 1.44-.744 1.57-.101 1.68 1.57l-.786.0504q-.0349-.544-.241-.803-.206-.259-.791-.221-1.27.0814-1.2 1.18l.201 3.14-.81.052z"/><path d="m55.8 83.2.0366.571-2.09.134.185 2.88q.0274.426.186.572.158.143.622.113.507-.0326.634-.237.127-.205.0982-.647l-.0189-.295.758-.0486q.055.858-.218 1.3-.27.445-1.22.506-.603.0387-.954-.0599-.348-.0988-.515-.373t-.199-.781l-.185-2.88-.711.0456-.0366-.571.711-.0456-.0726-1.13.823-.0528.0726 1.13z"/><path d="m65.5 82.4-.847.0544q-.0674-.518-.208-.77-.14-.252-.447-.337-.307-.088-.907-.0494l-.445.0286q-1.2.0768-1.57.311-.403.249-.358.959.0256.399.128.632.105.23.364.348.262.115.737.111.0808.00018 1.14-.0357 1.06-.036 1.56.0589.497.0946.819.464.325.367.373 1.13.0376.587-.0482.991-.0861.401-.41.68-.324.276-.985.373-.631.0943-1.48.149-.705.0452-1.18.022-.477-.0259-.856-.182-.376-.156-.601-.513t-.263-.96q-.0035-.0563-.004-.159-.00037-.102-.004-.159l.838-.0538q.041.638.181.93.143.292.497.388.354.093 1.09.046l.724-.0464q.702-.045 1.05-.145.347-.103.488-.378.141-.278.104-.852-.0301-.469-.138-.696-.105-.23-.368-.313t-.784-.0654q-.735.0202-1.44.0332-.704.0129-1.21-.103-.504-.116-.823-.491-.319-.378-.366-1.11-.0494-.769.241-1.18.29-.414.848-.577.558-.165 1.46-.223l.201-.0129q.721-.0462 1.19-.0282.476.0152.849.161.373.146.594.5.224.352.264.965z"/><path d="m70.2 85.5.851-.0546q.0425.662-.215 1-.255.339-.725.464-.47.122-1.28.174-.764.049-1.25-.0383-.481-.0876-.757-.334-.274-.249-.403-.671-.127-.425-.17-1.11-.0599-.933.0494-1.46.109-.526.586-.837.48-.313 1.51-.379 1.02-.0657 1.55.0863.525.149.743.59.221.438.295 1.35l.0234.364-3.9.251q.0418.651.131.982.0926.33.418.511.328.181 1.02.136l.216-.0139q.68-.0436 1.02-.205.34-.164.308-.663zm-.0703-1.34q-.0408-.635-.156-.924-.112-.289-.444-.386-.329-.0973-1.04-.0516-.625.0401-.941.192-.316.149-.42.466-.104.316-.0664.9z"/><path d="m71.2 82.2.786-.0504.0222.539q.422-.678 1.44-.744 1.57-.101 1.68 1.57l-.786.0504q-.0349-.544-.241-.803-.206-.259-.791-.221-1.27.0814-1.2 1.18l.201 3.14-.81.052z"/><path d="m80.2 81.6-1.52 4.83-1.14.0732-2.09-4.59.81-.052 1.83 4.06 1.23-4.26z"/><path d="m81.2 79.5.0501.78-.823.0528-.0501-.78zm.432 6.73-.823.0528-.302-4.71.823-.0528z"/><path d="m85.9 84.2.81-.052q.0464.724-.158 1.12-.202.39-.678.56-.477.171-1.34.226-.847.0544-1.34-.0592-.495-.116-.743-.404-.245-.291-.335-.719-.0865-.428-.137-1.21-.0533-.831.117-1.32.17-.495.675-.756.508-.264 1.46-.325 1.05-.0671 1.63.189.588.253.643 1.11l.0098.153-.786.0504q-.0274-.426-.171-.635-.141-.209-.424-.271-.28-.0627-.775-.031-.739.0474-1.07.192-.329.145-.42.479-.0905.331-.0453 1.04l.0302.472q.0401.624.141.936.104.311.433.459.329.146 1.01.102.653-.0419.957-.134.304-.0949.424-.356.12-.263.085-.805z"/><path d="m91.1 84.2.851-.0546q.0425.662-.215 1-.255.339-.725.464-.47.122-1.28.174-.764.049-1.25-.0383-.481-.0876-.757-.334-.274-.249-.403-.671-.127-.425-.17-1.11-.0599-.933.0494-1.46.109-.526.586-.837.48-.313 1.51-.379 1.02-.0657 1.55.0863.525.149.743.59.221.438.295 1.35l.0234.364-3.9.251q.0418.651.131.982.0926.33.418.511.328.181 1.02.136l.216-.0139q.68-.0436 1.02-.205.34-.164.308-.663zm-.0703-1.34q-.0408-.635-.156-.924-.112-.289-.444-.386-.329-.0973-1.04-.0516-.625.0401-.941.192-.316.149-.42.466t-.0664.9z"/></g><path d="m10.3 81.8.0703 1.08c82.4-5.29 82.5-5.29 82.5-5.29l.542-.0352-.0625-1.05c-73.4 4.67-.0116-.0353-83 5.29z" stroke-width=".5"/></g><path d="m64.1 51.4c33.4-5.58 52.9-26.3 77-25.8 34.3-.66 35.8 31.7 9.1 38.4-27 7.2-68.5-5.16-99-5.84-10.7.488-26 3.26-39.7 15.8 22-8.33 43.1-5.87 49.7-4.77 58.6 11.3 72.6 15.1 101 4.43 32.7-15.1 19.7-56-14.9-59.8-37.7.312-42.9 21.1-83.2 37.6" color="#000000" fill="#ff3000" stroke-width="1.25"/><path d="m137 13.7c-14.3 2.02-23.3 7.25-31.4 12.6-8.05 5.74-16.1 11.1-20.1 13.6-6.53 3.98-14.7 8.22-23.6 12.3 15-1.63 31.4-9.15 44.4-15.3 12.9-6.55 24.7-12.2 39.5-10.6 11.9.471 22.5 8.82 22.1 18.3-.338 8.77-7.73 15.9-21.4 19-19.1 3.75-38 .249-56.1-2.58-14.1-2-22.7-3.72-37.1-3.82-16.3-.108-25.3 4.32-34.5 10.1-3.71 2.57-7.42 5.61-8.73 7.43l9.84-2.86c15.2-3.11 22.5-3.53 29.8-3.12 14.1.739 29.3 4.95 56.1 9.94 38 5.91 51.9-1.95 56.2-3.72 15.6-7.11 21.3-19.7 19.6-32.3-2.02-15.3-16.3-29-36.8-29.4-2.98-.116-7.81.43-7.81.43zm4.35.648c20.2-.461 34.7 11.2 38.3 25.3 3.15 12.5-1.28 27.1-20.3 34.7-22 8.25-38.9 4.73-57.8 2.05-18.2-3.14-40.3-8.1-51.1-8.54-11.9-.492-29.9 1.88-38.3 5.59 6.09-4.81 11.6-9.02 22.3-12.4 7.09-2.13 11.6-2.55 22.7-2.36 6.73.117 28 3.19 40.8 5.21 10.6 1.68 27.8 4.27 46.3 1.73 16.7-2.31 24.7-11.5 24.9-21.5.127-9.92-10.1-17.5-22.6-18.7-16.7-1.53-26.4 3.42-39.4 9.75-13.3 6.44-16.2 7.42-23.6 10.4-7.52 3.09-15.5 4.78-18.4 5.48 18.9-7.44 28.2-15.7 38.8-22.4 11.2-8.11 20.5-11.9 29.3-13.5 2.73-.52 5.21-.631 5.99-.72z" color="#000000" fill="#793200" stroke-width="1.25"/><path d="m175 68.7c-6.11 5.27-10.2 6.8-15.5 9.38 11.6 7.18 12.9 9.91 13.4 14.2.627 5.85-12.1 14-23.4 15.9-31.5 5.17-64.2-13.6-96.9-11.8-13.2.718-30.5 7.89-39 18.2 13.8-4.78 26.1-7.99 41.3-7.05 40.5 2.51 62.1 20.7 102 13.8 25.8-5.82 42.3-33.2 18.2-52.4" color="#000000" fill="#483737" stroke-width="1.25"/><path d="m171 88.2c1.68 2.38 2.38 6.11-2.24 10.4-3.77 3.54-11.8 7.51-20.3 8.99-16.4 2.11-28.9-.646-44.9-3.99-16-3.35-32.9-9.37-50.5-7.86-13.2.718-25 6.73-31.3 11.1-3.32 2.29-8.04 7.29-9.01 8.22 2.45-1.02 12.9-4.74 29.9-6.66 4.03-.456 7.89-.425 12.2-.109 19.9 1.4 34.4 6.39 51.2 10.9 17 3.87 34.2 6.89 51.2 3.04 13.1-2.96 23.9-11.5 28.6-21.7 4.6-10 .873-24.6-11-33.1-4.04 4.62-11.3 8.11-17 10.5 0 0 5.15 3.17 7.52 5.01 4.14 3.21 4.45 3.66 5.59 5.27zm4.27-18.7c10.6 8.18 13.6 20.9 9.21 30.5-4.46 9.81-15 18.1-27.7 21-16.9 3.81-33.6.631-50.8-3.25-17-4.94-31.9-9.48-52.2-10.7-13.6-.819-26.4 2.12-38.3 6.29 10.1-9.65 24.5-15.9 36-16.5 16.4-1.7 35.6 4.31 52 7.95 16 3.57 27.9 5.56 41.2 4.47 0 0 3.82-.427 8.31-1.39 4.49-.962 10.2-2.67 17-8.62 3.76-4.01 3.87-5.98 3.1-9.06-1.36-5.37-8.99-9.07-12.5-12 7.95-3.29 9.62-4.85 12.3-6.97 0 0 1.12-.802 2.25-1.72z" color="#000000" fill="#282828" stroke-width="1.25"/></svg>
