<?xml version="1.0" encoding="UTF-8" standalone="no"?>
<!-- Created with Inkscape (http://www.inkscape.org/) -->

<svg
   version="1.1"
   id="svg1"
   width="2560"
   height="826.76532"
   viewBox="0 0 2560 826.76532"
   xmlns="http://www.w3.org/2000/svg"
   xmlns:svg="http://www.w3.org/2000/svg">
  <defs
     id="defs1">
    <clipPath
       clipPathUnits="userSpaceOnUse"
       id="clipPath2">
      <path
         d="M 0,2077.846 H 3384.543 V 0 H 0 Z"
         transform="translate(-1682.931,-1338.0051)"
         id="path2" />
    </clipPath>
  </defs>
  <g
     id="layer-MC0"
     transform="translate(-976.36137,-971.8532)">
    <path
       id="path1"
       d="M 0,0 -128.29,-599.744 H -283.43 L -155.092,0 Z m 652.743,-387.235 81.658,225.182 46.996,-225.182 z M 825.85,-599.744 H 969.34 L 844.088,0 H 711.649 C 681.866,0 656.754,-17.335 645.625,-44.001 L 412.812,-599.744 H 575.72 l 32.353,89.588 h 199.045 z m -404.939,195.816 c 0.66,158.285 -218.88,167.009 -217.369,237.717 0.468,21.519 20.962,44.396 65.806,50.243 22.232,2.912 83.482,5.135 152.952,-26.841 l 27.248,127.175 c -37.326,13.546 -85.355,26.589 -145.122,26.589 -153.349,0 -261.266,-81.524 -262.178,-198.251 -0.99,-86.341 77.031,-134.519 135.807,-163.208 60.469,-29.384 80.755,-48.26 80.529,-74.544 -0.433,-40.234 -48.229,-57.995 -92.899,-58.689 -77.977,-1.198 -123.228,21.102 -159.305,37.873 l -28.116,-131.389 c 36.249,-16.632 103.159,-31.141 172.534,-31.866 162.994,0 269.61,80.508 270.113,205.191 M -221.676,0 -473.043,-599.744 H -637.04 l -123.698,478.624 c -7.513,29.484 -14.036,40.278 -36.875,52.695 -37.287,20.235 -98.872,39.21 -153.047,50.994 L -946.979,0 h 263.993 c 33.65,0 63.897,-22.401 71.536,-61.154 L -546.12,-408.199 -384.657,0 Z"
       style="fill:#1434cb;fill-opacity:1;fill-rule:nonzero;stroke:none"
       transform="matrix(1.3333333,0,0,-1.3333333,2243.908,986.45987)"
       clip-path="url(#clipPath2)" />
  </g>
</svg>
