<?xml version="1.0" encoding="UTF-8"?>
<svg version="1.1" viewBox="0 0 23 23" xmlns="http://www.w3.org/2000/svg">
 <path d="m0 0h23v23h-23z" fill="#0bb1ff" stroke-width="0"/>
 <g transform="matrix(.98105 0 0 .98105 .21791 .26696)" stroke="#000" stroke-linecap="round" stroke-linejoin="round">
  <path d="m11.701 0.8972c-3.108 0-5.6365 2.5285-5.6365 5.6365 0 1.2518 0.79935 3.2926 2.4436 6.2391 1.1631 2.084 2.307 3.8217 2.3551 3.8947l0.83788 1.27 0.83784-1.27c0.0481-0.07297 1.1921-1.8106 2.355-3.8947 1.6443-2.9466 2.4436-4.9874 2.4436-6.2391 3.6e-5 -3.108-2.5285-5.6365-5.6365-5.6365zm0 8.5202c-1.6136 0-2.9217-1.3081-2.9217-2.9217s1.3081-2.9217 2.9217-2.9217 2.9217 1.3081 2.9217 2.9217-1.3082 2.9217-2.9217 2.9217z" fill="#d40000" stroke-width=".3"/>
  <path d="m5.6953 14.37c-1.5421 0.72088-2.7363 1.8255-2.7363 3.2993 0 1.4739 1.1942 2.5784 2.7363 3.2993 1.5421 0.72086 3.5701 1.134 5.8047 1.134 2.2345 0 4.2626-0.41313 5.8047-1.134 1.5421-0.72088 2.7363-1.8255 2.7363-3.2993 0-1.4739-1.1942-2.5784-2.7363-3.2993-0.78354-0.36628-2.3135-0.99838-2.4596-0.85804-0.27052 0.49661-0.68047 1.138-0.76869 1.3839 0.79283 0.23783 1.7619 0.61524 2.5273 0.97308 1.2497 0.58417 1.7828 1.2829 1.7828 1.8004 0 0.51756-0.53312 1.2162-1.7828 1.8004-1.2497 0.58417-3.0782 0.9784-5.1038 0.9784s-3.8549-0.39423-5.1045-0.9784c-1.2496-0.58418-1.782-1.2829-1.782-1.8004 1e-7 -0.51758 0.53232-1.2163 1.782-1.8004 0.91581-0.4281 1.9731-0.61491 3.0046-0.82953-0.058573-0.20721-0.722-1.3305-0.90758-1.4683-1.0651 0.19042-1.9337 0.40228-2.7971 0.7989z" color="#000000" fill="#f2f2f2" stroke-width=".1"/>
 </g>
</svg>
