<?xml version="1.0" encoding="UTF-8"?>
<svg version="1.1" viewBox="0 0 23 23" xmlns="http://www.w3.org/2000/svg">
 <path d="m0.060412 0.060412h22.879v22.879h-22.879z" fill="#34e0a1"/>
 <g fill="#fff" stroke-width=".21306">
  <path d="m13.869 5.4731c0.58612 0.082879 1.1601 0.2301 1.7272 0.40438 0.99007 0.30488 1.9243 0.72844 2.803 1.2779 0.06115 0.037924 0.14275 0.061999 0.21476 0.061999 1.032 0.00426 2.0637 0.00277 3.0949 0.00362 0.08309 0 0.16576 0.00874 0.24864 0.013423 0 0.02024 3e-3 0.028763-4.26e-4 0.03345-0.04815 0.074143-0.09694 0.14722-0.1453 0.22115-0.35005 0.5369-0.64918 1.0985-0.8258 1.7194-0.01918 0.066687-0.02322 0.12251 0.02195 0.18792 0.9187 1.3192 1.2119 2.7676 0.82794 4.3289-0.33663 1.3693-1.1215 2.4369-2.3142 3.1929-0.85244 0.54052-1.7941 0.7979-2.8002 0.80344-0.4227 0.0026-0.84328-0.05433-1.2562-0.16128-1.0061-0.26099-1.8685-0.76253-2.5793-1.5221-0.09375-0.09971-0.18195-0.2039-0.28187-0.3166-0.37583 0.56012-0.7457 1.1111-1.1245 1.6765-0.37732-0.56375-0.74207-1.1094-1.106-1.6529-0.02514 0.01321-0.03238 0.0147-0.03729 0.01939-0.0083 0.0068-0.01534 0.01513-0.02194 0.02301-0.85969 1.0152-1.9412 1.6375-3.2587 1.8457-0.73291 0.11612-1.4588 0.074356-2.1706-0.12187-1.0088-0.27719-1.8662-0.8094-2.5588-1.5947-0.67688-0.76785-1.0979-1.6593-1.256-2.6728-0.18088-0.94597 0.039415-1.8581 0.094384-2.0794 0.15937-0.64343 0.43719-1.2342 0.81856-1.7775 0.026845-0.038563 0.03622-0.10674 0.023436-0.15276-0.15553-0.57035-0.42356-1.0891-0.73739-1.586-0.079683-0.12634-0.17513-0.24331-0.26334-0.36454v-0.042185c0.017684 0.00213 0.035154 0.00554 0.052412 0.00554 1.0559 4.261e-4 2.1116 8.522e-4 3.1675-0.00128 0.04602 0 0.097154-0.018962 0.13636-0.044103 0.74186-0.47597 1.5323-0.85308 2.3628-1.1467 0.5989-0.21135 1.2104-0.37626 1.834-0.49706 0.6038-0.11675 1.2108-0.19899 1.8242-0.23948 1.4954-0.11505 2.6907 0.04325 3.4858 0.15468zm-1.3237 6.9735c0 2.3187 1.8813 4.213 4.1917 4.204 2.3191-0.0083 4.1919-1.8493 4.1902-4.1936-0.0017-2.4158-1.9614-4.2319-4.2801-4.1848-2.2891 0.047512-4.0809 1.8926-4.1018 4.1744zm-6.2875-4.1904c-2.2554-0.019601-4.2219 1.8627-4.1825 4.2605 0.036646 2.236 1.8796 4.1316 4.2294 4.1113 2.2976-0.0196 4.1444-1.8958 4.1486-4.1678 0.0036-2.3342-1.8657-4.204-4.1955-4.204zm0.20794-1.0938c1.2741 0.077765 2.3933 0.52177 3.3388 1.3817 0.94363 0.85819 1.4965 1.9288 1.6974 3.1877 0.20666-1.244 0.74506-2.3046 1.671-3.1543 0.92743-0.85052 2.0317-1.2969 3.2849-1.3913-1.4871-0.66111-3.0552-0.94192-4.6693-0.97303-1.8344-0.036006-3.6188 0.23436-5.3228 0.94916z"/>
  <path d="m16.728 9.8014c1.4349-0.00234 2.5972 1.1537 2.5972 2.5871 0 1.439-1.1424 2.5513-2.4902 2.6027-1.5052 0.05774-2.7096-1.1416-2.7092-2.5963 0.0013-1.4714 1.2142-2.6178 2.6023-2.5935zm1.6925 2.5935c-6.39e-4 -0.93532-0.75678-1.6955-1.6857-1.6955-0.93958 0-1.7044 0.75614-1.7083 1.6887-0.0034 0.9285 0.7653 1.701 1.6961 1.7036 0.93233 0.0036 1.6983-0.76317 1.6978-1.6968z"/>
  <path d="m6.2021 9.8014c1.4341-0.0014913 2.598 1.1567 2.5944 2.5899-0.0040481 1.4507-1.1475 2.5388-2.4717 2.5991-1.5112 0.06903-2.7305-1.1356-2.7278-2.5982 0.0029828-1.4818 1.2242-2.6155 2.605-2.5908zm1.6906 2.5878c-0.0027698-0.94107-0.76381-1.6912-1.7138-1.6895-0.91635 0.0017-1.6842 0.7751-1.6821 1.6949 0.00234 0.93042 0.76935 1.6955 1.7027 1.6981 0.92765 0.0021 1.6955-0.77041 1.6932-1.7034z"/>
  <path d="m16.729 11.534c0.47554-4.26e-4 0.86543 0.38968 0.86096 0.86245-0.0047 0.47384-0.38798 0.85776-0.85563 0.85798-0.48151 0-0.86863-0.38052-0.86756-0.85201 8.52e-4 -0.48918 0.3769-0.86799 0.86224-0.86842z"/>
  <path d="m6.1976 11.526c0.48279-4.26e-4 0.87076 0.3852 0.87268 0.8665 0.00192 0.47725-0.38968 0.86906-0.87012 0.87012-0.49195 0.0011-0.8714-0.37903-0.87097-0.87353 0-0.48556 0.3786-0.86245 0.86842-0.86309z"/>
 </g>
</svg>
