<?xml version="1.0" encoding="UTF-8"?>
<svg version="1.1" viewBox="0 0 23 23" xmlns="http://www.w3.org/2000/svg">
 <g>
  <path d="m0 0h23v23h-23z" fill="#07ba39" stroke-width="1.0336"/>
  <path d="m0.72801 22.5 6.2566-1.996c1.423 0.71465 3.0294 1.1175 4.7301 1.1175 5.8306 0 10.557-4.7282 10.557-10.561 0-5.8326-4.7266-10.561-10.557-10.561-5.8306 0-10.557 4.7282-10.557 10.561 0 1.9311 0.51841 3.7409 1.4232 5.2982l-1.8526 6.1411" fill="#07ba39" fill-rule="evenodd"/>
  <path d="m1.5355 21.566 5.3878-1.7311c1.4156 0.78462 3.0441 1.2319 4.7773 1.2319 5.451 0 9.8698-4.4188 9.8698-9.8696 0-5.4508-4.4188-9.8696-9.8698-9.8696-5.4509 0-9.8698 4.4188-9.8698 9.8696 0 1.865 0.51745 3.6093 1.4165 5.0968zm7.5093-14.765h3.8323c1.4929 0 2.4659 1.3529 2.4659 2.7218 0 0.93062-0.14636 1.3373-0.56068 1.829 0.48323 0.44727 0.80025 1.0057 0.80025 1.9216 0 1.7067-1.3365 2.8034-2.5694 2.8034h-3.8541c-0.47229 0-0.74577-0.22183-0.74577-0.7403v-7.8983c0-0.35773 0.14504-0.63723 0.63146-0.63723zm1.1571 5.5469h2.7484c0.43542 0 0.79165 0.35623 0.79165 0.79165v0.37499c0 0.43536-0.35623 0.79159-0.79165 0.79159h-2.7484zm0-3.7754h2.5601c0.43542 0 0.79165 0.35623 0.79165 0.79165v0.37499c0 0.43536-0.35623 0.79159-0.79165 0.79159h-2.5601zm1.4692-5.588c4.5505 0 8.2395 3.6889 8.2395 8.2395 0 4.5506-3.6889 8.2395-8.2395 8.2395-1.6816 0-3.2452-0.5042-4.5488-1.3691l-3.1044 1.0088 1.0152-2.9981c-1.0064-1.3661-1.6013-3.0541-1.6013-4.8811 0-4.5505 3.6889-8.2395 8.2394-8.2395" fill="#fff" fill-rule="evenodd"/>
 </g>
</svg>
