<?xml version="1.0" encoding="UTF-8" standalone="no"?>
<svg
   width="16"
   height="16"
   viewBox="0 0 4.23325 4.23325"
   version="1.1"
   id="svg3017"
   sodipodi:docname="logo.svg"
   inkscape:version="1.2.1 (1:1.2.1+202210291244+9c6d41e410)"
   inkscape:export-filename="logo-64.png"
   inkscape:export-xdpi="96"
   inkscape:export-ydpi="96"
   xmlns:inkscape="http://www.inkscape.org/namespaces/inkscape"
   xmlns:sodipodi="http://sodipodi.sourceforge.net/DTD/sodipodi-0.dtd"
   xmlns="http://www.w3.org/2000/svg"
   xmlns:svg="http://www.w3.org/2000/svg"
   xmlns:rdf="http://www.w3.org/1999/02/22-rdf-syntax-ns#"
   xmlns:cc="http://creativecommons.org/ns#"
   xmlns:dc="http://purl.org/dc/elements/1.1/">
  <title
     id="title6375">Blessing Transport Service Logo</title>
  <defs
     id="defs3021" />
  <sodipodi:namedview
     id="namedview3019"
     pagecolor="#ffffff"
     bordercolor="#666666"
     borderopacity="1.0"
     inkscape:pageshadow="2"
     inkscape:pageopacity="0.0"
     inkscape:pagecheckerboard="true"
     showgrid="false"
     inkscape:zoom="2.9634795"
     inkscape:cx="-36.949809"
     inkscape:cy="65.96975"
     inkscape:window-width="1366"
     inkscape:window-height="719"
     inkscape:window-x="0"
     inkscape:window-y="25"
     inkscape:window-maximized="1"
     inkscape:current-layer="svg3017"
     inkscape:showpageshadow="2"
     inkscape:deskcolor="#d1d1d1" />
  <g
     id="g6371"
     transform="matrix(0.09080552,0,0,0.09080552,1.8028031,1.5081166)">
    <path
       d="M -5.3945187,2.0230673 C 3.0698055,0.36104342 8.033327,-6.061678 16.718056,-5.4614132 25.947171,-4.8101021 25.313784,5.0115809 16.253663,6.3217718 6.0992425,7.7805664 -0.75133566,3.6137861 -7.8951603,3.1813292 -11.6703,2.9237418 -17.005757,4.1002831 -19.51302,7.172949 -16.175451,5.657265 -13.175038,4.556569 -9.4039255,4.7263882 -0.72486198,5.2031823 8.3877136,11.928262 19.213552,8.2264107 28.863054,4.876686 25.782386,-7.0848511 16.407426,-7.8770522 8.8545511,-8.4487561 2.8712883,-1.814733 -3.4684955,1.099876"
       color="#000000"
       fill="#d65600"
       stroke-width="0.34455"
       id="path4121"
       sodipodi:nodetypes="ccccccccc"
       style="fill:#d75600;fill-opacity:1" />
    <path
       d="M 16.416786,-8.0351514 C 12.093098,-8.4345292 8.5220901,-6.5477242 5.1109506,-4.2728632 1.729969,-2.0157843 -2.9177794,0.98516072 -4.7134073,1.6787586 -5.1944802,1.9274255 -5.7227165,2.0932848 -5.3989692,2.0948268 -1.596621,1.5953646 2.4635346,-0.71076915 5.5647814,-2.3139967 8.9689732,-4.0652916 12.371363,-5.5183578 16.659979,-5.2083054 c 4.552365,0.3203107 6.618734,2.8268162 6.505013,5.41100067 C 23.04818,2.7870219 20.727576,5.4724763 16.250152,6.110249 11.203714,6.8352528 7.319191,6.2189459 3.6085165,5.3412371 -0.08670378,4.4628192 -3.6083494,3.3170491 -7.8808283,3.0211634 -11.656037,2.7620883 -16.681859,3.9363468 -19.408692,6.9490238 c -0.246391,0.3005084 -0.10813,0.1512027 -0.444761,0.5675079 L -19.29579,7.249443 C -16.031534,5.823586 -13.136435,4.7903333 -9.4110027,4.9771559 -4.7083271,5.1981437 1.241322,7.6188782 6.0761104,8.6939557 11.067218,9.8006193 14.660882,9.9407837 19.304469,8.5366036 24.197741,6.836236 25.93613,2.7454341 25.168896,-0.81202294 24.407845,-4.3697636 21.218332,-7.5924572 16.459256,-8.0299945 Z m -0.0049,0.3293294 c 4.619164,0.4260684 7.673536,3.5386863 8.403036,6.94880168 0.7295,3.41011542 -0.86729,7.22756092 -5.61734,8.87663432 C 14.487284,9.7579179 10.082855,9.2808018 5.2889693,8.0845889 0.51061545,6.8891543 -4.6158833,4.8569961 -9.3963083,4.6291412 -12.562516,4.4792675 -15.679642,5.3989778 -19.17155,6.9262161 c 1.78906,-1.5117086 3.149167,-2.2464413 5.132977,-2.8890454 2.151556,-0.6994959 4.4550085,-0.788799 6.1328182,-0.6749767 4.2258426,0.2920628 7.71569225,1.4199128 11.4268449,2.3080346 C 7.2474903,6.5531787 11.17906,7.1822338 16.287043,6.4484431 20.871967,5.7908302 23.375654,2.9777157 23.496635,0.21430999 23.622257,-2.5493085 21.357947,-5.2181651 16.681605,-5.5402403 12.300128,-5.8490128 9.5164223,-4.6554133 6.1125719,-2.8966802 2.6802037,-1.084463 1.5926487,-0.52817453 -0.69932093,0.48634603 -2.7633657,1.4054359 -4.2038341,1.6866806 -4.6003914,1.8196642 -5.2334197,2.0305822 -1.8413777,0.85824842 5.0803442,-3.8868501 8.4767811,-6.1446381 12.179549,-8.0975577 16.378851,-7.7088702 Z"
       color="#000000"
       fill="#993f00"
       stroke-width="2.70174"
       id="path4124"
       sodipodi:nodetypes="ccccccccccccccccccccscccccccccccccccc" />
    <path
       d="M 23.616835,6.5056462 20.578333,8.46377 c 8.354134,6.220588 0.844994,9.099412 -4.018505,9.963604 -8.591484,1.431796 -16.72663096,-3.39159 -25.3831262,-3.039082 -3.4469318,0.144906 -7.5691128,1.245559 -10.1744598,4.059551 3.631585,-1.183325 6.827743,-2.743206 10.8065891,-2.433846 8.79734706,0.691994 17.6153963,5.885051 26.6611159,3.889783 6.761109,-1.495385 11.157363,-8.96444 5.131434,-14.3974248"
       color="#000000"
       fill="#483737"
       stroke-width="0.34455"
       id="path4127"
       sodipodi:nodetypes="cccccccc"
       style="fill:#4b3737;fill-opacity:1" />
    <path
       d="m 22.105531,7.3203629 c -0.62038,0.4190399 -1.979537,1.0732297 -1.979537,1.0732297 l 0.938075,0.6993379 c 1.842853,1.3480285 2.749433,2.5422435 3.028351,3.5580495 0.283688,1.018569 -0.03484,1.879921 -0.73894,2.627782 -1.407858,1.516577 -4.375276,2.526316 -6.787278,2.950051 -4.257308,0.709662 -8.3998186,-0.12885 -12.5642677,-1.107976 -4.16472229,-0.985078 -8.3666332,-2.105595 -12.7261311,-1.93536 -3.4469322,0.144906 -6.9537002,1.068424 -9.1551402,3.043296 -0.763543,0.741644 -1.705714,1.582926 -0.8339,1.243282 3.646835,-1.188498 6.693433,-2.63269 10.6259158,-2.321205 4.3675939,0.343698 8.77093106,1.803804 13.2214091,2.941238 4.4504077,1.135948 8.9323001,1.94547 13.4397061,0.948547 3.4342,-0.759844 6.301367,-3.076826 7.551882,-5.862252 1.230931,-2.739801 0.792078,-5.9247361 -2.252742,-8.9304595 -0.347971,-0.3269008 -0.167679,-0.2993963 -0.708302,0.1905201 -0.581466,0.524587 -0.67178,0.6151936 -1.050307,0.8710806 z M 23.637068,6.609069 c 2.794431,2.5103643 3.347789,5.794397 2.1684,8.442391 -1.205841,2.67902 -3.986512,4.92346 -7.312804,5.672391 -4.415362,0.977793 -8.8345495,0.184771 -13.269027,-0.941472 -4.43474939,-1.132194 -8.8541552,-2.604978 -13.283908,-2.953277 -3.559325,-0.279416 -7.255719,1.253214 -10.395495,2.354341 2.683242,-2.612651 5.188803,-3.208833 9.3056165,-3.647554 4.1063204,-0.118266 8.89494993,0.94847 13.0598069,1.936522 4.1802444,0.985855 8.3698016,1.837116 12.7040416,1.116472 l 0.0056,-2.57e-4 c 2.458023,-0.433302 5.479077,-1.42165 6.999544,-3.049234 0.758516,-0.817443 1.128843,-1.825772 0.815101,-2.959239 -0.300534,-1.081897 -1.94059,-2.8029698 -3.657694,-4.1105559 0,0 1.108942,-0.5691845 1.585643,-0.8822296 C 22.83855,7.2743223 23.637068,6.609069 23.637068,6.609069 Z"
       color="#000000"
       fill="#2d1e1e"
       stroke-width="2.70174"
       id="path4130"
       sodipodi:nodetypes="ccccccccccccccccccccccccccccccczc" />
  </g>
  <metadata
     id="metadata6373">
    <rdf:RDF>
      <cc:Work
         rdf:about="">
        <dc:title>Blessing Transport Service Logo</dc:title>
        <dc:publisher>
          <cc:Agent>
            <dc:title>www.blessingtransportbromoijen.com</dc:title>
          </cc:Agent>
        </dc:publisher>
        <dc:description>logo icon 16px</dc:description>
      </cc:Work>
    </rdf:RDF>
  </metadata>
</svg>
