<?xml version="1.0" encoding="UTF-8"?>
<svg width="64" height="64" version="1.1" viewBox="0 0 16.9 16.9" xmlns="http://www.w3.org/2000/svg"><title>Blessing Transport Service Logo</title><path transform="matrix(.469 0 0 .469 -.939 -.933)" d="m13.3 15.1c6.88-.813 11.1-5.24 16-4.81 7 .3 6.9 7.58 1.38 8.72-5.59 1.26-13.9-2.05-20.1-2.6-2.18-.0299-5.25.419-8.21 3.05 4.58-1.58 8.78-.779 10.1-.448 11.8 3.29 15.2 4.49 20.5 2.31 6.96-2.72 4.98-12.5-2.29-13.6-7.68-.422-8.97 4.32-17.4 7.38" color="#000000" fill="#ff3000" stroke-width=".703"/><path transform="matrix(.469 0 0 .469 -.939 -.933)" d="m28.7 7.57c-2.93.266-4.83 1.32-6.56 2.41-1.71 1.18-3.41 2.28-4.27 2.79-1.38.807-3.1 1.65-4.96 2.44 3.07-.169 6.51-1.64 9.23-2.84 2.71-1.3 5.18-2.41 8.18-1.85 2.42.261 4.47 2.27 4.28 4.4-.177 1.96-1.77 3.46-4.59 3.98-3.94.591-7.74-.44-11.4-1.31-2.84-.632-4.58-1.13-7.51-1.34-3.32-.237-5.2.639-7.15 1.81-.788.528-1.58 1.16-1.87 1.55l2.04-.512c3.13-.498 4.63-.496 6.11-.31 2.87.35 5.9 1.49 11.3 2.96 7.67 1.82 10.6.24 11.5-.0991 3.26-1.39 4.58-4.13 4.4-6.97-.222-3.46-2.97-6.72-7.14-7.07-.606-.0649-1.59-.0389-1.59-.0389zm.878.202c4.13.161 6.94 2.97 7.49 6.17.488 2.84-.596 6.06-4.56 7.51-4.59 1.56-7.98.553-11.8-.296-3.66-.94-8.11-2.34-10.3-2.58-2.41-.265-6.11.0321-7.87.752 1.3-.999 2.48-1.87 4.69-2.48 1.47-.384 2.39-.42 4.66-.231 1.37.114 5.66 1.08 8.24 1.7 2.13.515 5.61 1.32 9.41.992 3.43-.3 5.18-2.26 5.33-4.49.148-2.22-1.85-4.06-4.37-4.48-3.38-.561-5.42.421-8.15 1.67-2.78 1.27-3.4 1.45-4.94 2.03-1.57.594-3.22.869-3.81.987 3.95-1.42 5.93-3.14 8.19-4.52 2.38-1.67 4.33-2.39 6.13-2.65.562-.081 1.07-.0733 1.23-.0831z" color="#000000" fill="#793200" stroke-width=".703"/><path transform="matrix(.469 0 0 .469 -.939 -.933)" d="m35.7 20.4c-1.31 1.1-2.16 1.39-3.28 1.9 2.28 1.76 2.51 2.39 2.55 3.35.0556 1.32-2.64 2.97-4.96 3.26-6.48.747-12.9-3.89-19.6-3.92-2.69-.0108-6.31 1.37-8.17 3.56 2.87-.892 5.42-1.45 8.5-1.04 8.22 1.09 12.4 5.46 20.6 4.43 5.32-.967 9.03-6.89 4.36-11.5" color="#000000" fill="#483737" stroke-width=".703"/><path transform="matrix(.469 0 0 .469 -.939 -.933)" d="m34.6 24.7c.313.556.41 1.4-.584 2.31-.811.743-2.49 1.53-4.25 1.75-3.36.259-5.88-.522-9.1-1.48-3.21-.959-6.59-2.53-10.2-2.42-2.69-.0108-5.18 1.16-6.52 2.05-.704.47-2.44 2.08-1.75 1.83 2.07-.596 2.5-.913 5.98-1.12.826-.0497 1.61.0185 2.48.067 3.39.236 6.92 1.88 10.3 3.12 3.42 1.09 6.89 1.99 10.4 1.35 2.7-.492 5.02-2.27 6.09-4.5 1.06-2.19.481-5.5-1.83-7.55-.879.982-2.41 1.67-3.6 2.14 0 0 .994.799 1.47 1.22.837.729.897.865 1.11 1.24zm1.1-4.14c2.05 1.97 2.52 4.85 1.5 6.96-1.03 2.14-3.28 3.87-5.9 4.35-3.48.633-6.85-.297-10.3-1.39-3.41-1.33-6.39-2.54-10.5-3.07-2.76-.361-5.63.262-8.11 1.04 2.18-2.03 5.41-3.39 7.77-3.38 3.37-.167 7.2 1.43 10.5 2.46 3.22 1.01 5.62 1.61 8.34 1.54 0 0 .784-.0457 1.71-.203.927-.157 2.12-.464 3.56-1.71.816-.85.863-1.29.743-1.99-.21-1.22-1.72-2.15-2.39-2.85 1.66-.634 2.02-.962 2.6-1.4 0 0 .239-.165.479-.357z" color="#000000" fill="#282828" stroke-width=".703"/></svg>
