<svg xmlns="http://www.w3.org/2000/svg" viewBox="0 0 200 200"><path fill="#fff" d="m3.79 18.2 182-11.2 10.7 175-182 11.2z" style="mix-blend-mode:normal"/><path d="M93.3 2.99 1.5 8.5l4.99 87.6h-.001l.08.805 92.2-5.4-5.39-87.5zm-.975 1.08 5.41 86.4-90.3 5.44-4.76-86.2z" style="fill-rule:evenodd" transform="matrix(2 0 0 2 .03 -.045)"/><g stroke-width=".545"><path d="m20.83 160.755-1.57-24.4 13.96-.896q2.64-.17 4.3.292 1.659.452 2.52 1.726.873 1.266 1.023 3.58.152 2.36-.498 3.68-.638 1.304-2.94 2.12 2.82.484 3.84 1.73 1.034 1.236 1.196 3.76.148 2.3-.448 3.9-.584 1.594-2.18 2.52-1.594.934-4.42 1.114zm13.96-12.28-11.46.736.575 8.94 8.92-.574q2.8-.18 4.12-.528 1.316-.348 1.87-1.344.554-.994.418-3.1-.14-2.18-1.022-3.24-.882-1.05-3.44-.886zm-1.833-10.62-10.3.662.528 8.22 9.18-.588q2.22-.142 3.4-.59 1.194-.448 1.632-1.426.45-.978.336-2.74-.144-2.24-1.134-2.98-.978-.74-3.62-.57zM46.43 134.355l1.407 22 14.72-.946.163 2.56-18.24 1.17-1.57-24.4zM66.03 135.755l.53 8.26 14.82-.952.15 2.32-14.82.952.577 9.02 15.48-.994.154 2.4-18.66 1.198-1.57-24.4 18.66-1.198.16 2.48zM104.43 137.555l-3.18.204q-.247-1.882-.773-2.8-.524-.916-1.674-1.224-1.15-.318-3.4-.173l-1.67.107q-4.48.288-5.88 1.142-1.514.91-1.348 3.5.093 1.452.474 2.3.392.836 1.362 1.264.982.416 2.76.4.302 0 4.28-.138 3.98-.139 5.84.202 1.862.34 3.06 1.682 1.214 1.332 1.392 4.08.137 2.14-.188 3.6-.326 1.46-1.54 2.48-1.216 1.008-3.7 1.362-2.36.348-5.56.552-2.64.17-4.44.088-1.788-.09-3.2-.656-1.41-.566-2.26-1.862-.84-1.296-.98-3.48-.013-.204-.014-.576 0-.372-.014-.576l3.14-.202q.15 2.32.672 3.38.534 1.062 1.86 1.408 1.326.336 4.08.16l2.72-.174q2.64-.17 3.94-.536 1.304-.378 1.832-1.38.528-1.012.394-3.1-.11-1.706-.512-2.54-.392-.836-1.376-1.134-.986-.298-2.94-.232-2.76.078-5.4.13-2.64.053-4.52-.363-1.89-.416-3.08-1.778-1.194-1.372-1.364-4.04-.18-2.8.912-4.3 1.09-1.508 3.18-2.1 2.1-.604 5.46-.82l.754-.049q2.7-.173 4.48-.111 1.784.052 3.18.578 1.396.526 2.22 1.814.838 1.278.982 3.5zM127.83 135.955l-3.18.204q-.247-1.882-.773-2.8-.524-.916-1.674-1.224-1.15-.318-3.4-.173l-1.67.107q-4.48.288-5.88 1.142-1.514.91-1.348 3.5.093 1.452.474 2.3.392.836 1.362 1.264.982.416 2.76.4.302 0 4.28-.138 3.98-.139 5.84.202 1.862.34 3.06 1.682 1.214 1.332 1.392 4.08.137 2.14-.188 3.6-.326 1.46-1.54 2.48-1.216 1.008-3.7 1.362-2.36.348-5.56.552-2.64.17-4.44.088-1.788-.09-3.2-.656-1.41-.566-2.26-1.862-.84-1.296-.98-3.48-.013-.204-.014-.576 0-.372-.014-.576l3.14-.202q.15 2.32.672 3.38.534 1.062 1.86 1.408 1.326.336 4.08.16l2.72-.174q2.64-.17 3.94-.536 1.304-.378 1.832-1.38.528-1.012.394-3.1-.11-1.706-.512-2.54-.392-.836-1.376-1.134-.986-.298-2.94-.232-2.76.078-5.4.13-2.64.053-4.52-.363-1.89-.416-3.08-1.778-1.194-1.372-1.364-4.04-.18-2.8.912-4.3 1.09-1.508 3.18-2.1 2.1-.604 5.46-.82l.754-.049q2.7-.173 4.48-.111 1.784.052 3.18.578 1.396.526 2.22 1.814.838 1.278.982 3.5zM133.03 128.955l1.57 24.4-3.26.21-1.57-24.4zM159.43 127.155l1.57 24.4-5.32.342-17.76-21 1.42 22.2-3.18.204-1.57-24.4 5.28-.338 17.82 21.4-1.433-22.4zM173.23 138.555l12.44-.798q.152.91.265 2.66l.112 1.754q.218 3.42-.812 5.5-1.02 2.08-4.68 2.64-3.24.404-5.98.578-4.86.312-7.44-.256t-3.78-2.44q-1.192-1.88-1.436-5.68-.073-1.14-.192-3.36t-.192-3.34q-.208-3.26.594-5.26t2.94-3.04q2.14-1.038 5.96-1.282 4.66-.3 7.04-.374 3.58-.142 5.28 1.334 1.7 1.466 1.898 4.54l.057.878-3.18.204q-.16-2.5-1.042-3.54-.872-1.06-3.58-.964-2.04.053-6.08.312-3.16.204-4.54.78-1.36.566-1.74 1.922-.368 1.344-.23 4.4l.114 3.24.314 3.44q.12 1.88.42 3.08.31 1.194 1.284 2.04.986.846 2.92.986 1.578.104 4.72-.098l1.704-.109q2.9-.186 4.26-.664 1.366-.48 1.806-1.622.45-1.144.3-3.5l-.136-2.12-9.26.594z"/></g><g stroke-width=".537"><path d="m30.43 168.955.77 12.02-1.775.114-.77-12.02-5.02.322-.093-1.448 11.76-.754.093 1.448zM36.23 171.155l1.573-.1.044 1.077q.844-1.356 2.88-1.488 3.14-.202 3.36 3.14l-1.572.101q-.07-1.088-.482-1.606t-1.582-.442q-2.54.163-2.4 2.36l.402 6.28-1.62.104zM46.83 173.155l-1.675.108q-.114-1.764.888-2.32 1.002-.56 3.22-.702 1.67-.108 2.68.06 1.01.166 1.582.851.572.68.662 2.1l.394 6.12-1.54.1.035-.993q-.574.736-1.438 1.018-.858.276-2.16.36-1.46.094-2.38-.073-.924-.167-1.454-.784-.53-.618-.61-1.856-.075-1.18.404-1.834.48-.66 1.364-.922.89-.262 2.28-.35 1.28-.082 2.12.025.852.107 1.404.696l-.07-1.094q-.076-1.184-.346-1.706-.27-.526-.912-.662t-2.06-.046q-1.534.098-2.06.508-.464.32-.416 1.06.004.059.035.16.037.094.042.169zm-.12 3.74q.076 1.184.646 1.558.576.372 1.968.282 1.07-.069 1.794-.206.73-.138 1.244-.558.52-.42.466-1.246-.074-1.152-.844-1.426-.77-.278-2.28-.182l-.408.027q-1.77.113-2.28.566-.366.288-.308 1.188zM55.03 169.955l1.467-.094.079 1.228q.566-.866 1.468-1.236t2.16-.452q1.484-.095 2.36.167.874.262 1.306.982t.514 2l.4 6.24-1.647.105-.393-6.12q-.062-.954-.298-1.434t-.812-.648q-.57-.168-1.702-.095-3.22.206-3.04 2.9l.37 5.78-1.62.104zM74.23 171.155l-1.62.104q-.058-.906-.737-1.152-.68-.252-1.844-.178l-.81.052q-1.15.074-1.726.406-.57.328-.514 1.19.037.584.187.882.149.292.498.414.35.118 1.038.117l2.2-.098q1.078-.047 1.908.104t1.38.698q.55.546.62 1.64.083 1.298-.428 1.96-.504.656-1.446.894-.936.232-2.52.334-1.448.093-2.42.005-.974-.088-1.666-.604-.686-.522-.76-1.668-.024-.37-.01-.526l1.62-.104q.055.842.323 1.254.274.408.822.528.548.115 1.568.05l.378-.024q1.93-.124 2.52-.538.464-.326.396-1.392-.06-.928-.576-1.142-.518-.22-1.568-.153l-.662.043q-.037.002-.15-.012-.113-.014-.156-.011-1.608.017-2.12.007-.516-.016-1.138-.206-.622-.197-1-.69-.38-.498-.438-1.392-.108-1.678.648-2.2 1.052-.752 3.48-.906 1.342-.087 2.34.033.988.114 1.67.652.686.532.756 1.63zM75.43 168.555l1.573-.1.029 1.23q.538-.81 1.348-1.147.81-.338 2.02-.414 1.874-.12 2.86.366.988.48 1.342 1.464.354.978.462 2.66.081 1.264.004 2.1-.077.834-.45 1.492-.374.66-1.198 1.062-.826.398-2.22.488-1.224.079-2.14-.116-.908-.2-1.518-.904l.332 5.18-1.572.1zm1.879 4.28.046.724q.072 1.126.32 1.788.248.662.928 1.006.686.344 1.974.26 1.404-.09 2.02-.502.62-.412.738-1.08.125-.676.043-1.946l-.036-.552q-.086-1.346-.277-2.02-.192-.666-.855-1-.661-.334-2.06-.244-1.38.088-2.02.474-.633.38-.781 1.072-.142.692-.058 2.02zM85.83 172.355q-.11-1.71.168-2.7.284-.998 1.244-1.532.96-.54 2.9-.666 2.1-.134 3.18.195 1.09.322 1.54 1.252t.569 2.76q.123 1.918-.04 2.96-.157 1.044-1.094 1.734-.932.684-3.04.82-2.02.13-3.12-.134-1.092-.268-1.614-1.146-.516-.876-.628-2.64zm1.647-.106.05.794q.14 2.18.835 2.74.49.366 1.776.284l.786-.05q1.04-.067 1.642-.25.604-.184.916-.64.318-.456.324-1.324-.018-.752-.108-2.16-.088-1.366-.264-1.99-.17-.624-.76-.894-.582-.274-1.876-.192l-.352.023q-1.46.093-2.1.372-.634.278-.81.924-.17.646-.08 2.06zM96.03 167.355l1.573-.1.044 1.077q.844-1.356 2.88-1.488 3.14-.202 3.36 3.14l-1.572.101q-.07-1.088-.482-1.606t-1.582-.442q-2.54.163-2.4 2.36l.402 6.28-1.62.104zM111.63 166.355l.074 1.142-4.18.268.37 5.76q.055.852.372 1.144.316.286 1.244.226 1.014-.065 1.268-.474.254-.41.196-1.294l-.038-.59 1.516-.097q.11 1.716-.435 2.6-.54.89-2.44 1.012-1.207.077-1.909-.12-.696-.198-1.03-.746t-.398-1.562l-.37-5.76-1.422.091-.073-1.142 1.422-.091-.145-2.26 1.646-.106.145 2.26zM131.03 164.755l-1.693.109q-.135-1.036-.416-1.54-.28-.504-.894-.674-.614-.176-1.814-.099l-.89.057q-2.4.154-3.14.622-.806.498-.716 1.918.05.798.256 1.264.21.46.728.696.524.23 1.474.222.161 0 2.28-.071 2.12-.072 3.12.118.994.189 1.638.928.65.734.746 2.26.075 1.174-.097 1.982-.172.802-.82 1.36-.648.552-1.97.746-1.262.188-2.96.298-1.41.09-2.36.044-.954-.052-1.712-.364-.752-.312-1.202-1.026t-.526-1.92q-.007-.113-.008-.318 0-.204-.008-.318l1.676-.108q.082 1.276.362 1.86.286.584.994.776.708.186 2.18.092l1.448-.093q1.404-.09 2.1-.29.694-.206.976-.756.282-.556.208-1.704-.06-.938-.276-1.392-.21-.46-.736-.626t-1.568-.13q-1.47.04-2.88.066-1.408.026-2.42-.206-1.008-.232-1.646-.982-.638-.756-.732-2.22-.098-1.538.482-2.36.58-.828 1.696-1.154 1.116-.33 2.92-.446l.402-.026q1.442-.092 2.38-.056.952.03 1.698.322.746.292 1.188 1 .448.704.528 1.93zM140.43 170.955l1.703-.11q.085 1.325-.43 2-.51.679-1.45.929-.94.244-2.56.348-1.528.098-2.5-.077-.962-.175-1.514-.668-.548-.498-.806-1.342-.254-.85-.34-2.22-.12-1.866.098-2.92.218-1.052 1.172-1.674.96-.626 3.02-.758 2.04-.131 3.1.173 1.05.298 1.486 1.18.442.876.59 2.7l.047.728-7.8.502q.084 1.302.262 1.964.185.66.836 1.022.656.362 2.04.272l.432-.028q1.36-.087 2.04-.41.68-.328.616-1.326zm-.14-2.68q-.081-1.27-.312-1.848-.224-.578-.888-.772-.658-.195-2.08-.103-1.25.08-1.882.384-.632.298-.84.932-.208.632-.133 1.8zM142.43 164.355l1.573-.1.044 1.077q.844-1.356 2.88-1.488 3.14-.202 3.36 3.14l-1.572.101q-.07-1.088-.482-1.606t-1.582-.442q-2.54.163-2.4 2.36l.402 6.28-1.62.104zM160.43 163.155l-3.04 9.66-2.28.146-4.18-9.18 1.62-.104 3.66 8.12 2.46-8.52zM162.43 158.955l.1 1.56-1.645.106-.1-1.56zm.865 13.46-1.646.106-.604-9.42 1.646-.106zM171.83 168.355l1.62-.104q.094 1.448-.315 2.24-.404.78-1.356 1.12-.954.342-2.68.452-1.694.109-2.68-.118-.99-.232-1.486-.808-.49-.582-.67-1.438-.173-.856-.274-2.42-.107-1.662.234-2.64.34-.99 1.35-1.512 1.016-.528 2.92-.65 2.1-.135 3.26.378 1.176.506 1.286 2.22l.02.306-1.573.1q-.054-.852-.342-1.27-.282-.418-.848-.542-.56-.125-1.55-.062-1.478.095-2.14.384-.658.29-.84.958-.18.662-.09 2.08l.06.944q.08 1.248.282 1.872.208.622.866.918.658.292 2.02.204 1.306-.083 1.914-.268.608-.19.848-.712.24-.526.17-1.61zM182.23 168.355l1.703-.11q.085 1.325-.43 2-.51.679-1.45.929-.94.244-2.56.348-1.528.098-2.5-.077-.962-.175-1.514-.668-.548-.498-.806-1.342-.254-.85-.34-2.22-.12-1.866.098-2.92.218-1.052 1.172-1.674.96-.626 3.02-.758 2.04-.131 3.1.173 1.05.298 1.486 1.18.442.876.59 2.7l.047.728-7.8.502q.084 1.302.262 1.964.185.66.836 1.022.656.362 2.04.272l.432-.028q1.36-.087 2.04-.41.68-.328.616-1.326zm-.14-2.68q-.082-1.27-.312-1.848-.224-.578-.888-.772-.658-.195-2.08-.103-1.25.08-1.882.384-.632.298-.84.932t-.133 1.8z"/></g><path d="m20.63 163.555.141 2.16c164.8-10.58 165-10.58 165-10.58l1.084-.07-.125-2.1c-146.8 9.34-.023-.071-166 10.58z"/><path fill="#ff3000" d="M64.1 51.4c33.4-5.58 52.9-26.3 77-25.8 34.3-.66 35.8 31.7 9.1 38.4-27 7.2-68.5-5.16-99-5.84-10.7.488-26 3.26-39.7 15.8 22-8.33 43.1-5.87 49.7-4.77 58.6 11.3 72.6 15.1 101 4.43 32.7-15.1 19.7-56-14.9-59.8-37.7.312-42.9 21.1-83.2 37.6" color="#000"/><path fill="#793200" d="M137 13.7c-14.3 2.02-23.3 7.25-31.4 12.6-8.05 5.74-16.1 11.1-20.1 13.6-6.53 3.98-14.7 8.22-23.6 12.3 15-1.63 31.4-9.15 44.4-15.3 12.9-6.55 24.7-12.2 39.5-10.6 11.9.471 22.5 8.82 22.1 18.3-.338 8.77-7.73 15.9-21.4 19-19.1 3.75-38 .249-56.1-2.58-14.1-2-22.7-3.72-37.1-3.82C37 57.092 28 61.52 18.8 67.3c-3.71 2.57-7.42 5.61-8.73 7.43l9.84-2.86c15.2-3.11 22.5-3.53 29.8-3.12 14.1.739 29.3 4.95 56.1 9.94 38 5.91 51.9-1.95 56.2-3.72 15.6-7.11 21.3-19.7 19.6-32.3-2.02-15.3-16.3-29-36.8-29.4-2.98-.116-7.81.43-7.81.43zm4.35.648c20.2-.461 34.7 11.2 38.3 25.3 3.15 12.5-1.28 27.1-20.3 34.7-22 8.25-38.9 4.73-57.8 2.05-18.2-3.14-40.3-8.1-51.1-8.54-11.9-.492-29.9 1.88-38.3 5.59 6.09-4.81 11.6-9.02 22.3-12.4 7.09-2.13 11.6-2.55 22.7-2.36 6.73.117 28 3.19 40.8 5.21 10.6 1.68 27.8 4.27 46.3 1.73 16.7-2.31 24.7-11.5 24.9-21.5.127-9.92-10.1-17.5-22.6-18.7-16.7-1.53-26.4 3.42-39.4 9.75-13.3 6.44-16.2 7.42-23.6 10.4-7.52 3.09-15.5 4.78-18.4 5.48 18.9-7.44 28.2-15.7 38.8-22.4 11.2-8.11 20.5-11.9 29.3-13.5 2.73-.52 5.21-.631 5.99-.72z" color="#000"/><path fill="#483737" d="M175 68.7c-6.11 5.27-10.2 6.8-15.5 9.38 11.6 7.18 12.9 9.91 13.4 14.2.627 5.85-12.1 14-23.4 15.9-31.5 5.17-64.2-13.6-96.9-11.8-13.2.718-30.5 7.89-39 18.2 13.8-4.78 26.1-7.99 41.3-7.05 40.5 2.51 62.1 20.7 102 13.8 25.8-5.82 42.3-33.2 18.2-52.4" color="#000"/><path fill="#282828" d="M171 88.2c1.68 2.38 2.38 6.11-2.24 10.4-3.77 3.54-11.8 7.51-20.3 8.99-16.4 2.11-28.9-.646-44.9-3.99-16-3.35-32.9-9.37-50.5-7.86-13.2.718-25 6.73-31.3 11.1-3.32 2.29-8.04 7.29-9.01 8.22 2.45-1.02 12.9-4.74 29.9-6.66 4.03-.456 7.89-.425 12.2-.109 19.9 1.4 34.4 6.39 51.2 10.9 17 3.87 34.2 6.89 51.2 3.04 13.1-2.96 23.9-11.5 28.6-21.7 4.6-10 .873-24.6-11-33.1-4.04 4.62-11.3 8.11-17 10.5 0 0 5.15 3.17 7.52 5.01 4.14 3.21 4.45 3.66 5.59 5.27zm4.27-18.7c10.6 8.18 13.6 20.9 9.21 30.5-4.46 9.81-15 18.1-27.7 21-16.9 3.81-33.6.631-50.8-3.25-17-4.94-31.9-9.48-52.2-10.7-13.6-.819-26.4 2.12-38.3 6.29 10.1-9.65 24.5-15.9 36-16.5 16.4-1.7 35.6 4.31 52 7.95 16 3.57 27.9 5.56 41.2 4.47 0 0 3.82-.427 8.31-1.39 4.49-.962 10.2-2.67 17-8.62 3.76-4.01 3.87-5.98 3.1-9.06-1.36-5.37-8.99-9.07-12.5-12 7.95-3.29 9.62-4.85 12.3-6.97 0 0 1.12-.802 2.25-1.72z" color="#000"/></svg>