<?xml version="1.0" encoding="UTF-8"?>
<svg version="1.2" viewBox="0 0 512 512" xmlns="http://www.w3.org/2000/svg"><title>BLESSING TRANSPORT SERVICE</title><rect x=".0273" y=".0613" width="512" height="512" rx="137" ry="137" fill="#fff" stroke-width="12.8"/><g transform="translate(-3.08 -5.3)" stroke-width="1.25"><path d="m169 197c91.8-10.8 148-70.1 214-64.3 93.3 4.01 92.6 102 18.4 117-74.7 16.9-186-27.5-269-34.8-29.1-.399-70.1 5.29-110 40.5 61.2-21.1 117-10.1 135-5.69 158 44 203 60.2 274 31.1 93.3-36.4 66.5-167-30.6-182-102-5.64-120 57.8-232 98.6" color="#000000" fill="#ff3000"/><path d="m375 96.4c-39.1 3.55-64.6 17.6-88.1 32.2-22.9 15.8-45.6 30.5-57.1 37.3-18.4 10.8-41.5 22.1-66.3 32.6 41-2.26 87.3-21.9 123-37.9 36.2-17.4 69.2-32.1 109-24.7 32.4 3.49 59.8 30.3 57.2 58.8-2.36 26.2-23.6 46.3-61.3 53.2-52.7 7.9-103-5.88-152-17.5-37.9-8.43-61.2-15.1-100-17.9-44.4-3.17-69.5 8.5-95.6 24.2-10.5 7.06-21.1 15.5-25 20.7l27.2-6.84c41.8-6.65 61.9-6.63 82-4.15 38.4 4.68 79 19.9 151 39.6 102 24.3 141 3.21 154-1.32 43.6-18.6 61.2-55.2 58.8-93.3-2.97-46.3-39.7-89.6-95.6-94.8-8.13-.866-21.6-.0301-21.6-.0301zm11.7 2.7c55.2 2.15 92.6 39.7 100 82.8 6.53 37.9-7.98 81.3-61 100-61.3 20.8-107 7.39-158-3.96-48.9-12.6-108-31.3-138-34.5-32.2-3.54-82 .429-105 10.1 17.4-13.3 33.1-25 62.7-33.1 19.6-5.13 31.9-5.62 62.3-3.09 18.3 1.53 76 14.5 110 22.7 28.4 6.89 75 17.6 126 13.2 45.8-4.01 69.2-30.2 71.3-60 1.98-29.7-24.8-54.3-58.4-59.9-45.2-7.5-72.5 5.63-109 22.4-37.2 17-45.5 19.4-66 27.2-21 7.98-43.1 11.6-51 13.2 52.8-19 79-42 109-60.4 31.8-22.4 57.9-31.9 82-35.4 7.51-1.08 14.3-.978 16.4-1.11z" color="#000000" fill="#793200"/><path d="m469 267c-17.5 14.7-28.9 18.6-43.9 25.4 30.6 23.6 33.6 31.9 34.1 44.7.743 17.6-35.3 39.7-66.3 43.7-86.6 10-172-52-262-52.4-36-.144-84.3 18.3-109 47.6 38.3-12 72.5-19.4 114-13.9 110 14.6 166 73 275 59.3 71.1-12.9 120-91.8 58.3-154" color="#000000" fill="#483737"/><path d="m455 324c4.18 7.44 5.49 18.7-7.83 30.9-10.8 9.93-33.3 20.5-56.8 23.4-44.9 3.46-78.3-6.98-122-19.8-42.9-12.8-88.1-33.8-136-32.4-36-.144-69.2 15.5-87.3 27.4-9.41 6.28-32.6 27.8-23.4 24.5 27.7-7.98 33.3-12.2 79.8-15 11.1-.665 21.6.247 33.2.896 45.3 3.15 92.6 25.1 138 41.7 45.7 14.6 91.8 26.6 139 18.1 36.1-6.58 67.1-30.3 81.3-60.1 14.1-29.3 6.43-73.5-24.5-101-11.7 13.1-32.2 22.4-48.1 28.6 0 0 13.2 10.7 19.7 16.3 11.2 9.71 12.3 11.5 15.1 16.5zm14.7-55.3c27.4 26.3 33.7 64.8 20 93.3-13.8 28.6-43.9 51.7-79 58.2-46.5 8.43-91.8-3.97-138-18.6-45.6-17.8-85-33.9-140-41-36.9-4.82-75.3 3.5-108 13.9 29.1-27.2 72.3-45.3 104-45.2 45.1-2.24 96.3 19.1 140 32.9 43.1 13.5 75.1 21.5 111 20.6 0 0 10.5-.611 22.9-2.72 12.4-2.1 28.4-6.21 47.6-22.9 10.9-11.4 11.5-17.2 9.93-26.6-2.81-16.3-23-28.8-31.9-38.1 22.2-8.5 27-12.9 34.8-18.7 0 0 3.19-2.21 6.4-4.77z" color="#000000" fill="#282828"/></g></svg>
