<?xml version="1.0" standalone="no"?>
<!DOCTYPE svg PUBLIC "-//W3C//DTD SVG 20010904//EN"
 "http://www.w3.org/TR/2001/REC-SVG-20010904/DTD/svg10.dtd">
<svg version="1.0" xmlns="http://www.w3.org/2000/svg"
 width="512.000000pt" height="512.000000pt" viewBox="0 0 512.000000 512.000000"
 preserveAspectRatio="xMidYMid meet">
<metadata>
Created by potrace 1.14, written by Peter Selinger 2001-2017
</metadata>
<g transform="translate(0.000000,512.000000) scale(0.100000,-0.100000)"
fill="#000000" stroke="none">
<path d="M3574 4195 c-283 -52 -495 -148 -849 -385 -406 -272 -583 -374 -870
-507 -242 -111 -231 -104 -160 -98 298 29 645 145 1249 417 351 158 543 210
776 210 287 0 485 -68 634 -217 131 -131 182 -298 141 -454 -26 -100 -61 -159
-144 -242 -61 -62 -94 -85 -171 -122 -185 -90 -401 -125 -700 -113 -268 10
-437 38 -980 163 -544 125 -920 193 -1156 209 -106 8 -315 -10 -434 -36 -241
-53 -496 -184 -684 -352 -32 -28 -55 -52 -54 -54 2 -1 64 13 138 31 240 61
399 80 690 80 353 0 408 -11 1270 -258 607 -175 810 -219 1135 -246 483 -42
882 53 1158 275 271 219 384 587 293 948 -100 392 -424 685 -831 751 -110 18
-352 18 -451 0z"/>
<path d="M4619 2425 c-83 -80 -165 -129 -309 -188 -52 -22 -96 -40 -98 -42 -2
-1 49 -44 112 -94 129 -103 170 -149 193 -216 45 -134 -36 -254 -247 -364
-196 -102 -304 -131 -522 -138 -362 -12 -643 47 -1393 294 -593 195 -762 229
-1087 220 -127 -3 -219 -11 -268 -22 -199 -45 -421 -137 -578 -241 -94 -63
-275 -234 -254 -241 7 -3 72 11 145 31 397 107 645 133 962 101 354 -35 535
-84 1128 -307 598 -224 961 -308 1335 -308 273 0 440 33 628 125 377 183 611
533 590 880 -12 199 -95 397 -229 546 l-32 37 -76 -73z"/>
</g>
</svg>
